solid Much4
facet normal -0.8660254037844398 0.0 0.49999999999999795
  outer loop
    vertex -133.66220655507246 -123.88918154688604 9.500000004051579
    vertex -133.96190782258643 -129.28918154688603 8.77645713935916
    vertex -133.66220655507246 -129.28918154688603 9.500000004051579
  endloop
endfacet
facet normal -0.9659258262890669 0.0 0.2588190451025262
  outer loop
    vertex -133.96190782258643 -129.28918154688603 8.77645713935916
    vertex -133.66220655507246 -123.88918154688604 9.500000004051579
    vertex -133.96190782258643 -123.88918154688604 8.77645713935916
  endloop
endfacet
facet normal 0.0 1.0 0.0
  outer loop
    vertex -134.06413034371917 -123.88918154688604 8.000000004051557
    vertex -124.06413034371917 -123.88918154688604 5.000000004051563
    vertex -134.06413034371917 -123.88918154688604 5.000000004051563
  endloop
endfacet
facet normal 0.0 1.0 0.0
  outer loop
    vertex -124.06413034371917 -123.88918154688604 5.000000004051563
    vertex -134.06413034371917 -123.88918154688604 8.000000004051557
    vertex -124.06413034371917 -123.88918154688604 8.000000004051557
  endloop
endfacet
facet normal 0.0 1.0 0.0
  outer loop
    vertex -124.06413034371917 -123.88918154688604 8.000000004051557
    vertex -134.06413034371917 -123.88918154688604 8.000000004051557
    vertex -133.96190782258643 -123.88918154688604 8.77645713935916
  endloop
endfacet
facet normal 0.0 1.0 0.0
  outer loop
    vertex -124.06413034371917 -123.88918154688604 8.000000004051557
    vertex -133.96190782258643 -123.88918154688604 8.77645713935916
    vertex -124.16635286485192 -123.88918154688604 8.77645713935916
  endloop
endfacet
facet normal 0.0 1.0 0.0
  outer loop
    vertex -124.16635286485192 -123.88918154688604 8.77645713935916
    vertex -133.96190782258643 -123.88918154688604 8.77645713935916
    vertex -133.66220655507246 -123.88918154688604 9.500000004051579
  endloop
endfacet
facet normal 0.0 1.0 0.0
  outer loop
    vertex -124.16635286485192 -123.88918154688604 8.77645713935916
    vertex -133.66220655507246 -123.88918154688604 9.500000004051579
    vertex -124.46605413236587 -123.88918154688604 9.500000004051579
  endloop
endfacet
facet normal 0.0 1.0 0.0
  outer loop
    vertex -124.46605413236587 -123.88918154688604 9.500000004051579
    vertex -133.66220655507246 -123.88918154688604 9.500000004051579
    vertex -133.1854506872788 -123.88918154688606 10.121320347611206
  endloop
endfacet
facet normal 0.0 1.0 0.0
  outer loop
    vertex -124.46605413236587 -123.88918154688604 9.500000004051579
    vertex -133.1854506872788 -123.88918154688606 10.121320347611206
    vertex -124.94281000015953 -123.88918154688604 10.121320347611206
  endloop
endfacet
facet normal 0.0 1.0 0.0
  outer loop
    vertex -124.94281000015953 -123.88918154688604 10.121320347611206
    vertex -133.1854506872788 -123.88918154688606 10.121320347611206
    vertex -132.56413034371923 -123.88918154688606 10.598076215404904
  endloop
endfacet
facet normal 0.0 1.0 0.0
  outer loop
    vertex -124.94281000015953 -123.88918154688604 10.121320347611206
    vertex -132.56413034371923 -123.88918154688606 10.598076215404904
    vertex -125.5641303437192 -123.88918154688606 10.598076215404904
  endloop
endfacet
facet normal 0.0 1.0 0.0
  outer loop
    vertex -125.5641303437192 -123.88918154688606 10.598076215404904
    vertex -132.56413034371923 -123.88918154688606 10.598076215404904
    vertex -131.8405874790267 -123.88918154688604 10.897777482918762
  endloop
endfacet
facet normal 0.0 1.0 0.0
  outer loop
    vertex -125.5641303437192 -123.88918154688606 10.598076215404904
    vertex -131.8405874790267 -123.88918154688604 10.897777482918762
    vertex -126.28767320841162 -123.88918154688606 10.897777482918762
  endloop
endfacet
facet normal 0.0 1.0 0.0
  outer loop
    vertex -126.28767320841162 -123.88918154688606 10.897777482918762
    vertex -131.8405874790267 -123.88918154688604 10.897777482918762
    vertex -131.0641303437192 -123.88918154688604 11.000000004051598
  endloop
endfacet
facet normal 0.0 1.0 0.0
  outer loop
    vertex -126.28767320841162 -123.88918154688606 10.897777482918762
    vertex -131.0641303437192 -123.88918154688604 11.000000004051598
    vertex -127.06413034371913 -123.88918154688604 11.000000004051598
  endloop
endfacet
facet normal -0.9659258262890669 0.0 0.2588190451025262
  outer loop
    vertex -133.96190782258643 -123.88918154688604 8.77645713935916
    vertex -134.06413034371917 -129.28918154688603 8.000000004051557
    vertex -133.96190782258643 -129.28918154688603 8.77645713935916
  endloop
endfacet
facet normal -0.9978589232386039 0.0 0.06540312923013965
  outer loop
    vertex -134.06413034371917 -129.28918154688603 8.000000004051557
    vertex -133.96190782258643 -123.88918154688604 8.77645713935916
    vertex -134.06413034371917 -123.88918154688604 8.000000004051557
  endloop
endfacet
facet normal 0.7071067811865516 0.0 0.7071067811865436
  outer loop
    vertex -124.94281000015953 -129.28918154688603 10.12132034761125
    vertex -125.5641303437192 -123.88918154688606 10.598076215404904
    vertex -125.5641303437192 -129.28918154688606 10.598076215404904
  endloop
endfacet
facet normal 0.49999999999999795 0.0 0.8660254037844398
  outer loop
    vertex -125.5641303437192 -123.88918154688606 10.598076215404904
    vertex -124.94281000015953 -129.28918154688603 10.12132034761125
    vertex -124.94281000015953 -123.88918154688604 10.121320347611206
  endloop
endfacet
facet normal 0.0 1.0 0.0
  outer loop
    vertex -137.0641303437192 -129.78918154688608 5.000000004051608
    vertex -134.06413034371917 -129.78918154688608 4.0516171898000525e-09
    vertex -137.0641303437192 -129.78918154688606 4.0516171898000525e-09
  endloop
endfacet
facet normal 0.0 1.0 0.0
  outer loop
    vertex -134.06413034371917 -129.78918154688608 4.0516171898000525e-09
    vertex -137.0641303437192 -129.78918154688608 5.000000004051608
    vertex -134.06413034371917 -129.78918154688606 5.000000004051608
  endloop
endfacet
facet normal 0.0654031292301442 0.0 0.9978589232386035
  outer loop
    vertex -127.06413034371913 -129.28918154688603 11.000000004051598
    vertex -131.0641303437192 -123.88918154688604 11.000000004051598
    vertex -131.0641303437192 -129.28918154688603 11.000000004051598
  endloop
endfacet
facet normal -0.0654031292301436 0.0 0.9978589232386036
  outer loop
    vertex -131.0641303437192 -123.88918154688604 11.000000004051598
    vertex -127.06413034371913 -129.28918154688603 11.000000004051598
    vertex -127.06413034371913 -123.88918154688604 11.000000004051598
  endloop
endfacet
facet normal 0.9978589232386037 0.0 0.06540312923013987
  outer loop
    vertex -124.06413034371917 -129.28918154688603 8.000000004051557
    vertex -124.16635286485192 -123.88918154688604 8.77645713935916
    vertex -124.16635286485192 -129.28918154688603 8.77645713935916
  endloop
endfacet
facet normal 0.9659258262890671 0.0 0.2588190451025256
  outer loop
    vertex -124.16635286485192 -123.88918154688604 8.77645713935916
    vertex -124.06413034371917 -129.28918154688603 8.000000004051557
    vertex -124.06413034371917 -123.88918154688604 8.000000004051557
  endloop
endfacet
facet normal 0.0 -1.0 0.0
  outer loop
    vertex -124.06413034371917 -129.28918154688603 8.000000004051557
    vertex -134.06413034371917 -129.28918154688603 5.000000004051608
    vertex -124.06413034371917 -129.28918154688603 5.000000004051608
  endloop
endfacet
facet normal 0.0 -1.0 0.0
  outer loop
    vertex -134.06413034371917 -129.28918154688603 5.000000004051608
    vertex -124.06413034371917 -129.28918154688603 8.000000004051557
    vertex -134.06413034371917 -129.28918154688603 8.000000004051557
  endloop
endfacet
facet normal 0.0 -1.0 0.0
  outer loop
    vertex -134.06413034371917 -129.28918154688603 8.000000004051557
    vertex -124.06413034371917 -129.28918154688603 8.000000004051557
    vertex -124.16635286485192 -129.28918154688603 8.77645713935916
  endloop
endfacet
facet normal 0.0 -1.0 0.0
  outer loop
    vertex -134.06413034371917 -129.28918154688603 8.000000004051557
    vertex -124.16635286485192 -129.28918154688603 8.77645713935916
    vertex -133.96190782258643 -129.28918154688603 8.77645713935916
  endloop
endfacet
facet normal 0.0 -1.0 0.0
  outer loop
    vertex -133.96190782258643 -129.28918154688603 8.77645713935916
    vertex -124.16635286485192 -129.28918154688603 8.77645713935916
    vertex -124.46605413236587 -129.28918154688603 9.500000004051579
  endloop
endfacet
facet normal 0.0 -1.0 0.0
  outer loop
    vertex -133.96190782258643 -129.28918154688603 8.77645713935916
    vertex -124.46605413236587 -129.28918154688603 9.500000004051579
    vertex -133.66220655507246 -129.28918154688603 9.500000004051579
  endloop
endfacet
facet normal 0.0 -1.0 0.0
  outer loop
    vertex -133.66220655507246 -129.28918154688603 9.500000004051579
    vertex -124.46605413236587 -129.28918154688603 9.500000004051579
    vertex -124.94281000015953 -129.28918154688603 10.12132034761125
  endloop
endfacet
facet normal 0.0 -1.0 0.0
  outer loop
    vertex -133.66220655507246 -129.28918154688603 9.500000004051579
    vertex -124.94281000015953 -129.28918154688603 10.12132034761125
    vertex -133.1854506872788 -129.28918154688606 10.12132034761125
  endloop
endfacet
facet normal 0.0 -1.0 0.0
  outer loop
    vertex -133.1854506872788 -129.28918154688606 10.12132034761125
    vertex -124.94281000015953 -129.28918154688603 10.12132034761125
    vertex -125.5641303437192 -129.28918154688606 10.598076215404904
  endloop
endfacet
facet normal 0.0 -1.0 0.0
  outer loop
    vertex -133.1854506872788 -129.28918154688606 10.12132034761125
    vertex -125.5641303437192 -129.28918154688606 10.598076215404904
    vertex -132.56413034371923 -129.28918154688606 10.598076215404904
  endloop
endfacet
facet normal 0.0 -1.0 0.0
  outer loop
    vertex -132.56413034371923 -129.28918154688606 10.598076215404904
    vertex -125.5641303437192 -129.28918154688606 10.598076215404904
    vertex -126.28767320841162 -129.28918154688606 10.897777482918762
  endloop
endfacet
facet normal 0.0 -1.0 0.0
  outer loop
    vertex -132.56413034371923 -129.28918154688606 10.598076215404904
    vertex -126.28767320841162 -129.28918154688606 10.897777482918762
    vertex -131.8405874790267 -129.28918154688603 10.897777482918762
  endloop
endfacet
facet normal 0.0 -1.0 0.0
  outer loop
    vertex -131.8405874790267 -129.28918154688603 10.897777482918762
    vertex -126.28767320841162 -129.28918154688606 10.897777482918762
    vertex -127.06413034371913 -129.28918154688603 11.000000004051598
  endloop
endfacet
facet normal 0.0 -1.0 0.0
  outer loop
    vertex -131.8405874790267 -129.28918154688603 10.897777482918762
    vertex -127.06413034371913 -129.28918154688603 11.000000004051598
    vertex -131.0641303437192 -129.28918154688603 11.000000004051598
  endloop
endfacet
facet normal -0.0654031292301436 0.9978589232386036 -3.952767705181823e-31
  outer loop
    vertex -147.06413034371917 -116.58918154688604 5.000000004051608
    vertex -130.06413034371917 -116.58918154688604 4.0516171898000525e-09
    vertex -147.06413034371917 -116.58918154688604 4.0516171898000525e-09
  endloop
endfacet
facet normal 0.06540312923014266 0.9978589232386036 3.952767705181823e-31
  outer loop
    vertex -130.06413034371917 -116.58918154688604 4.0516171898000525e-09
    vertex -147.06413034371917 -116.58918154688604 5.000000004051608
    vertex -130.06413034371917 -116.58918154688604 5.000000004051608
  endloop
endfacet
facet normal -0.0654031292301436 0.0 0.9978589232386036
  outer loop
    vertex -131.0641303437192 -129.28918154688603 11.000000004051598
    vertex -131.8405874790267 -123.88918154688604 10.897777482918762
    vertex -131.8405874790267 -129.28918154688603 10.897777482918762
  endloop
endfacet
facet normal -0.2588190451025194 0.0 0.9659258262890686
  outer loop
    vertex -131.8405874790267 -123.88918154688604 10.897777482918762
    vertex -131.0641303437192 -129.28918154688603 11.000000004051598
    vertex -131.0641303437192 -123.88918154688604 11.000000004051598
  endloop
endfacet
facet normal 0.4999999999999959 0.0 0.866025403784441
  outer loop
    vertex -125.5641303437192 -129.28918154688606 10.598076215404904
    vertex -126.28767320841162 -123.88918154688606 10.897777482918762
    vertex -126.28767320841162 -129.28918154688606 10.897777482918762
  endloop
endfacet
facet normal 0.25881904510251946 0.0 0.9659258262890686
  outer loop
    vertex -126.28767320841162 -123.88918154688606 10.897777482918762
    vertex -125.5641303437192 -129.28918154688606 10.598076215404904
    vertex -125.5641303437192 -123.88918154688606 10.598076215404904
  endloop
endfacet
facet normal 0.9978589232386034 0.06540312923014652 4.940959631477267e-32
  outer loop
    vertex -124.06413034371917 -122.58918154688607 4.051572070336332e-09
    vertex -124.06413034371917 -130.58918154688604 5.000000004051608
    vertex -124.06413034371917 -130.58918154688607 4.0516171898000525e-09
  endloop
endfacet
facet normal 0.9978589232386034 -0.06540312923014639 0.0
  outer loop
    vertex -124.06413034371917 -130.58918154688604 5.000000004051608
    vertex -124.06413034371917 -122.58918154688607 4.051572070336332e-09
    vertex -124.06413034371917 -129.28918154688603 5.000000004051608
  endloop
endfacet
facet normal 1.0 0.0 0.0
  outer loop
    vertex -124.06413034371917 -129.28918154688603 5.000000004051608
    vertex -124.06413034371917 -122.58918154688607 4.051572070336332e-09
    vertex -124.06413034371917 -129.28918154688603 8.000000004051557
  endloop
endfacet
facet normal 0.9978589232386037 0.0 0.06540312923013987
  outer loop
    vertex -124.06413034371917 -129.28918154688603 8.000000004051557
    vertex -124.06413034371917 -122.58918154688607 4.051572070336332e-09
    vertex -124.06413034371917 -123.88918154688604 5.000000004051563
  endloop
endfacet
facet normal 1.0 0.0 0.0
  outer loop
    vertex -124.06413034371917 -123.88918154688604 5.000000004051563
    vertex -124.06413034371917 -122.58918154688607 4.051572070336332e-09
    vertex -124.06413034371917 -122.58918154688604 5.000000004051563
  endloop
endfacet
facet normal 0.9978589232386039 0.0 0.06540312923013927
  outer loop
    vertex -124.06413034371917 -123.88918154688604 8.000000004051557
    vertex -124.06413034371917 -129.28918154688603 8.000000004051557
    vertex -124.06413034371917 -123.88918154688604 5.000000004051563
  endloop
endfacet
facet normal -0.9978589232386039 0.0 0.06540312923013951
  outer loop
    vertex -134.06413034371917 -123.88918154688604 8.000000004051557
    vertex -134.06413034371917 -129.28918154688603 5.000000004051608
    vertex -134.06413034371917 -129.28918154688603 8.000000004051557
  endloop
endfacet
facet normal -1.0 0.0 0.0
  outer loop
    vertex -134.06413034371917 -129.78918154688606 5.000000004051608
    vertex -134.06413034371917 -123.38918154688606 4.051572070336332e-09
    vertex -134.06413034371917 -129.78918154688608 4.0516171898000525e-09
  endloop
endfacet
facet normal -1.0 0.0 0.0
  outer loop
    vertex -134.06413034371917 -123.38918154688606 4.051572070336332e-09
    vertex -134.06413034371917 -129.78918154688606 5.000000004051608
    vertex -134.06413034371917 -129.28918154688603 5.000000004051608
  endloop
endfacet
facet normal -1.0 0.0 0.0
  outer loop
    vertex -134.06413034371917 -123.38918154688606 4.051572070336332e-09
    vertex -134.06413034371917 -129.28918154688603 5.000000004051608
    vertex -134.06413034371917 -123.88918154688604 5.000000004051563
  endloop
endfacet
facet normal -1.0 0.0 0.0
  outer loop
    vertex -134.06413034371917 -123.88918154688604 5.000000004051563
    vertex -134.06413034371917 -129.28918154688603 5.000000004051608
    vertex -134.06413034371917 -123.88918154688604 8.000000004051557
  endloop
endfacet
facet normal -1.0 0.0 0.0
  outer loop
    vertex -134.06413034371917 -123.38918154688606 4.051572070336332e-09
    vertex -134.06413034371917 -123.88918154688604 5.000000004051563
    vertex -134.06413034371917 -123.38918154688605 5.000000004051563
  endloop
endfacet
facet normal -0.9978589232386039 0.06540312923013954 -4.940959631477275e-32
  outer loop
    vertex -153.06413034371917 -122.58918154688604 5.000000004051563
    vertex -153.06413034371917 -130.58918154688604 4.0516171898000525e-09
    vertex -153.06413034371917 -130.58918154688607 5.000000004051608
  endloop
endfacet
facet normal -0.9978589232386034 -0.06540312923014648 -4.940959631477263e-32
  outer loop
    vertex -153.06413034371917 -130.58918154688604 4.0516171898000525e-09
    vertex -153.06413034371917 -122.58918154688604 5.000000004051563
    vertex -153.06413034371917 -122.58918154688604 4.051572070336332e-09
  endloop
endfacet
facet normal 1.0 0.0 0.0
  outer loop
    vertex -137.0641303437192 -129.78918154688606 4.0516171898000525e-09
    vertex -137.0641303437192 -123.38918154688606 5.000000004051563
    vertex -137.0641303437192 -129.78918154688608 5.000000004051608
  endloop
endfacet
facet normal 1.0 0.0 0.0
  outer loop
    vertex -137.0641303437192 -123.38918154688606 5.000000004051563
    vertex -137.0641303437192 -129.78918154688606 4.0516171898000525e-09
    vertex -137.0641303437192 -123.38918154688605 4.051572070336332e-09
  endloop
endfacet
facet normal 0.0 -1.0 0.0
  outer loop
    vertex -134.06413034371917 -123.38918154688605 5.000000004051563
    vertex -137.0641303437192 -123.38918154688605 4.051572070336332e-09
    vertex -134.06413034371917 -123.38918154688606 4.051572070336332e-09
  endloop
endfacet
facet normal 0.0 -1.0 0.0
  outer loop
    vertex -137.0641303437192 -123.38918154688605 4.051572070336332e-09
    vertex -134.06413034371917 -123.38918154688605 5.000000004051563
    vertex -137.0641303437192 -123.38918154688606 5.000000004051563
  endloop
endfacet
facet normal 0.7071067811865434 0.7071067811865518 0.0
  outer loop
    vertex -145.04402933104154 -128.56908053420838 4.051572070336332e-09
    vertex -145.48900147431561 -127.98918154688609 5.000000004051608
    vertex -145.04402933104154 -128.56908053420838 5.000000004051608
  endloop
endfacet
facet normal 0.866025403784441 0.49999999999999584 0.0
  outer loop
    vertex -145.48900147431561 -127.98918154688609 5.000000004051608
    vertex -145.04402933104154 -128.56908053420838 4.051572070336332e-09
    vertex -145.48900147431561 -127.98918154688606 4.051572070336332e-09
  endloop
endfacet
facet normal -1.0 2.405999671824713e-15 -9.94584943594235e-32
  outer loop
    vertex -140.2641303437192 -126.58918154688607 5.000000004051608
    vertex -140.35953803010983 -125.86448822059899 4.051572070336332e-09
    vertex -140.2641303437192 -126.58918154688607 4.051572070336332e-09
  endloop
endfacet
facet normal -0.9659258262890695 -0.25881904510251663 -4.972924717971175e-32
  outer loop
    vertex -140.35953803010983 -125.86448822059899 4.051572070336332e-09
    vertex -140.2641303437192 -126.58918154688607 5.000000004051608
    vertex -140.35953803010983 -125.86448822059899 5.000000004051563
  endloop
endfacet
facet normal 0.25881904510252174 -0.9659258262890682 3.9783397743769345e-31
  outer loop
    vertex -143.7888236700062 -123.88458923327667 5.000000004051563
    vertex -144.46413034371915 -124.16431041628962 4.051572070336332e-09
    vertex -143.7888236700062 -123.88458923327666 4.051572070336332e-09
  endloop
endfacet
facet normal 0.4999999999999939 -0.8660254037844421 0.0
  outer loop
    vertex -144.46413034371915 -124.16431041628962 4.051572070336332e-09
    vertex -143.7888236700062 -123.88458923327667 5.000000004051563
    vertex -144.46413034371915 -124.16431041628965 5.000000004051563
  endloop
endfacet
facet normal 0.25881904510252174 0.9659258262890682 0.0
  outer loop
    vertex -143.7888236700062 -129.29377386049543 5.000000004051608
    vertex -143.0641303437192 -129.38918154688608 4.051572070336332e-09
    vertex -143.7888236700062 -129.29377386049543 4.051572070336332e-09
  endloop
endfacet
facet normal 0.0 1.0 0.0
  outer loop
    vertex -143.0641303437192 -129.38918154688608 4.051572070336332e-09
    vertex -143.7888236700062 -129.29377386049543 5.000000004051608
    vertex -143.0641303437192 -129.38918154688605 5.000000004051608
  endloop
endfacet
facet normal 0.8660254037844393 0.0 0.499999999999999
  outer loop
    vertex -124.46605413236587 -123.88918154688604 9.500000004051579
    vertex -124.94281000015953 -129.28918154688603 10.12132034761125
    vertex -124.46605413236587 -129.28918154688603 9.500000004051579
  endloop
endfacet
facet normal 0.7071067811865516 0.0 0.7071067811865436
  outer loop
    vertex -124.94281000015953 -129.28918154688603 10.12132034761125
    vertex -124.46605413236587 -123.88918154688604 9.500000004051579
    vertex -124.94281000015953 -123.88918154688604 10.121320347611206
  endloop
endfacet
facet normal 0.7071067811865431 0.707106781186552 0.0
  outer loop
    vertex -145.04402933104154 -128.56908053420838 5.000000004051608
    vertex -144.46413034371915 -129.01405267748248 4.051572070336332e-09
    vertex -145.04402933104154 -128.56908053420838 4.051572070336332e-09
  endloop
endfacet
facet normal 0.49999999999999417 0.8660254037844421 -3.978339774376934e-31
  outer loop
    vertex -144.46413034371915 -129.01405267748248 4.051572070336332e-09
    vertex -145.04402933104154 -128.56908053420838 5.000000004051608
    vertex -144.46413034371915 -129.01405267748248 5.000000004051608
  endloop
endfacet
facet normal -0.8660254037844415 0.49999999999999534 0.0
  outer loop
    vertex -140.63925921312276 -127.98918154688606 5.000000004051608
    vertex -140.35953803010983 -127.3138748731731 4.051572070336332e-09
    vertex -140.63925921312276 -127.98918154688609 4.051572070336332e-09
  endloop
endfacet
facet normal -0.9659258262890693 0.2588190451025169 -4.972924717971159e-32
  outer loop
    vertex -140.35953803010983 -127.3138748731731 4.051572070336332e-09
    vertex -140.63925921312276 -127.98918154688606 5.000000004051608
    vertex -140.35953803010983 -127.3138748731731 5.000000004051608
  endloop
endfacet
facet normal 0.0 1.0 0.0
  outer loop
    vertex -143.0641303437192 -129.38918154688605 5.000000004051608
    vertex -142.3394370174321 -129.29377386049543 4.051572070336332e-09
    vertex -143.0641303437192 -129.38918154688608 4.051572070336332e-09
  endloop
endfacet
facet normal -0.25881904510252157 0.9659258262890681 -3.97833977437694e-31
  outer loop
    vertex -142.3394370174321 -129.29377386049543 4.051572070336332e-09
    vertex -143.0641303437192 -129.38918154688605 5.000000004051608
    vertex -142.3394370174321 -129.29377386049543 5.000000004051608
  endloop
endfacet
facet normal -0.866025403784441 -0.4999999999999961 0.0
  outer loop
    vertex -140.63925921312276 -125.18918154688606 5.000000004051563
    vertex -141.08423135639683 -124.60928255956372 4.051572070336332e-09
    vertex -140.63925921312276 -125.18918154688609 4.051572070336332e-09
  endloop
endfacet
facet normal -0.7071067811865436 -0.7071067811865516 0.0
  outer loop
    vertex -141.08423135639683 -124.60928255956372 4.051572070336332e-09
    vertex -140.63925921312276 -125.18918154688606 5.000000004051563
    vertex -141.08423135639683 -124.60928255956371 5.000000004051563
  endloop
endfacet
facet normal -0.9659258262890701 -0.25881904510251436 -4.972924717971258e-32
  outer loop
    vertex -140.35953803010983 -125.86448822059899 5.000000004051563
    vertex -140.63925921312276 -125.18918154688609 4.051572070336332e-09
    vertex -140.35953803010983 -125.86448822059899 4.051572070336332e-09
  endloop
endfacet
facet normal -0.8660254037844415 -0.49999999999999534 0.0
  outer loop
    vertex -140.63925921312276 -125.18918154688609 4.051572070336332e-09
    vertex -140.35953803010983 -125.86448822059899 5.000000004051563
    vertex -140.63925921312276 -125.18918154688606 5.000000004051563
  endloop
endfacet
facet normal -0.2588190451025218 0.965925826289068 -3.978339774376931e-31
  outer loop
    vertex -142.3394370174321 -129.29377386049543 5.000000004051608
    vertex -141.66413034371914 -129.01405267748248 4.051572070336332e-09
    vertex -142.3394370174321 -129.29377386049543 4.051572070336332e-09
  endloop
endfacet
facet normal -0.49999999999999384 0.8660254037844424 0.0
  outer loop
    vertex -141.66413034371914 -129.01405267748248 4.051572070336332e-09
    vertex -142.3394370174321 -129.29377386049543 5.000000004051608
    vertex -141.66413034371914 -129.01405267748248 5.000000004051608
  endloop
endfacet
facet normal -0.49999999999999434 0.866025403784442 0.0
  outer loop
    vertex -141.66413034371914 -129.01405267748248 5.000000004051608
    vertex -141.08423135639683 -128.56908053420838 4.051572070336332e-09
    vertex -141.66413034371914 -129.01405267748248 4.051572070336332e-09
  endloop
endfacet
facet normal -0.707106781186543 0.7071067811865521 0.0
  outer loop
    vertex -141.08423135639683 -128.56908053420838 4.051572070336332e-09
    vertex -141.66413034371914 -129.01405267748248 5.000000004051608
    vertex -141.08423135639683 -128.56908053420838 5.000000004051608
  endloop
endfacet
facet normal 0.8660254037844414 0.49999999999999567 0.0
  outer loop
    vertex -145.48900147431561 -127.98918154688606 4.051572070336332e-09
    vertex -145.76872265732854 -127.31387487317313 5.000000004051608
    vertex -145.48900147431561 -127.98918154688609 5.000000004051608
  endloop
endfacet
facet normal 0.9659258262890693 0.2588190451025169 4.972924717971159e-32
  outer loop
    vertex -145.76872265732854 -127.31387487317313 5.000000004051608
    vertex -145.48900147431561 -127.98918154688606 4.051572070336332e-09
    vertex -145.76872265732854 -127.3138748731731 4.051572070336332e-09
  endloop
endfacet
facet normal -0.7071067811865436 0.7071067811865516 0.0
  outer loop
    vertex -141.08423135639683 -128.56908053420838 5.000000004051608
    vertex -140.63925921312276 -127.98918154688609 4.051572070336332e-09
    vertex -141.08423135639683 -128.56908053420838 4.051572070336332e-09
  endloop
endfacet
facet normal -0.866025403784441 0.4999999999999961 0.0
  outer loop
    vertex -140.63925921312276 -127.98918154688609 4.051572070336332e-09
    vertex -141.08423135639683 -128.56908053420838 5.000000004051608
    vertex -140.63925921312276 -127.98918154688606 5.000000004051608
  endloop
endfacet
facet normal -0.9659258262890695 0.25881904510251663 -4.972924717971175e-32
  outer loop
    vertex -140.35953803010983 -127.3138748731731 5.000000004051608
    vertex -140.2641303437192 -126.58918154688607 4.051572070336332e-09
    vertex -140.35953803010983 -127.3138748731731 4.051572070336332e-09
  endloop
endfacet
facet normal -1.0 1.8713330780858507e-16 -9.945849435942347e-32
  outer loop
    vertex -140.2641303437192 -126.58918154688607 4.051572070336332e-09
    vertex -140.35953803010983 -127.3138748731731 5.000000004051608
    vertex -140.2641303437192 -126.58918154688607 5.000000004051608
  endloop
endfacet
facet normal -0.49999999999999784 0.0 0.8660254037844399
  outer loop
    vertex -132.56413034371923 -129.28918154688606 10.598076215404904
    vertex -133.1854506872788 -123.88918154688606 10.121320347611206
    vertex -133.1854506872788 -129.28918154688606 10.12132034761125
  endloop
endfacet
facet normal -0.707106781186554 0.0 0.7071067811865411
  outer loop
    vertex -133.1854506872788 -123.88918154688606 10.121320347611206
    vertex -132.56413034371923 -129.28918154688606 10.598076215404904
    vertex -132.56413034371923 -123.88918154688606 10.598076215404904
  endloop
endfacet
facet normal 0.4999999999999939 0.8660254037844421 -3.978339774376938e-31
  outer loop
    vertex -144.46413034371915 -129.01405267748248 5.000000004051608
    vertex -143.7888236700062 -129.29377386049543 4.051572070336332e-09
    vertex -144.46413034371915 -129.01405267748248 4.051572070336332e-09
  endloop
endfacet
facet normal 0.25881904510252174 0.9659258262890682 0.0
  outer loop
    vertex -143.7888236700062 -129.29377386049543 4.051572070336332e-09
    vertex -144.46413034371915 -129.01405267748248 5.000000004051608
    vertex -143.7888236700062 -129.29377386049543 5.000000004051608
  endloop
endfacet
facet normal 0.9659258262890695 0.25881904510251663 4.972924717971175e-32
  outer loop
    vertex -145.76872265732854 -127.3138748731731 4.051572070336332e-09
    vertex -145.86413034371918 -126.58918154688608 5.000000004051608
    vertex -145.76872265732854 -127.31387487317313 5.000000004051608
  endloop
endfacet
facet normal 1.0 1.764399759338123e-15 9.94584943594235e-32
  outer loop
    vertex -145.86413034371918 -126.58918154688608 5.000000004051608
    vertex -145.76872265732854 -127.3138748731731 4.051572070336332e-09
    vertex -145.86413034371918 -126.58918154688607 4.051572070336332e-09
  endloop
endfacet
facet normal 1.0 -1.1940887260166856e-15 9.945849435942347e-32
  outer loop
    vertex -145.86413034371918 -126.58918154688607 4.051572070336332e-09
    vertex -145.76872265732854 -125.86448822059903 5.000000004051563
    vertex -145.86413034371918 -126.58918154688608 5.000000004051608
  endloop
endfacet
facet normal 0.9659258262890706 -0.2588190451025121 4.972924717971269e-32
  outer loop
    vertex -145.76872265732854 -125.86448822059903 5.000000004051563
    vertex -145.86413034371918 -126.58918154688607 4.051572070336332e-09
    vertex -145.76872265732854 -125.86448822059901 4.051572070336332e-09
  endloop
endfacet
facet normal 0.9659258262890699 -0.25881904510251497 4.972924717971157e-32
  outer loop
    vertex -145.76872265732854 -125.86448822059901 4.051572070336332e-09
    vertex -145.48900147431561 -125.18918154688609 5.000000004051563
    vertex -145.76872265732854 -125.86448822059903 5.000000004051563
  endloop
endfacet
facet normal 0.8660254037844427 -0.49999999999999295 0.0
  outer loop
    vertex -145.48900147431561 -125.18918154688609 5.000000004051563
    vertex -145.76872265732854 -125.86448822059901 4.051572070336332e-09
    vertex -145.48900147431561 -125.18918154688606 4.051572070336332e-09
  endloop
endfacet
facet normal 0.8660254037844425 -0.4999999999999933 0.0
  outer loop
    vertex -145.48900147431561 -125.18918154688606 4.051572070336332e-09
    vertex -145.04402933104154 -124.60928255956372 5.000000004051563
    vertex -145.48900147431561 -125.18918154688609 5.000000004051563
  endloop
endfacet
facet normal 0.7071067811865434 -0.7071067811865518 0.0
  outer loop
    vertex -145.04402933104154 -124.60928255956372 5.000000004051563
    vertex -145.48900147431561 -125.18918154688606 4.051572070336332e-09
    vertex -145.04402933104154 -124.60928255956371 4.051572070336332e-09
  endloop
endfacet
facet normal 0.9659258262890671 0.0 0.2588190451025256
  outer loop
    vertex -124.16635286485192 -123.88918154688604 8.77645713935916
    vertex -124.46605413236587 -129.28918154688603 9.500000004051579
    vertex -124.16635286485192 -129.28918154688603 8.77645713935916
  endloop
endfacet
facet normal 0.8660254037844393 0.0 0.499999999999999
  outer loop
    vertex -124.46605413236587 -129.28918154688603 9.500000004051579
    vertex -124.16635286485192 -123.88918154688604 8.77645713935916
    vertex -124.46605413236587 -123.88918154688604 9.500000004051579
  endloop
endfacet
facet normal 0.0 -1.0 0.0
  outer loop
    vertex -143.0641303437192 -123.78918154688607 5.000000004051563
    vertex -143.7888236700062 -123.88458923327666 4.051572070336332e-09
    vertex -143.0641303437192 -123.78918154688608 4.051572070336332e-09
  endloop
endfacet
facet normal 0.2588190451025216 -0.9659258262890682 3.978339774376938e-31
  outer loop
    vertex -143.7888236700062 -123.88458923327666 4.051572070336332e-09
    vertex -143.0641303437192 -123.78918154688607 5.000000004051563
    vertex -143.7888236700062 -123.88458923327667 5.000000004051563
  endloop
endfacet
facet normal -0.707106781186554 0.0 0.7071067811865411
  outer loop
    vertex -133.1854506872788 -123.88918154688606 10.121320347611206
    vertex -133.66220655507246 -129.28918154688603 9.500000004051579
    vertex -133.1854506872788 -129.28918154688606 10.12132034761125
  endloop
endfacet
facet normal -0.8660254037844387 0.0 0.5000000000000001
  outer loop
    vertex -133.66220655507246 -129.28918154688603 9.500000004051579
    vertex -133.1854506872788 -123.88918154688606 10.121320347611206
    vertex -133.66220655507246 -123.88918154688604 9.500000004051579
  endloop
endfacet
facet normal 0.25881904510252174 0.0 0.9659258262890681
  outer loop
    vertex -126.28767320841162 -129.28918154688606 10.897777482918762
    vertex -127.06413034371913 -123.88918154688604 11.000000004051598
    vertex -127.06413034371913 -129.28918154688603 11.000000004051598
  endloop
endfacet
facet normal 0.06540312923014299 0.0 0.9978589232386036
  outer loop
    vertex -127.06413034371913 -123.88918154688604 11.000000004051598
    vertex -126.28767320841162 -129.28918154688606 10.897777482918762
    vertex -126.28767320841162 -123.88918154688606 10.897777482918762
  endloop
endfacet
facet normal 0.49999999999999417 -0.8660254037844421 0.0
  outer loop
    vertex -144.46413034371915 -124.16431041628965 5.000000004051563
    vertex -145.04402933104154 -124.60928255956371 4.051572070336332e-09
    vertex -144.46413034371915 -124.16431041628962 4.051572070336332e-09
  endloop
endfacet
facet normal 0.7071067811865431 -0.707106781186552 0.0
  outer loop
    vertex -145.04402933104154 -124.60928255956371 4.051572070336332e-09
    vertex -144.46413034371915 -124.16431041628965 5.000000004051563
    vertex -145.04402933104154 -124.60928255956372 5.000000004051563
  endloop
endfacet
facet normal -0.707106781186543 -0.7071067811865521 0.0
  outer loop
    vertex -141.08423135639683 -124.60928255956371 5.000000004051563
    vertex -141.66413034371914 -124.16431041628965 4.051572070336332e-09
    vertex -141.08423135639683 -124.60928255956372 4.051572070336332e-09
  endloop
endfacet
facet normal -0.49999999999999434 -0.866025403784442 3.9783397743769275e-31
  outer loop
    vertex -141.66413034371914 -124.16431041628965 4.051572070336332e-09
    vertex -141.08423135639683 -124.60928255956371 5.000000004051563
    vertex -141.66413034371914 -124.16431041628962 5.000000004051563
  endloop
endfacet
facet normal -0.25881904510252157 -0.9659258262890681 -8.435551462564721e-46
  outer loop
    vertex -142.3394370174321 -123.88458923327666 5.000000004051563
    vertex -143.0641303437192 -123.78918154688608 4.051572070336332e-09
    vertex -142.3394370174321 -123.88458923327667 4.051572070336332e-09
  endloop
endfacet
facet normal 0.0 -1.0 0.0
  outer loop
    vertex -143.0641303437192 -123.78918154688608 4.051572070336332e-09
    vertex -142.3394370174321 -123.88458923327666 5.000000004051563
    vertex -143.0641303437192 -123.78918154688607 5.000000004051563
  endloop
endfacet
facet normal -0.49999999999999384 -0.8660254037844424 3.978339774376945e-31
  outer loop
    vertex -141.66413034371914 -124.16431041628962 5.000000004051563
    vertex -142.3394370174321 -123.88458923327667 4.051572070336332e-09
    vertex -141.66413034371914 -124.16431041628965 4.051572070336332e-09
  endloop
endfacet
facet normal -0.2588190451025218 -0.965925826289068 8.997921560069025e-46
  outer loop
    vertex -142.3394370174321 -123.88458923327667 4.051572070336332e-09
    vertex -141.66413034371914 -124.16431041628962 5.000000004051563
    vertex -142.3394370174321 -123.88458923327666 5.000000004051563
  endloop
endfacet
facet normal 0.06540312923014265 -0.9978589232386036 3.952767705181823e-31
  outer loop
    vertex -130.06413034371917 -136.58918154688604 5.000000004051563
    vertex -147.06413034371917 -136.58918154688604 4.051572070336332e-09
    vertex -130.06413034371917 -136.58918154688604 4.051572070336332e-09
  endloop
endfacet
facet normal -0.0654031292301436 -0.9978589232386036 -3.952767705181824e-31
  outer loop
    vertex -147.06413034371917 -136.58918154688604 4.051572070336332e-09
    vertex -130.06413034371917 -136.58918154688604 5.000000004051563
    vertex -147.06413034371917 -136.58918154688607 5.000000004051563
  endloop
endfacet
facet normal -0.25881904510252174 0.0 0.9659258262890681
  outer loop
    vertex -131.8405874790267 -129.28918154688603 10.897777482918762
    vertex -132.56413034371923 -123.88918154688606 10.598076215404904
    vertex -132.56413034371923 -129.28918154688606 10.598076215404904
  endloop
endfacet
facet normal -0.4999999999999959 0.0 0.866025403784441
  outer loop
    vertex -132.56413034371923 -123.88918154688606 10.598076215404904
    vertex -131.8405874790267 -129.28918154688603 10.897777482918762
    vertex -131.8405874790267 -123.88918154688604 10.897777482918762
  endloop
endfacet
facet normal -0.06540312923014359 -0.9978589232386036 -3.952767705181822e-31
  outer loop
    vertex -147.06413034371917 -136.58918154688607 5.000000004051563
    vertex -148.6170446143343 -136.38473650462046 4.051572070336332e-09
    vertex -147.06413034371917 -136.58918154688604 4.051572070336332e-09
  endloop
endfacet
facet normal -0.25881904510251985 -0.9659258262890685 2.2494803900172575e-46
  outer loop
    vertex -148.6170446143343 -136.38473650462046 4.051572070336332e-09
    vertex -147.06413034371917 -136.58918154688607 5.000000004051563
    vertex -148.6170446143343 -136.38473650462046 5.000000004051563
  endloop
endfacet
facet normal -0.2588190451025198 -0.9659258262890685 -5.623700975043145e-47
  outer loop
    vertex -148.6170446143343 -136.38473650462046 5.000000004051563
    vertex -150.06413034371923 -135.7853339695927 4.051572070336332e-09
    vertex -148.6170446143343 -136.38473650462046 4.051572070336332e-09
  endloop
endfacet
facet normal -0.5000000000000007 -0.8660254037844385 3.978339774376945e-31
  outer loop
    vertex -150.06413034371923 -135.7853339695927 4.051572070336332e-09
    vertex -148.6170446143343 -136.38473650462046 5.000000004051563
    vertex -150.06413034371923 -135.78533396959267 5.000000004051563
  endloop
endfacet
facet normal -0.5000000000000008 -0.8660254037844383 3.978339774376935e-31
  outer loop
    vertex -150.06413034371923 -135.78533396959267 5.000000004051563
    vertex -151.3067710308385 -134.83182223400536 4.051572070336332e-09
    vertex -150.06413034371923 -135.7853339695927 4.051572070336332e-09
  endloop
endfacet
facet normal -0.7071067811865481 -0.7071067811865469 0.0
  outer loop
    vertex -151.3067710308385 -134.83182223400536 4.051572070336332e-09
    vertex -150.06413034371923 -135.78533396959267 5.000000004051563
    vertex -151.3067710308385 -134.83182223400533 5.000000004051563
  endloop
endfacet
facet normal -0.7071067811865469 -0.7071067811865481 0.0
  outer loop
    vertex -151.3067710308385 -134.83182223400533 5.000000004051563
    vertex -152.26028276642577 -133.58918154688607 4.051526950872611e-09
    vertex -151.3067710308385 -134.83182223400536 4.051572070336332e-09
  endloop
endfacet
facet normal -0.8660254037844394 -0.49999999999999906 0.0
  outer loop
    vertex -152.26028276642577 -133.58918154688607 4.051526950872611e-09
    vertex -151.3067710308385 -134.83182223400533 5.000000004051563
    vertex -152.26028276642577 -133.58918154688607 5.000000004051517
  endloop
endfacet
facet normal -0.8660254037844405 -0.4999999999999967 0.0
  outer loop
    vertex -152.26028276642577 -133.58918154688607 5.000000004051517
    vertex -152.8596853014536 -132.14209581750117 4.0516171898000525e-09
    vertex -152.26028276642577 -133.58918154688607 4.051526950872611e-09
  endloop
endfacet
facet normal -0.9659258262890681 -0.25881904510252174 -4.972924717971082e-32
  outer loop
    vertex -152.8596853014536 -132.14209581750117 4.0516171898000525e-09
    vertex -152.26028276642577 -133.58918154688607 5.000000004051517
    vertex -152.8596853014536 -132.1420958175012 5.000000004051608
  endloop
endfacet
facet normal -0.9978589232386034 -0.06540312923014689 -4.940959631477295e-32
  outer loop
    vertex -153.06413034371917 -130.58918154688607 5.000000004051608
    vertex -152.8596853014536 -132.14209581750117 4.0516171898000525e-09
    vertex -152.8596853014536 -132.1420958175012 5.000000004051608
  endloop
endfacet
facet normal -0.9659258262890681 -0.25881904510252174 -4.972924717971082e-32
  outer loop
    vertex -152.8596853014536 -132.14209581750117 4.0516171898000525e-09
    vertex -153.06413034371917 -130.58918154688607 5.000000004051608
    vertex -153.06413034371917 -130.58918154688604 4.0516171898000525e-09
  endloop
endfacet
facet normal 0.25881904510252146 -0.9659258262890682 3.978339774376942e-31
  outer loop
    vertex -128.51121607310407 -136.3847365046205 5.000000004051563
    vertex -130.06413034371917 -136.58918154688604 4.051572070336332e-09
    vertex -128.51121607310407 -136.38473650462046 4.051572070336332e-09
  endloop
endfacet
facet normal 0.06540312923014265 -0.9978589232386037 3.952767705181824e-31
  outer loop
    vertex -130.06413034371917 -136.58918154688604 4.051572070336332e-09
    vertex -128.51121607310407 -136.3847365046205 5.000000004051563
    vertex -130.06413034371917 -136.58918154688604 5.000000004051563
  endloop
endfacet
facet normal 0.49999999999999906 -0.8660254037844394 0.0
  outer loop
    vertex -127.06413034371913 -135.7853339695927 5.000000004051563
    vertex -128.51121607310407 -136.38473650462046 4.051572070336332e-09
    vertex -127.06413034371913 -135.78533396959267 4.051572070336332e-09
  endloop
endfacet
facet normal 0.25881904510252174 -0.9659258262890681 3.9783397743769345e-31
  outer loop
    vertex -128.51121607310407 -136.38473650462046 4.051572070336332e-09
    vertex -127.06413034371913 -135.7853339695927 5.000000004051563
    vertex -128.51121607310407 -136.3847365046205 5.000000004051563
  endloop
endfacet
facet normal 0.7071067811865438 -0.7071067811865515 -3.978339774376907e-31
  outer loop
    vertex -125.82148965659987 -134.83182223400533 5.000000004051563
    vertex -127.06413034371913 -135.78533396959267 4.051572070336332e-09
    vertex -125.82148965659987 -134.83182223400536 4.051572070336332e-09
  endloop
endfacet
facet normal 0.4999999999999995 -0.8660254037844389 0.0
  outer loop
    vertex -127.06413034371913 -135.78533396959267 4.051572070336332e-09
    vertex -125.82148965659987 -134.83182223400533 5.000000004051563
    vertex -127.06413034371913 -135.7853339695927 5.000000004051563
  endloop
endfacet
facet normal 0.8660254037844392 -0.49999999999999933 -1.989169887188548e-31
  outer loop
    vertex -124.86797792101257 -133.58918154688607 4.051526950872611e-09
    vertex -125.82148965659987 -134.83182223400533 5.000000004051563
    vertex -125.82148965659987 -134.83182223400536 4.051572070336332e-09
  endloop
endfacet
facet normal 0.7071067811865438 -0.7071067811865515 -3.978339774376907e-31
  outer loop
    vertex -125.82148965659987 -134.83182223400533 5.000000004051563
    vertex -124.86797792101257 -133.58918154688607 4.051526950872611e-09
    vertex -124.86797792101257 -133.58918154688604 5.000000004051517
  endloop
endfacet
facet normal 0.9659258262890678 -0.25881904510252246 1.989169887188511e-31
  outer loop
    vertex -124.26857538598476 -132.1420958175012 4.0516171898000525e-09
    vertex -124.86797792101257 -133.58918154688604 5.000000004051517
    vertex -124.86797792101257 -133.58918154688607 4.051526950872611e-09
  endloop
endfacet
facet normal 0.8660254037844408 -0.4999999999999962 -1.9891698871883932e-31
  outer loop
    vertex -124.86797792101257 -133.58918154688604 5.000000004051517
    vertex -124.26857538598476 -132.1420958175012 4.0516171898000525e-09
    vertex -124.26857538598476 -132.14209581750117 5.000000004051608
  endloop
endfacet
facet normal 0.9978589232386034 -0.06540312923014684 0.0
  outer loop
    vertex -124.06413034371917 -130.58918154688607 4.0516171898000525e-09
    vertex -124.26857538598476 -132.14209581750117 5.000000004051608
    vertex -124.26857538598476 -132.1420958175012 4.0516171898000525e-09
  endloop
endfacet
facet normal 0.9659258262890693 -0.25881904510251674 1.9891698871884217e-31
  outer loop
    vertex -124.26857538598476 -132.14209581750117 5.000000004051608
    vertex -124.06413034371917 -130.58918154688607 4.0516171898000525e-09
    vertex -124.06413034371917 -130.58918154688604 5.000000004051608
  endloop
endfacet
facet normal -0.9978589232386039 0.06540312923013954 -4.940959631477275e-32
  outer loop
    vertex -153.06413034371917 -122.58918154688604 5.000000004051563
    vertex -152.8596853014536 -121.0362672762709 4.051572070336332e-09
    vertex -153.06413034371917 -122.58918154688604 4.051572070336332e-09
  endloop
endfacet
facet normal -0.9659258262890683 0.25881904510252074 -4.972924717971136e-32
  outer loop
    vertex -152.8596853014536 -121.0362672762709 4.051572070336332e-09
    vertex -153.06413034371917 -122.58918154688604 5.000000004051563
    vertex -152.8596853014536 -121.0362672762709 5.000000004051563
  endloop
endfacet
facet normal -0.965925826289069 0.2588190451025188 -4.972924717971215e-32
  outer loop
    vertex -152.8596853014536 -121.0362672762709 5.000000004051563
    vertex -152.26028276642577 -119.58918154688607 4.051526950872611e-09
    vertex -152.8596853014536 -121.0362672762709 4.051572070336332e-09
  endloop
endfacet
facet normal -0.8660254037844378 0.5000000000000018 0.0
  outer loop
    vertex -152.26028276642577 -119.58918154688607 4.051526950872611e-09
    vertex -152.8596853014536 -121.0362672762709 5.000000004051563
    vertex -152.26028276642577 -119.58918154688605 5.000000004051517
  endloop
endfacet
facet normal -0.8660254037844359 0.5000000000000047 0.0
  outer loop
    vertex -152.26028276642577 -119.58918154688605 5.000000004051517
    vertex -151.3067710308385 -118.34654085976679 4.0516171898000525e-09
    vertex -152.26028276642577 -119.58918154688607 4.051526950872611e-09
  endloop
endfacet
facet normal -0.7071067811865491 0.7071067811865459 0.0
  outer loop
    vertex -151.3067710308385 -118.34654085976679 4.0516171898000525e-09
    vertex -152.26028276642577 -119.58918154688605 5.000000004051517
    vertex -151.3067710308385 -118.34654085976678 5.000000004051608
  endloop
endfacet
facet normal -0.7071067811865454 0.7071067811865497 0.0
  outer loop
    vertex -151.3067710308385 -118.34654085976678 5.000000004051608
    vertex -150.06413034371923 -117.39302912417945 4.0516171898000525e-09
    vertex -151.3067710308385 -118.34654085976679 4.0516171898000525e-09
  endloop
endfacet
facet normal -0.5000000000000011 0.866025403784438 3.978339774376929e-31
  outer loop
    vertex -150.06413034371923 -117.39302912417945 4.0516171898000525e-09
    vertex -151.3067710308385 -118.34654085976678 5.000000004051608
    vertex -150.06413034371923 -117.39302912417942 5.000000004051608
  endloop
endfacet
facet normal -0.5000000000000007 0.8660254037844385 3.978339774376947e-31
  outer loop
    vertex -150.06413034371923 -117.39302912417942 5.000000004051608
    vertex -148.6170446143343 -116.79362658915166 4.0516171898000525e-09
    vertex -150.06413034371923 -117.39302912417945 4.0516171898000525e-09
  endloop
endfacet
facet normal -0.2588190451025214 0.9659258262890682 0.0
  outer loop
    vertex -148.6170446143343 -116.79362658915166 4.0516171898000525e-09
    vertex -150.06413034371923 -117.39302912417942 5.000000004051608
    vertex -148.6170446143343 -116.79362658915166 5.000000004051608
  endloop
endfacet
facet normal -0.2588190451025214 0.9659258262890682 0.0
  outer loop
    vertex -148.6170446143343 -116.79362658915166 5.000000004051608
    vertex -147.06413034371917 -116.58918154688604 4.0516171898000525e-09
    vertex -148.6170446143343 -116.79362658915166 4.0516171898000525e-09
  endloop
endfacet
facet normal -0.0654031292301436 0.9978589232386036 -3.952767705181823e-31
  outer loop
    vertex -147.06413034371917 -116.58918154688604 4.0516171898000525e-09
    vertex -148.6170446143343 -116.79362658915166 5.000000004051608
    vertex -147.06413034371917 -116.58918154688604 5.000000004051608
  endloop
endfacet
facet normal 0.06540312923014266 0.9978589232386036 3.952767705181823e-31
  outer loop
    vertex -130.06413034371917 -116.58918154688604 5.000000004051608
    vertex -128.51121607310407 -116.79362658915166 4.0516171898000525e-09
    vertex -130.06413034371917 -116.58918154688604 4.0516171898000525e-09
  endloop
endfacet
facet normal 0.2588190451025217 0.9659258262890681 -2.8118504875215735e-46
  outer loop
    vertex -128.51121607310407 -116.79362658915166 4.0516171898000525e-09
    vertex -130.06413034371917 -116.58918154688604 5.000000004051608
    vertex -128.51121607310407 -116.79362658915163 5.000000004051608
  endloop
endfacet
facet normal 0.25881904510252157 0.9659258262890682 3.37422058502589e-46
  outer loop
    vertex -128.51121607310407 -116.79362658915163 5.000000004051608
    vertex -127.06413034371921 -117.39302912417945 4.0516171898000525e-09
    vertex -128.51121607310407 -116.79362658915166 4.0516171898000525e-09
  endloop
endfacet
facet normal 0.4999999999999992 0.8660254037844392 -3.978339774376935e-31
  outer loop
    vertex -127.06413034371921 -117.39302912417945 4.0516171898000525e-09
    vertex -128.51121607310407 -116.79362658915163 5.000000004051608
    vertex -127.06413034371921 -117.39302912417945 5.000000004051608
  endloop
endfacet
facet normal 0.4999999999999992 0.8660254037844392 -3.978339774376935e-31
  outer loop
    vertex -127.06413034371921 -117.39302912417945 5.000000004051608
    vertex -125.82148965659987 -118.34654085976679 4.0516171898000525e-09
    vertex -127.06413034371921 -117.39302912417945 4.0516171898000525e-09
  endloop
endfacet
facet normal 0.7071067811865471 0.707106781186548 0.0
  outer loop
    vertex -125.82148965659987 -118.34654085976679 4.0516171898000525e-09
    vertex -127.06413034371921 -117.39302912417945 5.000000004051608
    vertex -125.82148965659987 -118.34654085976678 5.000000004051608
  endloop
endfacet
facet normal 0.7071067811865471 0.707106781186548 0.0
  outer loop
    vertex -125.82148965659987 -118.34654085976679 4.0516171898000525e-09
    vertex -124.86797792101257 -119.58918154688605 5.000000004051517
    vertex -124.86797792101257 -119.58918154688607 4.051526950872611e-09
  endloop
endfacet
facet normal 0.8660254037844393 0.4999999999999989 0.0
  outer loop
    vertex -124.86797792101257 -119.58918154688605 5.000000004051517
    vertex -125.82148965659987 -118.34654085976679 4.0516171898000525e-09
    vertex -125.82148965659987 -118.34654085976678 5.000000004051608
  endloop
endfacet
facet normal 0.8660254037844409 0.49999999999999595 0.0
  outer loop
    vertex -124.86797792101257 -119.58918154688607 4.051526950872611e-09
    vertex -124.26857538598476 -121.0362672762709 5.000000004051563
    vertex -124.26857538598476 -121.03626727627093 4.051572070336332e-09
  endloop
endfacet
facet normal 0.9659258262890686 0.25881904510251963 4.972924717971191e-32
  outer loop
    vertex -124.26857538598476 -121.0362672762709 5.000000004051563
    vertex -124.86797792101257 -119.58918154688607 4.051526950872611e-09
    vertex -124.86797792101257 -119.58918154688605 5.000000004051517
  endloop
endfacet
facet normal 0.9659258262890683 0.2588190451025209 4.972924717971142e-32
  outer loop
    vertex -124.26857538598476 -121.03626727627093 4.051572070336332e-09
    vertex -124.06413034371917 -122.58918154688604 5.000000004051563
    vertex -124.06413034371917 -122.58918154688607 4.051572070336332e-09
  endloop
endfacet
facet normal 0.9978589232386034 0.06540312923014695 4.9409596314773e-32
  outer loop
    vertex -124.06413034371917 -122.58918154688604 5.000000004051563
    vertex -124.26857538598476 -121.03626727627093 4.051572070336332e-09
    vertex -124.26857538598476 -121.0362672762709 5.000000004051563
  endloop
endfacet
facet normal 0.0 0.0 -1.0
  outer loop
    vertex -152.8596853014536 -121.0362672762709 4.051572070336332e-09
    vertex -153.06413034371917 -130.58918154688604 4.0516171898000525e-09
    vertex -153.06413034371917 -122.58918154688604 4.051572070336332e-09
  endloop
endfacet
facet normal 0.0 0.0 -1.0
  outer loop
    vertex -153.06413034371917 -130.58918154688604 4.0516171898000525e-09
    vertex -152.8596853014536 -121.0362672762709 4.051572070336332e-09
    vertex -152.8596853014536 -132.14209581750117 4.0516171898000525e-09
  endloop
endfacet
facet normal 0.0 0.0 -1.0
  outer loop
    vertex -152.8596853014536 -132.14209581750117 4.0516171898000525e-09
    vertex -152.8596853014536 -121.0362672762709 4.051572070336332e-09
    vertex -152.26028276642577 -119.58918154688607 4.051526950872611e-09
  endloop
endfacet
facet normal 0.0 0.0 -1.0
  outer loop
    vertex -152.8596853014536 -132.14209581750117 4.0516171898000525e-09
    vertex -152.26028276642577 -119.58918154688607 4.051526950872611e-09
    vertex -152.26028276642577 -133.58918154688607 4.051526950872611e-09
  endloop
endfacet
facet normal 0.0 0.0 -1.0
  outer loop
    vertex -152.26028276642577 -133.58918154688607 4.051526950872611e-09
    vertex -152.26028276642577 -119.58918154688607 4.051526950872611e-09
    vertex -151.3067710308385 -118.34654085976679 4.0516171898000525e-09
  endloop
endfacet
facet normal 0.0 0.0 -1.0
  outer loop
    vertex -152.26028276642577 -133.58918154688607 4.051526950872611e-09
    vertex -151.3067710308385 -118.34654085976679 4.0516171898000525e-09
    vertex -151.3067710308385 -134.83182223400536 4.051572070336332e-09
  endloop
endfacet
facet normal 0.0 0.0 -1.0
  outer loop
    vertex -151.3067710308385 -134.83182223400536 4.051572070336332e-09
    vertex -151.3067710308385 -118.34654085976679 4.0516171898000525e-09
    vertex -150.06413034371923 -117.39302912417945 4.0516171898000525e-09
  endloop
endfacet
facet normal 0.0 0.0 -1.0
  outer loop
    vertex -151.3067710308385 -134.83182223400536 4.051572070336332e-09
    vertex -150.06413034371923 -117.39302912417945 4.0516171898000525e-09
    vertex -150.06413034371923 -135.7853339695927 4.051572070336332e-09
  endloop
endfacet
facet normal 0.0 0.0 -1.0
  outer loop
    vertex -150.06413034371923 -135.7853339695927 4.051572070336332e-09
    vertex -150.06413034371923 -117.39302912417945 4.0516171898000525e-09
    vertex -148.6170446143343 -116.79362658915166 4.0516171898000525e-09
  endloop
endfacet
facet normal 0.0 0.0 -1.0
  outer loop
    vertex -150.06413034371923 -135.7853339695927 4.051572070336332e-09
    vertex -148.6170446143343 -116.79362658915166 4.0516171898000525e-09
    vertex -148.6170446143343 -136.38473650462046 4.051572070336332e-09
  endloop
endfacet
facet normal 0.0 0.0 -1.0
  outer loop
    vertex -148.6170446143343 -136.38473650462046 4.051572070336332e-09
    vertex -148.6170446143343 -116.79362658915166 4.0516171898000525e-09
    vertex -147.06413034371917 -116.58918154688604 4.0516171898000525e-09
  endloop
endfacet
facet normal 0.0 0.0 -1.0
  outer loop
    vertex -148.6170446143343 -136.38473650462046 4.051572070336332e-09
    vertex -147.06413034371917 -116.58918154688604 4.0516171898000525e-09
    vertex -147.06413034371917 -136.58918154688604 4.051572070336332e-09
  endloop
endfacet
facet normal 0.0 0.0 -1.0
  outer loop
    vertex -147.06413034371917 -136.58918154688604 4.051572070336332e-09
    vertex -147.06413034371917 -116.58918154688604 4.0516171898000525e-09
    vertex -145.86413034371918 -126.58918154688607 4.051572070336332e-09
  endloop
endfacet
facet normal 0.0 0.0 -1.0
  outer loop
    vertex -145.86413034371918 -126.58918154688607 4.051572070336332e-09
    vertex -147.06413034371917 -116.58918154688604 4.0516171898000525e-09
    vertex -145.76872265732854 -125.86448822059901 4.051572070336332e-09
  endloop
endfacet
facet normal 0.0 0.0 -1.0
  outer loop
    vertex -145.76872265732854 -125.86448822059901 4.051572070336332e-09
    vertex -147.06413034371917 -116.58918154688604 4.0516171898000525e-09
    vertex -145.48900147431561 -125.18918154688606 4.051572070336332e-09
  endloop
endfacet
facet normal 0.0 0.0 -1.0
  outer loop
    vertex -145.48900147431561 -125.18918154688606 4.051572070336332e-09
    vertex -147.06413034371917 -116.58918154688604 4.0516171898000525e-09
    vertex -145.04402933104154 -124.60928255956371 4.051572070336332e-09
  endloop
endfacet
facet normal 0.0 0.0 -1.0
  outer loop
    vertex -145.04402933104154 -124.60928255956371 4.051572070336332e-09
    vertex -147.06413034371917 -116.58918154688604 4.0516171898000525e-09
    vertex -144.46413034371915 -124.16431041628962 4.051572070336332e-09
  endloop
endfacet
facet normal 0.0 0.0 -1.0
  outer loop
    vertex -144.46413034371915 -124.16431041628962 4.051572070336332e-09
    vertex -147.06413034371917 -116.58918154688604 4.0516171898000525e-09
    vertex -130.06413034371917 -116.58918154688604 4.0516171898000525e-09
  endloop
endfacet
facet normal 0.0 0.0 -1.0
  outer loop
    vertex -144.46413034371915 -124.16431041628962 4.051572070336332e-09
    vertex -130.06413034371917 -116.58918154688604 4.0516171898000525e-09
    vertex -143.7888236700062 -123.88458923327666 4.051572070336332e-09
  endloop
endfacet
facet normal 0.0 0.0 -1.0
  outer loop
    vertex -143.7888236700062 -123.88458923327666 4.051572070336332e-09
    vertex -130.06413034371917 -116.58918154688604 4.0516171898000525e-09
    vertex -143.0641303437192 -123.78918154688608 4.051572070336332e-09
  endloop
endfacet
facet normal 0.0 0.0 -1.0
  outer loop
    vertex -143.0641303437192 -123.78918154688608 4.051572070336332e-09
    vertex -130.06413034371917 -116.58918154688604 4.0516171898000525e-09
    vertex -142.3394370174321 -123.88458923327667 4.051572070336332e-09
  endloop
endfacet
facet normal 0.0 0.0 -1.0
  outer loop
    vertex -142.3394370174321 -123.88458923327667 4.051572070336332e-09
    vertex -130.06413034371917 -116.58918154688604 4.0516171898000525e-09
    vertex -141.66413034371914 -124.16431041628965 4.051572070336332e-09
  endloop
endfacet
facet normal 0.0 0.0 -1.0
  outer loop
    vertex -141.66413034371914 -124.16431041628965 4.051572070336332e-09
    vertex -130.06413034371917 -116.58918154688604 4.0516171898000525e-09
    vertex -141.08423135639683 -124.60928255956372 4.051572070336332e-09
  endloop
endfacet
facet normal 0.0 0.0 -1.0
  outer loop
    vertex -141.08423135639683 -124.60928255956372 4.051572070336332e-09
    vertex -130.06413034371917 -116.58918154688604 4.0516171898000525e-09
    vertex -140.63925921312276 -125.18918154688609 4.051572070336332e-09
  endloop
endfacet
facet normal 0.0 0.0 -1.0
  outer loop
    vertex -140.63925921312276 -125.18918154688609 4.051572070336332e-09
    vertex -130.06413034371917 -116.58918154688604 4.0516171898000525e-09
    vertex -140.35953803010983 -125.86448822059899 4.051572070336332e-09
  endloop
endfacet
facet normal 0.0 0.0 -1.0
  outer loop
    vertex -140.35953803010983 -125.86448822059899 4.051572070336332e-09
    vertex -130.06413034371917 -116.58918154688604 4.0516171898000525e-09
    vertex -137.0641303437192 -123.38918154688605 4.051572070336332e-09
  endloop
endfacet
facet normal 0.0 0.0 -1.0
  outer loop
    vertex -140.35953803010983 -125.86448822059899 4.051572070336332e-09
    vertex -137.0641303437192 -123.38918154688605 4.051572070336332e-09
    vertex -140.2641303437192 -126.58918154688607 4.051572070336332e-09
  endloop
endfacet
facet normal 0.0 0.0 -1.0
  outer loop
    vertex -137.0641303437192 -123.38918154688605 4.051572070336332e-09
    vertex -130.06413034371917 -116.58918154688604 4.0516171898000525e-09
    vertex -134.06413034371917 -123.38918154688606 4.051572070336332e-09
  endloop
endfacet
facet normal 0.0 0.0 -1.0
  outer loop
    vertex -134.06413034371917 -123.38918154688606 4.051572070336332e-09
    vertex -130.06413034371917 -116.58918154688604 4.0516171898000525e-09
    vertex -134.06413034371917 -129.78918154688608 4.0516171898000525e-09
  endloop
endfacet
facet normal 0.0 0.0 -1.0
  outer loop
    vertex -147.06413034371917 -136.58918154688604 4.051572070336332e-09
    vertex -144.46413034371915 -129.01405267748248 4.051572070336332e-09
    vertex -130.06413034371917 -136.58918154688604 4.051572070336332e-09
  endloop
endfacet
facet normal 0.0 0.0 -1.0
  outer loop
    vertex -144.46413034371915 -129.01405267748248 4.051572070336332e-09
    vertex -147.06413034371917 -136.58918154688604 4.051572070336332e-09
    vertex -145.04402933104154 -128.56908053420838 4.051572070336332e-09
  endloop
endfacet
facet normal 0.0 0.0 -1.0
  outer loop
    vertex -145.04402933104154 -128.56908053420838 4.051572070336332e-09
    vertex -147.06413034371917 -136.58918154688604 4.051572070336332e-09
    vertex -145.48900147431561 -127.98918154688606 4.051572070336332e-09
  endloop
endfacet
facet normal 0.0 0.0 -1.0
  outer loop
    vertex -145.48900147431561 -127.98918154688606 4.051572070336332e-09
    vertex -147.06413034371917 -136.58918154688604 4.051572070336332e-09
    vertex -145.76872265732854 -127.3138748731731 4.051572070336332e-09
  endloop
endfacet
facet normal 0.0 0.0 -1.0
  outer loop
    vertex -145.76872265732854 -127.3138748731731 4.051572070336332e-09
    vertex -147.06413034371917 -136.58918154688604 4.051572070336332e-09
    vertex -145.86413034371918 -126.58918154688607 4.051572070336332e-09
  endloop
endfacet
facet normal 0.0 0.0 -1.0
  outer loop
    vertex -130.06413034371917 -136.58918154688604 4.051572070336332e-09
    vertex -144.46413034371915 -129.01405267748248 4.051572070336332e-09
    vertex -143.7888236700062 -129.29377386049543 4.051572070336332e-09
  endloop
endfacet
facet normal 0.0 0.0 -1.0
  outer loop
    vertex -130.06413034371917 -136.58918154688604 4.051572070336332e-09
    vertex -143.7888236700062 -129.29377386049543 4.051572070336332e-09
    vertex -143.0641303437192 -129.38918154688608 4.051572070336332e-09
  endloop
endfacet
facet normal 0.0 0.0 -1.0
  outer loop
    vertex -130.06413034371917 -136.58918154688604 4.051572070336332e-09
    vertex -143.0641303437192 -129.38918154688608 4.051572070336332e-09
    vertex -142.3394370174321 -129.29377386049543 4.051572070336332e-09
  endloop
endfacet
facet normal 0.0 0.0 -1.0
  outer loop
    vertex -130.06413034371917 -136.58918154688604 4.051572070336332e-09
    vertex -142.3394370174321 -129.29377386049543 4.051572070336332e-09
    vertex -141.66413034371914 -129.01405267748248 4.051572070336332e-09
  endloop
endfacet
facet normal 0.0 0.0 -1.0
  outer loop
    vertex -130.06413034371917 -136.58918154688604 4.051572070336332e-09
    vertex -141.66413034371914 -129.01405267748248 4.051572070336332e-09
    vertex -141.08423135639683 -128.56908053420838 4.051572070336332e-09
  endloop
endfacet
facet normal 0.0 0.0 -1.0
  outer loop
    vertex -130.06413034371917 -136.58918154688604 4.051572070336332e-09
    vertex -141.08423135639683 -128.56908053420838 4.051572070336332e-09
    vertex -140.63925921312276 -127.98918154688609 4.051572070336332e-09
  endloop
endfacet
facet normal 0.0 0.0 -1.0
  outer loop
    vertex -130.06413034371917 -136.58918154688604 4.051572070336332e-09
    vertex -140.63925921312276 -127.98918154688609 4.051572070336332e-09
    vertex -140.35953803010983 -127.3138748731731 4.051572070336332e-09
  endloop
endfacet
facet normal 0.0 0.0 -1.0
  outer loop
    vertex -130.06413034371917 -136.58918154688604 4.051572070336332e-09
    vertex -140.35953803010983 -127.3138748731731 4.051572070336332e-09
    vertex -137.0641303437192 -129.78918154688606 4.0516171898000525e-09
  endloop
endfacet
facet normal 0.0 0.0 -1.0
  outer loop
    vertex -137.0641303437192 -129.78918154688606 4.0516171898000525e-09
    vertex -140.35953803010983 -127.3138748731731 4.051572070336332e-09
    vertex -140.2641303437192 -126.58918154688607 4.051572070336332e-09
  endloop
endfacet
facet normal 0.0 0.0 -1.0
  outer loop
    vertex -137.0641303437192 -129.78918154688606 4.0516171898000525e-09
    vertex -140.2641303437192 -126.58918154688607 4.051572070336332e-09
    vertex -137.0641303437192 -123.38918154688605 4.051572070336332e-09
  endloop
endfacet
facet normal 0.0 0.0 -1.0
  outer loop
    vertex -130.06413034371917 -136.58918154688604 4.051572070336332e-09
    vertex -137.0641303437192 -129.78918154688606 4.0516171898000525e-09
    vertex -134.06413034371917 -129.78918154688608 4.0516171898000525e-09
  endloop
endfacet
facet normal 0.0 0.0 -1.0
  outer loop
    vertex -130.06413034371917 -136.58918154688604 4.051572070336332e-09
    vertex -134.06413034371917 -129.78918154688608 4.0516171898000525e-09
    vertex -130.06413034371917 -116.58918154688604 4.0516171898000525e-09
  endloop
endfacet
facet normal 0.0 0.0 -1.0
  outer loop
    vertex -130.06413034371917 -136.58918154688604 4.051572070336332e-09
    vertex -130.06413034371917 -116.58918154688604 4.0516171898000525e-09
    vertex -128.51121607310407 -116.79362658915166 4.0516171898000525e-09
  endloop
endfacet
facet normal 0.0 0.0 -1.0
  outer loop
    vertex -130.06413034371917 -136.58918154688604 4.051572070336332e-09
    vertex -128.51121607310407 -116.79362658915166 4.0516171898000525e-09
    vertex -128.51121607310407 -136.38473650462046 4.051572070336332e-09
  endloop
endfacet
facet normal 0.0 0.0 -1.0
  outer loop
    vertex -128.51121607310407 -136.38473650462046 4.051572070336332e-09
    vertex -128.51121607310407 -116.79362658915166 4.0516171898000525e-09
    vertex -127.06413034371921 -117.39302912417945 4.0516171898000525e-09
  endloop
endfacet
facet normal 0.0 0.0 -1.0
  outer loop
    vertex -128.51121607310407 -136.38473650462046 4.051572070336332e-09
    vertex -127.06413034371921 -117.39302912417945 4.0516171898000525e-09
    vertex -127.06413034371913 -135.78533396959267 4.051572070336332e-09
  endloop
endfacet
facet normal 0.0 0.0 -1.0
  outer loop
    vertex -127.06413034371913 -135.78533396959267 4.051572070336332e-09
    vertex -127.06413034371921 -117.39302912417945 4.0516171898000525e-09
    vertex -125.82148965659987 -118.34654085976679 4.0516171898000525e-09
  endloop
endfacet
facet normal 0.0 0.0 -1.0
  outer loop
    vertex -127.06413034371913 -135.78533396959267 4.051572070336332e-09
    vertex -125.82148965659987 -118.34654085976679 4.0516171898000525e-09
    vertex -125.82148965659987 -134.83182223400536 4.051572070336332e-09
  endloop
endfacet
facet normal 0.0 0.0 -1.0
  outer loop
    vertex -125.82148965659987 -134.83182223400536 4.051572070336332e-09
    vertex -125.82148965659987 -118.34654085976679 4.0516171898000525e-09
    vertex -124.86797792101257 -119.58918154688607 4.051526950872611e-09
  endloop
endfacet
facet normal 0.0 0.0 -1.0
  outer loop
    vertex -125.82148965659987 -134.83182223400536 4.051572070336332e-09
    vertex -124.86797792101257 -119.58918154688607 4.051526950872611e-09
    vertex -124.86797792101257 -133.58918154688607 4.051526950872611e-09
  endloop
endfacet
facet normal 0.0 0.0 -1.0
  outer loop
    vertex -124.86797792101257 -133.58918154688607 4.051526950872611e-09
    vertex -124.86797792101257 -119.58918154688607 4.051526950872611e-09
    vertex -124.26857538598476 -121.03626727627093 4.051572070336332e-09
  endloop
endfacet
facet normal 0.0 0.0 -1.0
  outer loop
    vertex -124.86797792101257 -133.58918154688607 4.051526950872611e-09
    vertex -124.26857538598476 -121.03626727627093 4.051572070336332e-09
    vertex -124.26857538598476 -132.1420958175012 4.0516171898000525e-09
  endloop
endfacet
facet normal 0.0 0.0 -1.0
  outer loop
    vertex -124.26857538598476 -132.1420958175012 4.0516171898000525e-09
    vertex -124.26857538598476 -121.03626727627093 4.051572070336332e-09
    vertex -124.06413034371917 -122.58918154688607 4.051572070336332e-09
  endloop
endfacet
facet normal 0.0 0.0 -1.0
  outer loop
    vertex -124.26857538598476 -132.1420958175012 4.0516171898000525e-09
    vertex -124.06413034371917 -122.58918154688607 4.051572070336332e-09
    vertex -124.06413034371917 -130.58918154688607 4.0516171898000525e-09
  endloop
endfacet
facet normal 1.0114980189112283e-32 0.0 1.0
  outer loop
    vertex -152.8596853014536 -132.1420958175012 5.000000004051608
    vertex -153.06413034371917 -122.58918154688604 5.000000004051563
    vertex -153.06413034371917 -130.58918154688607 5.000000004051608
  endloop
endfacet
facet normal 1.0114980189112283e-32 0.0 1.0
  outer loop
    vertex -153.06413034371917 -122.58918154688604 5.000000004051563
    vertex -152.8596853014536 -132.1420958175012 5.000000004051608
    vertex -152.8596853014536 -121.0362672762709 5.000000004051563
  endloop
endfacet
facet normal 1.0114980189112283e-32 0.0 1.0
  outer loop
    vertex -152.8596853014536 -121.0362672762709 5.000000004051563
    vertex -152.8596853014536 -132.1420958175012 5.000000004051608
    vertex -152.26028276642577 -133.58918154688607 5.000000004051517
  endloop
endfacet
facet normal 1.0114980189112283e-32 0.0 1.0
  outer loop
    vertex -152.8596853014536 -121.0362672762709 5.000000004051563
    vertex -152.26028276642577 -133.58918154688607 5.000000004051517
    vertex -152.26028276642577 -119.58918154688605 5.000000004051517
  endloop
endfacet
facet normal 1.0114980189112283e-32 0.0 1.0
  outer loop
    vertex -152.26028276642577 -119.58918154688605 5.000000004051517
    vertex -152.26028276642577 -133.58918154688607 5.000000004051517
    vertex -151.3067710308385 -134.83182223400533 5.000000004051563
  endloop
endfacet
facet normal 1.0114980189112283e-32 0.0 1.0
  outer loop
    vertex -152.26028276642577 -119.58918154688605 5.000000004051517
    vertex -151.3067710308385 -134.83182223400533 5.000000004051563
    vertex -151.3067710308385 -118.34654085976678 5.000000004051608
  endloop
endfacet
facet normal 1.0114980189112283e-32 0.0 1.0
  outer loop
    vertex -151.3067710308385 -118.34654085976678 5.000000004051608
    vertex -151.3067710308385 -134.83182223400533 5.000000004051563
    vertex -150.06413034371923 -135.78533396959267 5.000000004051563
  endloop
endfacet
facet normal 1.0114980189112283e-32 0.0 1.0
  outer loop
    vertex -151.3067710308385 -118.34654085976678 5.000000004051608
    vertex -150.06413034371923 -135.78533396959267 5.000000004051563
    vertex -150.06413034371923 -117.39302912417942 5.000000004051608
  endloop
endfacet
facet normal 1.0114980189112283e-32 0.0 1.0
  outer loop
    vertex -150.06413034371923 -117.39302912417942 5.000000004051608
    vertex -150.06413034371923 -135.78533396959267 5.000000004051563
    vertex -148.6170446143343 -136.38473650462046 5.000000004051563
  endloop
endfacet
facet normal 1.0114980189112283e-32 0.0 1.0
  outer loop
    vertex -150.06413034371923 -117.39302912417942 5.000000004051608
    vertex -148.6170446143343 -136.38473650462046 5.000000004051563
    vertex -148.6170446143343 -116.79362658915166 5.000000004051608
  endloop
endfacet
facet normal 1.0114980189112283e-32 0.0 1.0
  outer loop
    vertex -148.6170446143343 -116.79362658915166 5.000000004051608
    vertex -148.6170446143343 -136.38473650462046 5.000000004051563
    vertex -147.06413034371917 -136.58918154688607 5.000000004051563
  endloop
endfacet
facet normal 1.0114980189112283e-32 0.0 1.0
  outer loop
    vertex -148.6170446143343 -116.79362658915166 5.000000004051608
    vertex -147.06413034371917 -136.58918154688607 5.000000004051563
    vertex -147.06413034371917 -116.58918154688604 5.000000004051608
  endloop
endfacet
facet normal 1.0114980189112283e-32 0.0 1.0
  outer loop
    vertex -147.06413034371917 -116.58918154688604 5.000000004051608
    vertex -147.06413034371917 -136.58918154688607 5.000000004051563
    vertex -145.86413034371918 -126.58918154688608 5.000000004051608
  endloop
endfacet
facet normal 1.0114980189112283e-32 0.0 1.0
  outer loop
    vertex -145.86413034371918 -126.58918154688608 5.000000004051608
    vertex -147.06413034371917 -136.58918154688607 5.000000004051563
    vertex -145.76872265732854 -127.31387487317313 5.000000004051608
  endloop
endfacet
facet normal 1.0114980189112283e-32 0.0 1.0
  outer loop
    vertex -145.76872265732854 -127.31387487317313 5.000000004051608
    vertex -147.06413034371917 -136.58918154688607 5.000000004051563
    vertex -145.48900147431561 -127.98918154688609 5.000000004051608
  endloop
endfacet
facet normal 1.0114980189112283e-32 0.0 1.0
  outer loop
    vertex -145.48900147431561 -127.98918154688609 5.000000004051608
    vertex -147.06413034371917 -136.58918154688607 5.000000004051563
    vertex -145.04402933104154 -128.56908053420838 5.000000004051608
  endloop
endfacet
facet normal 1.0114980189112283e-32 0.0 1.0
  outer loop
    vertex -145.04402933104154 -128.56908053420838 5.000000004051608
    vertex -147.06413034371917 -136.58918154688607 5.000000004051563
    vertex -144.46413034371915 -129.01405267748248 5.000000004051608
  endloop
endfacet
facet normal 1.0114980189112283e-32 0.0 1.0
  outer loop
    vertex -144.46413034371915 -129.01405267748248 5.000000004051608
    vertex -147.06413034371917 -136.58918154688607 5.000000004051563
    vertex -130.06413034371917 -136.58918154688604 5.000000004051563
  endloop
endfacet
facet normal 1.0114980189112283e-32 0.0 1.0
  outer loop
    vertex -144.46413034371915 -129.01405267748248 5.000000004051608
    vertex -130.06413034371917 -136.58918154688604 5.000000004051563
    vertex -143.7888236700062 -129.29377386049543 5.000000004051608
  endloop
endfacet
facet normal 1.0114980189112283e-32 0.0 1.0
  outer loop
    vertex -143.7888236700062 -129.29377386049543 5.000000004051608
    vertex -130.06413034371917 -136.58918154688604 5.000000004051563
    vertex -143.0641303437192 -129.38918154688605 5.000000004051608
  endloop
endfacet
facet normal 1.0114980189112283e-32 0.0 1.0
  outer loop
    vertex -143.0641303437192 -129.38918154688605 5.000000004051608
    vertex -130.06413034371917 -136.58918154688604 5.000000004051563
    vertex -142.3394370174321 -129.29377386049543 5.000000004051608
  endloop
endfacet
facet normal 1.0114980189112283e-32 0.0 1.0
  outer loop
    vertex -142.3394370174321 -129.29377386049543 5.000000004051608
    vertex -130.06413034371917 -136.58918154688604 5.000000004051563
    vertex -141.66413034371914 -129.01405267748248 5.000000004051608
  endloop
endfacet
facet normal 1.0114980189112283e-32 0.0 1.0
  outer loop
    vertex -141.66413034371914 -129.01405267748248 5.000000004051608
    vertex -130.06413034371917 -136.58918154688604 5.000000004051563
    vertex -141.08423135639683 -128.56908053420838 5.000000004051608
  endloop
endfacet
facet normal 1.0114980189112283e-32 0.0 1.0
  outer loop
    vertex -141.08423135639683 -128.56908053420838 5.000000004051608
    vertex -130.06413034371917 -136.58918154688604 5.000000004051563
    vertex -140.63925921312276 -127.98918154688606 5.000000004051608
  endloop
endfacet
facet normal 1.0114980189112283e-32 0.0 1.0
  outer loop
    vertex -140.63925921312276 -127.98918154688606 5.000000004051608
    vertex -130.06413034371917 -136.58918154688604 5.000000004051563
    vertex -140.35953803010983 -127.3138748731731 5.000000004051608
  endloop
endfacet
facet normal 1.0114980189112283e-32 0.0 1.0
  outer loop
    vertex -140.35953803010983 -127.3138748731731 5.000000004051608
    vertex -130.06413034371917 -136.58918154688604 5.000000004051563
    vertex -137.0641303437192 -129.78918154688608 5.000000004051608
  endloop
endfacet
facet normal 1.0114980189112283e-32 0.0 1.0
  outer loop
    vertex -140.35953803010983 -127.3138748731731 5.000000004051608
    vertex -137.0641303437192 -129.78918154688608 5.000000004051608
    vertex -140.2641303437192 -126.58918154688607 5.000000004051608
  endloop
endfacet
facet normal 1.0114980189112283e-32 0.0 1.0
  outer loop
    vertex -137.0641303437192 -129.78918154688608 5.000000004051608
    vertex -130.06413034371917 -136.58918154688604 5.000000004051563
    vertex -134.06413034371917 -129.78918154688606 5.000000004051608
  endloop
endfacet
facet normal 1.0114980189112283e-32 0.0 1.0
  outer loop
    vertex -134.06413034371917 -129.78918154688606 5.000000004051608
    vertex -130.06413034371917 -136.58918154688604 5.000000004051563
    vertex -134.06413034371917 -129.28918154688603 5.000000004051608
  endloop
endfacet
facet normal 1.0114980189112283e-32 0.0 1.0
  outer loop
    vertex -134.06413034371917 -129.28918154688603 5.000000004051608
    vertex -130.06413034371917 -136.58918154688604 5.000000004051563
    vertex -124.06413034371917 -129.28918154688603 5.000000004051608
  endloop
endfacet
facet normal 1.0114980189112283e-32 0.0 1.0
  outer loop
    vertex -124.06413034371917 -129.28918154688603 5.000000004051608
    vertex -130.06413034371917 -136.58918154688604 5.000000004051563
    vertex -128.51121607310407 -136.3847365046205 5.000000004051563
  endloop
endfacet
facet normal 1.0114980189112283e-32 0.0 1.0
  outer loop
    vertex -124.06413034371917 -129.28918154688603 5.000000004051608
    vertex -128.51121607310407 -136.3847365046205 5.000000004051563
    vertex -127.06413034371913 -135.7853339695927 5.000000004051563
  endloop
endfacet
facet normal 1.0114980189112283e-32 0.0 1.0
  outer loop
    vertex -124.06413034371917 -129.28918154688603 5.000000004051608
    vertex -127.06413034371913 -135.7853339695927 5.000000004051563
    vertex -125.82148965659987 -134.83182223400533 5.000000004051563
  endloop
endfacet
facet normal 1.0114980189112283e-32 0.0 1.0
  outer loop
    vertex -124.06413034371917 -129.28918154688603 5.000000004051608
    vertex -125.82148965659987 -134.83182223400533 5.000000004051563
    vertex -124.86797792101257 -133.58918154688604 5.000000004051517
  endloop
endfacet
facet normal 1.0114980189112283e-32 0.0 1.0
  outer loop
    vertex -124.06413034371917 -129.28918154688603 5.000000004051608
    vertex -124.86797792101257 -133.58918154688604 5.000000004051517
    vertex -124.26857538598476 -132.14209581750117 5.000000004051608
  endloop
endfacet
facet normal 1.0114980189112283e-32 0.0 1.0
  outer loop
    vertex -124.06413034371917 -129.28918154688603 5.000000004051608
    vertex -124.26857538598476 -132.14209581750117 5.000000004051608
    vertex -124.06413034371917 -130.58918154688604 5.000000004051608
  endloop
endfacet
facet normal 1.0114980189112283e-32 0.0 1.0
  outer loop
    vertex -124.06413034371917 -123.88918154688604 5.000000004051563
    vertex -134.06413034371917 -123.38918154688605 5.000000004051563
    vertex -134.06413034371917 -123.88918154688604 5.000000004051563
  endloop
endfacet
facet normal 1.0114980189112283e-32 0.0 1.0
  outer loop
    vertex -134.06413034371917 -123.38918154688605 5.000000004051563
    vertex -124.06413034371917 -123.88918154688604 5.000000004051563
    vertex -130.06413034371917 -116.58918154688604 5.000000004051608
  endloop
endfacet
facet normal 1.0114980189112283e-32 0.0 1.0
  outer loop
    vertex -130.06413034371917 -116.58918154688604 5.000000004051608
    vertex -124.06413034371917 -123.88918154688604 5.000000004051563
    vertex -128.51121607310407 -116.79362658915163 5.000000004051608
  endloop
endfacet
facet normal 1.0114980189112283e-32 0.0 1.0
  outer loop
    vertex -128.51121607310407 -116.79362658915163 5.000000004051608
    vertex -124.06413034371917 -123.88918154688604 5.000000004051563
    vertex -127.06413034371921 -117.39302912417945 5.000000004051608
  endloop
endfacet
facet normal 1.0114980189112283e-32 0.0 1.0
  outer loop
    vertex -127.06413034371921 -117.39302912417945 5.000000004051608
    vertex -124.06413034371917 -123.88918154688604 5.000000004051563
    vertex -125.82148965659987 -118.34654085976678 5.000000004051608
  endloop
endfacet
facet normal 1.0114980189112283e-32 0.0 1.0
  outer loop
    vertex -125.82148965659987 -118.34654085976678 5.000000004051608
    vertex -124.06413034371917 -123.88918154688604 5.000000004051563
    vertex -124.86797792101257 -119.58918154688605 5.000000004051517
  endloop
endfacet
facet normal 1.0114980189112283e-32 0.0 1.0
  outer loop
    vertex -124.86797792101257 -119.58918154688605 5.000000004051517
    vertex -124.06413034371917 -123.88918154688604 5.000000004051563
    vertex -124.26857538598476 -121.0362672762709 5.000000004051563
  endloop
endfacet
facet normal 1.0114980189112283e-32 0.0 1.0
  outer loop
    vertex -124.26857538598476 -121.0362672762709 5.000000004051563
    vertex -124.06413034371917 -123.88918154688604 5.000000004051563
    vertex -124.06413034371917 -122.58918154688604 5.000000004051563
  endloop
endfacet
facet normal 1.0114980189112283e-32 0.0 1.0
  outer loop
    vertex -147.06413034371917 -116.58918154688604 5.000000004051608
    vertex -144.46413034371915 -124.16431041628965 5.000000004051563
    vertex -130.06413034371917 -116.58918154688604 5.000000004051608
  endloop
endfacet
facet normal 1.0114980189112283e-32 0.0 1.0
  outer loop
    vertex -144.46413034371915 -124.16431041628965 5.000000004051563
    vertex -147.06413034371917 -116.58918154688604 5.000000004051608
    vertex -145.04402933104154 -124.60928255956372 5.000000004051563
  endloop
endfacet
facet normal 1.0114980189112283e-32 0.0 1.0
  outer loop
    vertex -145.04402933104154 -124.60928255956372 5.000000004051563
    vertex -147.06413034371917 -116.58918154688604 5.000000004051608
    vertex -145.48900147431561 -125.18918154688609 5.000000004051563
  endloop
endfacet
facet normal 1.0114980189112283e-32 0.0 1.0
  outer loop
    vertex -145.48900147431561 -125.18918154688609 5.000000004051563
    vertex -147.06413034371917 -116.58918154688604 5.000000004051608
    vertex -145.76872265732854 -125.86448822059903 5.000000004051563
  endloop
endfacet
facet normal 1.0114980189112283e-32 0.0 1.0
  outer loop
    vertex -145.76872265732854 -125.86448822059903 5.000000004051563
    vertex -147.06413034371917 -116.58918154688604 5.000000004051608
    vertex -145.86413034371918 -126.58918154688608 5.000000004051608
  endloop
endfacet
facet normal 1.0114980189112283e-32 0.0 1.0
  outer loop
    vertex -130.06413034371917 -116.58918154688604 5.000000004051608
    vertex -144.46413034371915 -124.16431041628965 5.000000004051563
    vertex -143.7888236700062 -123.88458923327667 5.000000004051563
  endloop
endfacet
facet normal 1.0114980189112283e-32 0.0 1.0
  outer loop
    vertex -130.06413034371917 -116.58918154688604 5.000000004051608
    vertex -143.7888236700062 -123.88458923327667 5.000000004051563
    vertex -143.0641303437192 -123.78918154688607 5.000000004051563
  endloop
endfacet
facet normal 1.0114980189112283e-32 0.0 1.0
  outer loop
    vertex -130.06413034371917 -116.58918154688604 5.000000004051608
    vertex -143.0641303437192 -123.78918154688607 5.000000004051563
    vertex -142.3394370174321 -123.88458923327666 5.000000004051563
  endloop
endfacet
facet normal 1.0114980189112283e-32 0.0 1.0
  outer loop
    vertex -130.06413034371917 -116.58918154688604 5.000000004051608
    vertex -142.3394370174321 -123.88458923327666 5.000000004051563
    vertex -141.66413034371914 -124.16431041628962 5.000000004051563
  endloop
endfacet
facet normal 1.0114980189112283e-32 0.0 1.0
  outer loop
    vertex -130.06413034371917 -116.58918154688604 5.000000004051608
    vertex -141.66413034371914 -124.16431041628962 5.000000004051563
    vertex -141.08423135639683 -124.60928255956371 5.000000004051563
  endloop
endfacet
facet normal 1.0114980189112283e-32 0.0 1.0
  outer loop
    vertex -130.06413034371917 -116.58918154688604 5.000000004051608
    vertex -141.08423135639683 -124.60928255956371 5.000000004051563
    vertex -140.63925921312276 -125.18918154688606 5.000000004051563
  endloop
endfacet
facet normal 1.0114980189112283e-32 0.0 1.0
  outer loop
    vertex -130.06413034371917 -116.58918154688604 5.000000004051608
    vertex -140.63925921312276 -125.18918154688606 5.000000004051563
    vertex -140.35953803010983 -125.86448822059899 5.000000004051563
  endloop
endfacet
facet normal 1.0114980189112283e-32 0.0 1.0
  outer loop
    vertex -130.06413034371917 -116.58918154688604 5.000000004051608
    vertex -140.35953803010983 -125.86448822059899 5.000000004051563
    vertex -137.0641303437192 -123.38918154688606 5.000000004051563
  endloop
endfacet
facet normal 1.0114980189112283e-32 0.0 1.0
  outer loop
    vertex -137.0641303437192 -123.38918154688606 5.000000004051563
    vertex -140.35953803010983 -125.86448822059899 5.000000004051563
    vertex -140.2641303437192 -126.58918154688607 5.000000004051608
  endloop
endfacet
facet normal 1.0114980189112283e-32 0.0 1.0
  outer loop
    vertex -137.0641303437192 -123.38918154688606 5.000000004051563
    vertex -140.2641303437192 -126.58918154688607 5.000000004051608
    vertex -137.0641303437192 -129.78918154688608 5.000000004051608
  endloop
endfacet
facet normal 1.0114980189112283e-32 0.0 1.0
  outer loop
    vertex -130.06413034371917 -116.58918154688604 5.000000004051608
    vertex -137.0641303437192 -123.38918154688606 5.000000004051563
    vertex -134.06413034371917 -123.38918154688605 5.000000004051563
  endloop
endfacet
endsolid Much4
