solid Much4
facet normal 1.0 1.1138385961984459e-13 -5.344792235544679e-27
  outer loop
    vertex -172.11279217327257 -137.3849956172869 4.051386626180431e-09
    vertex -172.11279217327342 -129.36489460460893 6.1201010167287
    vertex -172.11279217327257 -137.38499561728625 13.200000004051363
  endloop
endfacet
facet normal 1.0 1.1138385961984459e-13 -5.344792235544679e-27
  outer loop
    vertex -172.11279217327342 -129.36489460460893 6.1201010167287
    vertex -172.11279217327257 -137.3849956172869 4.051386626180431e-09
    vertex -172.1127921732735 -128.78499561728663 5.67512887345455
  endloop
endfacet
facet normal 1.0 1.1138385961984459e-13 -5.344792235544679e-27
  outer loop
    vertex -172.1127921732735 -128.78499561728663 5.67512887345455
    vertex -172.11279217327257 -137.3849956172869 4.051386626180431e-09
    vertex -172.1127921732748 -117.3849956172869 4.050427837576365e-09
  endloop
endfacet
facet normal 1.0 1.1138385961984459e-13 -5.344792235544679e-27
  outer loop
    vertex -172.11279217327257 -137.38499561728625 13.200000004051363
    vertex -172.11279217327342 -129.36489460460893 6.1201010167287
    vertex -172.1127921732734 -129.809866747883 6.7000000040510335
  endloop
endfacet
facet normal 1.0 1.1138385961984459e-13 -5.344792235544679e-27
  outer loop
    vertex -172.11279217327257 -137.38499561728625 13.200000004051363
    vertex -172.1127921732734 -129.809866747883 6.7000000040510335
    vertex -172.1127921732734 -130.08958793089593 7.375306677763996
  endloop
endfacet
facet normal 1.0 1.1138385961984459e-13 -5.344792235544679e-27
  outer loop
    vertex -172.11279217327257 -137.38499561728625 13.200000004051363
    vertex -172.1127921732734 -130.08958793089593 7.375306677763996
    vertex -172.11279217327333 -130.1849956172865 8.10000000405105
  endloop
endfacet
facet normal 1.0 1.1138385961984459e-13 -5.344792235544679e-27
  outer loop
    vertex -172.1127921732735 -128.78499561728663 5.67512887345455
    vertex -172.1127921732748 -117.3849956172869 4.050427837576365e-09
    vertex -172.11279217327362 -128.1096889435737 5.395407690441543
  endloop
endfacet
facet normal 1.0 1.1138385961984459e-13 -5.344792235544679e-27
  outer loop
    vertex -172.11279217327362 -128.1096889435737 5.395407690441543
    vertex -172.1127921732748 -117.3849956172869 4.050427837576365e-09
    vertex -172.11279217327368 -127.38499561728663 5.30000000405092
  endloop
endfacet
facet normal 1.0 1.1138385961984459e-13 -5.344792235544679e-27
  outer loop
    vertex -172.11279217327368 -127.38499561728663 5.30000000405092
    vertex -172.1127921732748 -117.3849956172869 4.050427837576365e-09
    vertex -172.11279217327376 -126.66030229099958 5.395407690441475
  endloop
endfacet
facet normal 1.0 1.1138385961984459e-13 -5.344792235544679e-27
  outer loop
    vertex -172.11279217327376 -126.66030229099958 5.395407690441475
    vertex -172.1127921732748 -117.3849956172869 4.050427837576365e-09
    vertex -172.11279217327385 -125.98499561728661 5.675128873454415
  endloop
endfacet
facet normal 1.0 1.1138385961984459e-13 -5.344792235544679e-27
  outer loop
    vertex -172.11279217327385 -125.98499561728661 5.675128873454415
    vertex -172.1127921732748 -117.3849956172869 4.050427837576365e-09
    vertex -172.11279217327385 -125.40509662996426 6.120101016728508
  endloop
endfacet
facet normal 1.0 1.1138385961984459e-13 -5.344792235544679e-27
  outer loop
    vertex -172.11279217327385 -125.40509662996426 6.120101016728508
    vertex -172.1127921732748 -117.3849956172869 4.050427837576365e-09
    vertex -172.11279217327396 -124.96012448669013 6.700000004050802
  endloop
endfacet
facet normal 1.0 1.1138385961984459e-13 -5.344792235544679e-27
  outer loop
    vertex -172.11279217327396 -124.96012448669013 6.700000004050802
    vertex -172.1127921732748 -117.3849956172869 4.050427837576365e-09
    vertex -172.112792173274 -124.68040330367717 7.375306677763737
  endloop
endfacet
facet normal 1.0 1.1138385961984459e-13 -5.344792235544679e-27
  outer loop
    vertex -172.112792173274 -124.68040330367717 7.375306677763737
    vertex -172.1127921732748 -117.3849956172869 4.050427837576365e-09
    vertex -172.11279217327396 -124.58499561728651 8.100000004050782
  endloop
endfacet
facet normal 1.0 1.1138385961984459e-13 -5.344792235544679e-27
  outer loop
    vertex -172.11279217327257 -137.38499561728625 13.200000004051363
    vertex -172.11279217327362 -128.10968894357345 10.804592317660358
    vertex -172.1127921732748 -117.38499561728626 13.200000004050404
  endloop
endfacet
facet normal 1.0 1.1138385961984459e-13 -5.344792235544679e-27
  outer loop
    vertex -172.11279217327362 -128.10968894357345 10.804592317660358
    vertex -172.11279217327257 -137.38499561728625 13.200000004051363
    vertex -172.1127921732735 -128.7849956172864 10.524871134647414
  endloop
endfacet
facet normal 1.0 1.1138385961984459e-13 -5.344792235544679e-27
  outer loop
    vertex -172.1127921732735 -128.7849956172864 10.524871134647414
    vertex -172.11279217327257 -137.38499561728625 13.200000004051363
    vertex -172.11279217327348 -129.36489460460874 10.079898991373321
  endloop
endfacet
facet normal 1.0 1.1138385961984459e-13 -5.344792235544679e-27
  outer loop
    vertex -172.11279217327348 -129.36489460460874 10.079898991373321
    vertex -172.11279217327257 -137.38499561728625 13.200000004051363
    vertex -172.1127921732734 -129.80986674788286 9.50000000405103
  endloop
endfacet
facet normal 1.0 1.1138385961984459e-13 -5.344792235544679e-27
  outer loop
    vertex -172.1127921732734 -129.80986674788286 9.50000000405103
    vertex -172.11279217327257 -137.38499561728625 13.200000004051363
    vertex -172.1127921732734 -130.08958793089587 8.824693330338096
  endloop
endfacet
facet normal 1.0 1.1138385961984459e-13 -5.344792235544679e-27
  outer loop
    vertex -172.1127921732734 -130.08958793089587 8.824693330338096
    vertex -172.11279217327257 -137.38499561728625 13.200000004051363
    vertex -172.11279217327333 -130.1849956172865 8.10000000405105
  endloop
endfacet
facet normal 1.0 1.1138385961984459e-13 -5.344792235544679e-27
  outer loop
    vertex -172.1127921732748 -117.38499561728626 13.200000004050404
    vertex -172.11279217327362 -128.10968894357345 10.804592317660358
    vertex -172.11279217327362 -127.38499561728636 10.900000004050911
  endloop
endfacet
facet normal 1.0 1.1138385961984459e-13 -5.344792235544679e-27
  outer loop
    vertex -172.1127921732748 -117.38499561728626 13.200000004050404
    vertex -172.11279217327362 -127.38499561728636 10.900000004050911
    vertex -172.11279217327376 -126.66030229099934 10.804592317660287
  endloop
endfacet
facet normal 1.0 1.1138385961984459e-13 -5.344792235544679e-27
  outer loop
    vertex -172.1127921732748 -117.38499561728626 13.200000004050404
    vertex -172.11279217327376 -126.66030229099934 10.804592317660287
    vertex -172.11279217327385 -125.98499561728639 10.524871134647281
  endloop
endfacet
facet normal 1.0 1.1138385961984459e-13 -5.344792235544679e-27
  outer loop
    vertex -172.1127921732748 -117.38499561728626 13.200000004050404
    vertex -172.11279217327385 -125.98499561728639 10.524871134647281
    vertex -172.1127921732739 -125.40509662996408 10.079898991373133
  endloop
endfacet
facet normal 1.0 1.1138385961984459e-13 -5.344792235544679e-27
  outer loop
    vertex -172.1127921732748 -117.38499561728626 13.200000004050404
    vertex -172.1127921732739 -125.40509662996408 10.079898991373133
    vertex -172.11279217327396 -124.96012448669 9.500000004050797
  endloop
endfacet
facet normal 1.0 1.1138385961984459e-13 -5.344792235544679e-27
  outer loop
    vertex -172.1127921732748 -117.38499561728626 13.200000004050404
    vertex -172.11279217327396 -124.96012448669 9.500000004050797
    vertex -172.112792173274 -124.6804033036771 8.824693330337837
  endloop
endfacet
facet normal 1.0 1.1138385961984459e-13 -5.344792235544679e-27
  outer loop
    vertex -172.1127921732748 -117.38499561728626 13.200000004050404
    vertex -172.112792173274 -124.6804033036771 8.824693330337837
    vertex -172.11279217327396 -124.58499561728651 8.100000004050782
  endloop
endfacet
facet normal 1.0 1.1138385961984459e-13 -5.344792235544679e-27
  outer loop
    vertex -172.1127921732748 -117.38499561728626 13.200000004050404
    vertex -172.11279217327396 -124.58499561728651 8.100000004050782
    vertex -172.1127921732748 -117.3849956172869 4.050427837576365e-09
  endloop
endfacet
facet normal 3.0191220993517395e-30 4.795823319174707e-14 1.0
  outer loop
    vertex -199.571620868916 -117.38499561728982 3.000000004050422
    vertex -185.31279217327443 -120.38499561728821 3.0000000040505688
    vertex -185.31279217327477 -117.38499561728821 3.0000000040504253
  endloop
endfacet
facet normal 3.0191220993517395e-30 4.795823319174707e-14 1.0
  outer loop
    vertex -185.31279217327443 -120.38499561728821 3.0000000040505688
    vertex -199.571620868916 -117.38499561728982 3.000000004050422
    vertex -185.3127921732729 -134.3849956172882 3.0000000040512402
  endloop
endfacet
facet normal 3.0191220993517395e-30 4.795823319174707e-14 1.0
  outer loop
    vertex -185.3127921732729 -134.3849956172882 3.0000000040512402
    vertex -199.571620868916 -117.38499561728982 3.000000004050422
    vertex -185.31279217327256 -137.3849956172882 3.000000004051384
  endloop
endfacet
facet normal 3.0191220993517395e-30 4.795823319174707e-14 1.0
  outer loop
    vertex -185.31279217327256 -137.3849956172882 3.000000004051384
    vertex -199.571620868916 -117.38499561728982 3.000000004050422
    vertex -199.57162086891378 -137.38499561728983 3.000000004051381
  endloop
endfacet
facet normal 3.0191220993517395e-30 4.795823319174707e-14 1.0
  outer loop
    vertex -185.31279217327443 -120.38499561728821 3.0000000040505688
    vertex -175.1127921732729 -134.3849956172871 3.000000004051237
    vertex -175.11279217327447 -120.38499561728707 3.000000004050566
  endloop
endfacet
facet normal 3.0191220993517395e-30 4.795823319174707e-14 1.0
  outer loop
    vertex -175.1127921732729 -134.3849956172871 3.000000004051237
    vertex -185.31279217327443 -120.38499561728821 3.0000000040505688
    vertex -185.3127921732729 -134.3849956172882 3.0000000040512402
  endloop
endfacet
facet normal -3.0191220993517395e-30 -4.795823319174707e-14 -1.0
  outer loop
    vertex -199.57162086891375 -137.38499561728995 4.051386626180431e-09
    vertex -172.1127921732748 -117.3849956172869 4.050427837576365e-09
    vertex -172.11279217327257 -137.3849956172869 4.051386626180431e-09
  endloop
endfacet
facet normal -3.0191220993517395e-30 -4.795823319174707e-14 -1.0
  outer loop
    vertex -172.1127921732748 -117.3849956172869 4.050427837576365e-09
    vertex -199.57162086891375 -137.38499561728995 4.051386626180431e-09
    vertex -199.571620868916 -117.38499561728995 4.050427837576365e-09
  endloop
endfacet
facet normal -1.0 -1.1138385961984459e-13 5.344792235544679e-27
  outer loop
    vertex -175.1127921732729 -134.3849956172866 13.200000004051219
    vertex -175.1127921732734 -129.8098667478832 9.50000000405103
    vertex -175.1127921732729 -134.3849956172871 3.000000004051237
  endloop
endfacet
facet normal -1.0 -1.1138385961984459e-13 5.344792235544679e-27
  outer loop
    vertex -175.1127921732734 -129.8098667478832 9.50000000405103
    vertex -175.1127921732729 -134.3849956172866 13.200000004051219
    vertex -175.11279217327348 -129.36489460460908 10.079898991373321
  endloop
endfacet
facet normal -1.0 -1.1138385961984459e-13 5.344792235544679e-27
  outer loop
    vertex -175.11279217327348 -129.36489460460908 10.079898991373321
    vertex -175.1127921732729 -134.3849956172866 13.200000004051219
    vertex -175.1127921732735 -128.7849956172867 10.524871134647414
  endloop
endfacet
facet normal -1.0 -1.1138385961984459e-13 5.344792235544679e-27
  outer loop
    vertex -175.1127921732735 -128.7849956172867 10.524871134647414
    vertex -175.1127921732729 -134.3849956172866 13.200000004051219
    vertex -175.1127921732736 -128.10968894357376 10.804592317660358
  endloop
endfacet
facet normal -1.0 -1.1138385961984459e-13 5.344792235544679e-27
  outer loop
    vertex -175.1127921732736 -128.10968894357376 10.804592317660358
    vertex -175.1127921732729 -134.3849956172866 13.200000004051219
    vertex -175.11279217327447 -120.38499561728658 13.200000004050548
  endloop
endfacet
facet normal -1.0 -1.1138385961984459e-13 5.344792235544679e-27
  outer loop
    vertex -175.1127921732729 -134.3849956172871 3.000000004051237
    vertex -175.1127921732734 -129.8098667478832 9.50000000405103
    vertex -175.11279217327336 -130.08958793089622 8.824693330338096
  endloop
endfacet
facet normal -1.0 -1.1138385961984459e-13 5.344792235544679e-27
  outer loop
    vertex -175.1127921732729 -134.3849956172871 3.000000004051237
    vertex -175.11279217327336 -130.08958793089622 8.824693330338096
    vertex -175.11279217327333 -130.18499561728683 8.10000000405105
  endloop
endfacet
facet normal -1.0 -1.1138385961984459e-13 5.344792235544679e-27
  outer loop
    vertex -175.1127921732736 -128.10968894357376 10.804592317660358
    vertex -175.11279217327447 -120.38499561728658 13.200000004050548
    vertex -175.11279217327362 -127.3849956172867 10.900000004050911
  endloop
endfacet
facet normal -1.0 -1.1138385961984459e-13 5.344792235544679e-27
  outer loop
    vertex -175.11279217327362 -127.3849956172867 10.900000004050911
    vertex -175.11279217327447 -120.38499561728658 13.200000004050548
    vertex -175.11279217327376 -126.66030229099965 10.804592317660287
  endloop
endfacet
facet normal -1.0 -1.1138385961984459e-13 5.344792235544679e-27
  outer loop
    vertex -175.11279217327376 -126.66030229099965 10.804592317660287
    vertex -175.11279217327447 -120.38499561728658 13.200000004050548
    vertex -175.11279217327382 -125.98499561728673 10.524871134647281
  endloop
endfacet
facet normal -1.0 -1.1138385961984459e-13 5.344792235544679e-27
  outer loop
    vertex -175.11279217327382 -125.98499561728673 10.524871134647281
    vertex -175.11279217327447 -120.38499561728658 13.200000004050548
    vertex -175.1127921732739 -125.40509662996442 10.079898991373133
  endloop
endfacet
facet normal -1.0 -1.1138385961984459e-13 5.344792235544679e-27
  outer loop
    vertex -175.1127921732739 -125.40509662996442 10.079898991373133
    vertex -175.11279217327447 -120.38499561728658 13.200000004050548
    vertex -175.11279217327393 -124.96012448669035 9.500000004050797
  endloop
endfacet
facet normal -1.0 -1.1138385961984459e-13 5.344792235544679e-27
  outer loop
    vertex -175.11279217327393 -124.96012448669035 9.500000004050797
    vertex -175.11279217327447 -120.38499561728658 13.200000004050548
    vertex -175.112792173274 -124.68040330367744 8.824693330337837
  endloop
endfacet
facet normal -1.0 -1.1138385961984459e-13 5.344792235544679e-27
  outer loop
    vertex -175.112792173274 -124.68040330367744 8.824693330337837
    vertex -175.11279217327447 -120.38499561728658 13.200000004050548
    vertex -175.11279217327393 -124.58499561728685 8.100000004050782
  endloop
endfacet
facet normal -1.0 -1.1138385961984459e-13 5.344792235544679e-27
  outer loop
    vertex -175.1127921732729 -134.3849956172871 3.000000004051237
    vertex -175.1127921732736 -128.109688943574 5.395407690441543
    vertex -175.11279217327447 -120.38499561728707 3.000000004050566
  endloop
endfacet
facet normal -1.0 -1.1138385961984459e-13 5.344792235544679e-27
  outer loop
    vertex -175.1127921732736 -128.109688943574 5.395407690441543
    vertex -175.1127921732729 -134.3849956172871 3.000000004051237
    vertex -175.1127921732735 -128.78499561728694 5.67512887345455
  endloop
endfacet
facet normal -1.0 -1.1138385961984459e-13 5.344792235544679e-27
  outer loop
    vertex -175.1127921732735 -128.78499561728694 5.67512887345455
    vertex -175.1127921732729 -134.3849956172871 3.000000004051237
    vertex -175.11279217327342 -129.36489460460928 6.1201010167287
  endloop
endfacet
facet normal -1.0 -1.1138385961984459e-13 5.344792235544679e-27
  outer loop
    vertex -175.11279217327342 -129.36489460460928 6.1201010167287
    vertex -175.1127921732729 -134.3849956172871 3.000000004051237
    vertex -175.1127921732734 -129.80986674788335 6.7000000040510335
  endloop
endfacet
facet normal -1.0 -1.1138385961984459e-13 5.344792235544679e-27
  outer loop
    vertex -175.1127921732734 -129.80986674788335 6.7000000040510335
    vertex -175.1127921732729 -134.3849956172871 3.000000004051237
    vertex -175.11279217327336 -130.08958793089627 7.375306677763996
  endloop
endfacet
facet normal -1.0 -1.1138385961984459e-13 5.344792235544679e-27
  outer loop
    vertex -175.11279217327336 -130.08958793089627 7.375306677763996
    vertex -175.1127921732729 -134.3849956172871 3.000000004051237
    vertex -175.11279217327333 -130.18499561728683 8.10000000405105
  endloop
endfacet
facet normal -1.0 -1.1138385961984459e-13 5.344792235544679e-27
  outer loop
    vertex -175.11279217327447 -120.38499561728707 3.000000004050566
    vertex -175.1127921732736 -128.109688943574 5.395407690441543
    vertex -175.11279217327362 -127.38499561728698 5.30000000405092
  endloop
endfacet
facet normal -1.0 -1.1138385961984459e-13 5.344792235544679e-27
  outer loop
    vertex -175.11279217327447 -120.38499561728707 3.000000004050566
    vertex -175.11279217327362 -127.38499561728698 5.30000000405092
    vertex -175.11279217327376 -126.66030229099992 5.395407690441475
  endloop
endfacet
facet normal -1.0 -1.1138385961984459e-13 5.344792235544679e-27
  outer loop
    vertex -175.11279217327447 -120.38499561728707 3.000000004050566
    vertex -175.11279217327376 -126.66030229099992 5.395407690441475
    vertex -175.11279217327382 -125.98499561728696 5.675128873454415
  endloop
endfacet
facet normal -1.0 -1.1138385961984459e-13 5.344792235544679e-27
  outer loop
    vertex -175.11279217327447 -120.38499561728707 3.000000004050566
    vertex -175.11279217327382 -125.98499561728696 5.675128873454415
    vertex -175.11279217327385 -125.4050966299646 6.120101016728508
  endloop
endfacet
facet normal -1.0 -1.1138385961984459e-13 5.344792235544679e-27
  outer loop
    vertex -175.11279217327447 -120.38499561728707 3.000000004050566
    vertex -175.11279217327385 -125.4050966299646 6.120101016728508
    vertex -175.11279217327393 -124.96012448669048 6.700000004050802
  endloop
endfacet
facet normal -1.0 -1.1138385961984459e-13 5.344792235544679e-27
  outer loop
    vertex -175.11279217327447 -120.38499561728707 3.000000004050566
    vertex -175.11279217327393 -124.96012448669048 6.700000004050802
    vertex -175.112792173274 -124.68040330367751 7.375306677763737
  endloop
endfacet
facet normal -1.0 -1.1138385961984459e-13 5.344792235544679e-27
  outer loop
    vertex -175.11279217327447 -120.38499561728707 3.000000004050566
    vertex -175.112792173274 -124.68040330367751 7.375306677763737
    vertex -175.11279217327393 -124.58499561728685 8.100000004050782
  endloop
endfacet
facet normal -1.0 -1.1138385961984459e-13 5.344792235544679e-27
  outer loop
    vertex -175.11279217327447 -120.38499561728707 3.000000004050566
    vertex -175.11279217327393 -124.58499561728685 8.100000004050782
    vertex -175.11279217327447 -120.38499561728658 13.200000004050548
  endloop
endfacet
facet normal 3.0191220993517395e-30 4.795823319174707e-14 1.0
  outer loop
    vertex -175.11279217327478 -117.38499561728659 13.200000004050404
    vertex -172.11279217327257 -137.38499561728625 13.200000004051363
    vertex -172.1127921732748 -117.38499561728626 13.200000004050404
  endloop
endfacet
facet normal 3.0191220993517395e-30 4.795823319174707e-14 1.0
  outer loop
    vertex -172.11279217327257 -137.38499561728625 13.200000004051363
    vertex -175.11279217327478 -117.38499561728659 13.200000004050404
    vertex -175.11279217327257 -137.3849956172866 13.200000004051363
  endloop
endfacet
facet normal 3.0191220993517395e-30 4.795823319174707e-14 1.0
  outer loop
    vertex -175.11279217327257 -137.3849956172866 13.200000004051363
    vertex -175.11279217327478 -117.38499561728659 13.200000004050404
    vertex -175.11279217327447 -120.38499561728658 13.200000004050548
  endloop
endfacet
facet normal 3.0191220993517395e-30 4.795823319174707e-14 1.0
  outer loop
    vertex -175.11279217327257 -137.3849956172866 13.200000004051363
    vertex -175.11279217327447 -120.38499561728658 13.200000004050548
    vertex -175.1127921732729 -134.3849956172866 13.200000004051219
  endloop
endfacet
facet normal -1.1138385961984459e-13 1.0 -4.795823319174707e-14
  outer loop
    vertex -172.1127921732748 -117.3849956172869 4.050427837576365e-09
    vertex -175.11279217327478 -117.38499561728659 13.200000004050404
    vertex -172.1127921732748 -117.38499561728626 13.200000004050404
  endloop
endfacet
facet normal -1.1138385961984459e-13 1.0 -4.795823319174707e-14
  outer loop
    vertex -175.11279217327478 -117.38499561728659 13.200000004050404
    vertex -172.1127921732748 -117.3849956172869 4.050427837576365e-09
    vertex -185.31279217327477 -117.38499561728821 3.0000000040504253
  endloop
endfacet
facet normal -1.1138385961984459e-13 1.0 -4.795823319174707e-14
  outer loop
    vertex -185.31279217327477 -117.38499561728821 3.0000000040504253
    vertex -172.1127921732748 -117.3849956172869 4.050427837576365e-09
    vertex -199.571620868916 -117.38499561728982 3.000000004050422
  endloop
endfacet
facet normal -1.1138385961984459e-13 1.0 -4.795823319174707e-14
  outer loop
    vertex -199.571620868916 -117.38499561728982 3.000000004050422
    vertex -172.1127921732748 -117.3849956172869 4.050427837576365e-09
    vertex -199.571620868916 -117.38499561728995 4.050427837576365e-09
  endloop
endfacet
facet normal 1.1138385961984459e-13 -1.0 4.795823319174707e-14
  outer loop
    vertex -185.31279217327256 -137.3849956172882 3.000000004051384
    vertex -172.11279217327257 -137.38499561728625 13.200000004051363
    vertex -175.11279217327257 -137.3849956172866 13.200000004051363
  endloop
endfacet
facet normal 1.1138385961984459e-13 -1.0 4.795823319174707e-14
  outer loop
    vertex -172.11279217327257 -137.38499561728625 13.200000004051363
    vertex -185.31279217327256 -137.3849956172882 3.000000004051384
    vertex -172.11279217327257 -137.3849956172869 4.051386626180431e-09
  endloop
endfacet
facet normal 1.1138385961984459e-13 -1.0 4.795823319174707e-14
  outer loop
    vertex -172.11279217327257 -137.3849956172869 4.051386626180431e-09
    vertex -185.31279217327256 -137.3849956172882 3.000000004051384
    vertex -199.57162086891378 -137.38499561728983 3.000000004051381
  endloop
endfacet
facet normal 1.1138385961984459e-13 -1.0 4.795823319174707e-14
  outer loop
    vertex -172.11279217327257 -137.3849956172869 4.051386626180431e-09
    vertex -199.57162086891378 -137.38499561728983 3.000000004051381
    vertex -199.57162086891375 -137.38499561728995 4.051386626180431e-09
  endloop
endfacet
facet normal -1.0 -1.1138385961984459e-13 5.344792235544679e-27
  outer loop
    vertex -199.571620868916 -117.38499561728982 3.000000004050422
    vertex -199.57162086891375 -137.38499561728995 4.051386626180431e-09
    vertex -199.57162086891378 -137.38499561728983 3.000000004051381
  endloop
endfacet
facet normal -1.0 -1.1138385961984459e-13 5.344792235544679e-27
  outer loop
    vertex -199.57162086891375 -137.38499561728995 4.051386626180431e-09
    vertex -199.571620868916 -117.38499561728982 3.000000004050422
    vertex -199.571620868916 -117.38499561728995 4.050427837576365e-09
  endloop
endfacet
facet normal -1.0758854663856423e-13 0.9659258262890582 -0.2588190451025587
  outer loop
    vertex -172.1127921732734 -130.08958793089587 8.824693330338096
    vertex -175.1127921732734 -129.8098667478832 9.50000000405103
    vertex -172.1127921732734 -129.80986674788286 9.50000000405103
  endloop
endfacet
facet normal -9.646125200234508e-14 0.8660254037844141 -0.5000000000000429
  outer loop
    vertex -175.1127921732734 -129.8098667478832 9.50000000405103
    vertex -172.1127921732734 -130.08958793089587 8.824693330338096
    vertex -175.11279217327336 -130.08958793089622 8.824693330338096
  endloop
endfacet
facet normal -9.646125200234508e-14 0.8660254037844141 -0.5000000000000429
  outer loop
    vertex -172.1127921732734 -129.80986674788286 9.50000000405103
    vertex -175.11279217327348 -129.36489460460908 10.079898991373321
    vertex -172.11279217327348 -129.36489460460874 10.079898991373321
  endloop
endfacet
facet normal -7.876028245192281e-14 0.7071067811865158 -0.7071067811865793
  outer loop
    vertex -175.11279217327348 -129.36489460460908 10.079898991373321
    vertex -172.1127921732734 -129.80986674788286 9.50000000405103
    vertex -175.1127921732734 -129.8098667478832 9.50000000405103
  endloop
endfacet
facet normal -7.876028245192281e-14 0.7071067811865158 -0.7071067811865793
  outer loop
    vertex -175.11279217327348 -129.36489460460908 10.079898991373321
    vertex -172.1127921732735 -128.7849956172864 10.524871134647414
    vertex -172.11279217327348 -129.36489460460874 10.079898991373321
  endloop
endfacet
facet normal -5.56919298099241e-14 0.4999999999999747 -0.8660254037844535
  outer loop
    vertex -172.1127921732735 -128.7849956172864 10.524871134647414
    vertex -175.11279217327348 -129.36489460460908 10.079898991373321
    vertex -175.1127921732735 -128.7849956172867 10.524871134647414
  endloop
endfacet
facet normal -5.56919298099241e-14 0.4999999999999747 -0.8660254037844535
  outer loop
    vertex -175.1127921732735 -128.7849956172867 10.524871134647414
    vertex -172.11279217327362 -128.10968894357345 10.804592317660358
    vertex -172.1127921732735 -128.7849956172864 10.524871134647414
  endloop
endfacet
facet normal -2.882826418664034e-14 0.25881904510246495 -0.9659258262890832
  outer loop
    vertex -172.11279217327362 -128.10968894357345 10.804592317660358
    vertex -175.1127921732735 -128.7849956172867 10.524871134647414
    vertex -175.1127921732736 -128.10968894357376 10.804592317660358
  endloop
endfacet
facet normal -2.882826418664034e-14 0.25881904510246495 -0.9659258262890832
  outer loop
    vertex -172.11279217327362 -128.10968894357345 10.804592317660358
    vertex -175.11279217327362 -127.3849956172867 10.900000004050911
    vertex -172.11279217327362 -127.38499561728636 10.900000004050911
  endloop
endfacet
facet normal -3.0191220993517395e-30 -4.795823319174707e-14 -1.0
  outer loop
    vertex -175.11279217327362 -127.3849956172867 10.900000004050911
    vertex -172.11279217327362 -128.10968894357345 10.804592317660358
    vertex -175.1127921732736 -128.10968894357376 10.804592317660358
  endloop
endfacet
facet normal -3.0191220993517395e-30 -4.795823319174707e-14 -1.0
  outer loop
    vertex -175.11279217327362 -127.3849956172867 10.900000004050911
    vertex -172.11279217327376 -126.66030229099934 10.804592317660287
    vertex -172.11279217327362 -127.38499561728636 10.900000004050911
  endloop
endfacet
facet normal 2.882826418664035e-14 -0.2588190451025577 -0.9659258262890585
  outer loop
    vertex -172.11279217327376 -126.66030229099934 10.804592317660287
    vertex -175.11279217327362 -127.3849956172867 10.900000004050911
    vertex -175.11279217327376 -126.66030229099965 10.804592317660287
  endloop
endfacet
facet normal 2.8828264186640904e-14 -0.2588190451025627 -0.9659258262890571
  outer loop
    vertex -175.11279217327376 -126.66030229099965 10.804592317660287
    vertex -172.11279217327385 -125.98499561728639 10.524871134647281
    vertex -172.11279217327376 -126.66030229099934 10.804592317660287
  endloop
endfacet
facet normal 5.56919298099241e-14 -0.5000000000000577 -0.8660254037844055
  outer loop
    vertex -172.11279217327385 -125.98499561728639 10.524871134647281
    vertex -175.11279217327376 -126.66030229099965 10.804592317660287
    vertex -175.11279217327382 -125.98499561728673 10.524871134647281
  endloop
endfacet
facet normal 5.56919298099241e-14 -0.5000000000000577 -0.8660254037844055
  outer loop
    vertex -175.11279217327382 -125.98499561728673 10.524871134647281
    vertex -172.1127921732739 -125.40509662996408 10.079898991373133
    vertex -172.11279217327385 -125.98499561728639 10.524871134647281
  endloop
endfacet
facet normal 7.876028245192281e-14 -0.7071067811865835 -0.7071067811865116
  outer loop
    vertex -172.1127921732739 -125.40509662996408 10.079898991373133
    vertex -175.11279217327382 -125.98499561728673 10.524871134647281
    vertex -175.1127921732739 -125.40509662996442 10.079898991373133
  endloop
endfacet
facet normal 9.646125200234508e-14 -0.866025403784462 -0.4999999999999598
  outer loop
    vertex -175.11279217327393 -124.96012448669035 9.500000004050797
    vertex -172.1127921732739 -125.40509662996408 10.079898991373133
    vertex -175.1127921732739 -125.40509662996442 10.079898991373133
  endloop
endfacet
facet normal 7.876028245192281e-14 -0.7071067811865835 -0.7071067811865116
  outer loop
    vertex -172.1127921732739 -125.40509662996408 10.079898991373133
    vertex -175.11279217327393 -124.96012448669035 9.500000004050797
    vertex -172.11279217327396 -124.96012448669 9.500000004050797
  endloop
endfacet
facet normal 1.0758854663856407e-13 -0.9659258262890816 -0.25881904510247095
  outer loop
    vertex -175.112792173274 -124.68040330367744 8.824693330337837
    vertex -172.11279217327396 -124.96012448669 9.500000004050797
    vertex -175.11279217327393 -124.96012448669035 9.500000004050797
  endloop
endfacet
facet normal 9.646125200234508e-14 -0.866025403784462 -0.4999999999999598
  outer loop
    vertex -172.11279217327396 -124.96012448669 9.500000004050797
    vertex -175.112792173274 -124.68040330367744 8.824693330337837
    vertex -172.112792173274 -124.6804033036771 8.824693330337837
  endloop
endfacet
facet normal 1.1138385961984459e-13 -1.0 4.795823319174707e-14
  outer loop
    vertex -175.11279217327393 -124.58499561728685 8.100000004050782
    vertex -172.112792173274 -124.6804033036771 8.824693330337837
    vertex -175.112792173274 -124.68040330367744 8.824693330337837
  endloop
endfacet
facet normal 1.0758854663856423e-13 -0.9659258262890831 -0.258819045102466
  outer loop
    vertex -172.112792173274 -124.6804033036771 8.824693330337837
    vertex -175.11279217327393 -124.58499561728685 8.100000004050782
    vertex -172.11279217327396 -124.58499561728651 8.100000004050782
  endloop
endfacet
facet normal 1.0758854663856407e-13 -0.9659258262890568 0.25881904510256365
  outer loop
    vertex -175.112792173274 -124.68040330367751 7.375306677763737
    vertex -172.11279217327396 -124.58499561728651 8.100000004050782
    vertex -175.11279217327393 -124.58499561728685 8.100000004050782
  endloop
endfacet
facet normal 1.1138385961984459e-13 -1.0 4.795823319174707e-14
  outer loop
    vertex -172.11279217327396 -124.58499561728651 8.100000004050782
    vertex -175.112792173274 -124.68040330367751 7.375306677763737
    vertex -172.112792173274 -124.68040330367717 7.375306677763737
  endloop
endfacet
facet normal 9.64612520023452e-14 -0.8660254037844153 0.5000000000000406
  outer loop
    vertex -175.11279217327393 -124.96012448669048 6.700000004050802
    vertex -172.112792173274 -124.68040330367717 7.375306677763737
    vertex -175.112792173274 -124.68040330367751 7.375306677763737
  endloop
endfacet
facet normal 1.0758854663856423e-13 -0.9659258262890582 0.2588190451025587
  outer loop
    vertex -172.112792173274 -124.68040330367717 7.375306677763737
    vertex -175.11279217327393 -124.96012448669048 6.700000004050802
    vertex -172.11279217327396 -124.96012448669013 6.700000004050802
  endloop
endfacet
facet normal 7.87602824519228e-14 -0.7071067811865157 0.7071067811865794
  outer loop
    vertex -175.11279217327385 -125.4050966299646 6.120101016728508
    vertex -172.11279217327396 -124.96012448669013 6.700000004050802
    vertex -175.11279217327393 -124.96012448669048 6.700000004050802
  endloop
endfacet
facet normal 9.646125200234494e-14 -0.8660254037844128 0.500000000000045
  outer loop
    vertex -172.11279217327396 -124.96012448669013 6.700000004050802
    vertex -175.11279217327385 -125.4050966299646 6.120101016728508
    vertex -172.11279217327385 -125.40509662996426 6.120101016728508
  endloop
endfacet
facet normal 7.87602824519228e-14 -0.7071067811865157 0.7071067811865794
  outer loop
    vertex -175.11279217327385 -125.4050966299646 6.120101016728508
    vertex -172.11279217327385 -125.98499561728661 5.675128873454415
    vertex -172.11279217327385 -125.40509662996426 6.120101016728508
  endloop
endfacet
facet normal 5.569192980992433e-14 -0.4999999999999768 0.866025403784452
  outer loop
    vertex -172.11279217327385 -125.98499561728661 5.675128873454415
    vertex -175.11279217327385 -125.4050966299646 6.120101016728508
    vertex -175.11279217327382 -125.98499561728696 5.675128873454415
  endloop
endfacet
facet normal 5.569192980992384e-14 -0.49999999999997236 0.8660254037844546
  outer loop
    vertex -175.11279217327382 -125.98499561728696 5.675128873454415
    vertex -172.11279217327376 -126.66030229099958 5.395407690441475
    vertex -172.11279217327385 -125.98499561728661 5.675128873454415
  endloop
endfacet
facet normal 2.882826418664062e-14 -0.25881904510246745 0.9659258262890826
  outer loop
    vertex -172.11279217327376 -126.66030229099958 5.395407690441475
    vertex -175.11279217327382 -125.98499561728696 5.675128873454415
    vertex -175.11279217327376 -126.66030229099992 5.395407690441475
  endloop
endfacet
facet normal 2.8828264186640904e-14 -0.25881904510247 0.965925826289082
  outer loop
    vertex -175.11279217327376 -126.66030229099992 5.395407690441475
    vertex -172.11279217327368 -127.38499561728663 5.30000000405092
    vertex -172.11279217327376 -126.66030229099958 5.395407690441475
  endloop
endfacet
facet normal 3.01912209935174e-30 4.795823319174708e-14 1.0
  outer loop
    vertex -172.11279217327368 -127.38499561728663 5.30000000405092
    vertex -175.11279217327376 -126.66030229099992 5.395407690441475
    vertex -175.11279217327362 -127.38499561728698 5.30000000405092
  endloop
endfacet
facet normal 3.0191220993517395e-30 4.795823319174707e-14 1.0
  outer loop
    vertex -175.11279217327362 -127.38499561728698 5.30000000405092
    vertex -172.11279217327362 -128.1096889435737 5.395407690441543
    vertex -172.11279217327368 -127.38499561728663 5.30000000405092
  endloop
endfacet
facet normal -2.882826418664062e-14 0.25881904510256015 0.9659258262890578
  outer loop
    vertex -172.11279217327362 -128.1096889435737 5.395407690441543
    vertex -175.11279217327362 -127.38499561728698 5.30000000405092
    vertex -175.1127921732736 -128.109688943574 5.395407690441543
  endloop
endfacet
facet normal -2.8828264186640904e-14 0.2588190451025627 0.9659258262890571
  outer loop
    vertex -175.1127921732736 -128.109688943574 5.395407690441543
    vertex -172.1127921732735 -128.78499561728663 5.67512887345455
    vertex -172.11279217327362 -128.1096889435737 5.395407690441543
  endloop
endfacet
facet normal -5.569192980992433e-14 0.5000000000000598 0.8660254037844041
  outer loop
    vertex -172.1127921732735 -128.78499561728663 5.67512887345455
    vertex -175.1127921732736 -128.109688943574 5.395407690441543
    vertex -175.1127921732735 -128.78499561728694 5.67512887345455
  endloop
endfacet
facet normal -5.569192980992433e-14 0.5000000000000598 0.8660254037844041
  outer loop
    vertex -172.1127921732735 -128.78499561728663 5.67512887345455
    vertex -175.11279217327342 -129.36489460460928 6.1201010167287
    vertex -172.11279217327342 -129.36489460460893 6.1201010167287
  endloop
endfacet
facet normal -7.87602824519228e-14 0.7071067811865834 0.7071067811865117
  outer loop
    vertex -175.11279217327342 -129.36489460460928 6.1201010167287
    vertex -172.1127921732735 -128.78499561728663 5.67512887345455
    vertex -175.1127921732735 -128.78499561728694 5.67512887345455
  endloop
endfacet
facet normal -7.876028245192281e-14 0.7071067811865835 0.7071067811865116
  outer loop
    vertex -172.11279217327342 -129.36489460460893 6.1201010167287
    vertex -175.1127921732734 -129.80986674788335 6.7000000040510335
    vertex -172.1127921732734 -129.809866747883 6.7000000040510335
  endloop
endfacet
facet normal -9.64612520023452e-14 0.8660254037844632 0.49999999999995753
  outer loop
    vertex -175.1127921732734 -129.80986674788335 6.7000000040510335
    vertex -172.11279217327342 -129.36489460460893 6.1201010167287
    vertex -175.11279217327342 -129.36489460460928 6.1201010167287
  endloop
endfacet
facet normal -9.646125200234494e-14 0.8660254037844608 0.4999999999999619
  outer loop
    vertex -172.1127921732734 -129.809866747883 6.7000000040510335
    vertex -175.11279217327336 -130.08958793089627 7.375306677763996
    vertex -172.1127921732734 -130.08958793089593 7.375306677763996
  endloop
endfacet
facet normal -1.0758854663856407e-13 0.9659258262890816 0.25881904510247095
  outer loop
    vertex -175.11279217327336 -130.08958793089627 7.375306677763996
    vertex -172.1127921732734 -129.809866747883 6.7000000040510335
    vertex -175.1127921732734 -129.80986674788335 6.7000000040510335
  endloop
endfacet
facet normal -1.0758854663856423e-13 0.9659258262890831 0.258819045102466
  outer loop
    vertex -172.1127921732734 -130.08958793089593 7.375306677763996
    vertex -175.11279217327333 -130.18499561728683 8.10000000405105
    vertex -172.11279217327333 -130.1849956172865 8.10000000405105
  endloop
endfacet
facet normal -1.1138385961984459e-13 1.0 -4.795823319174707e-14
  outer loop
    vertex -175.11279217327333 -130.18499561728683 8.10000000405105
    vertex -172.1127921732734 -130.08958793089593 7.375306677763996
    vertex -175.11279217327336 -130.08958793089627 7.375306677763996
  endloop
endfacet
facet normal -1.1138385961984459e-13 1.0 -4.795823319174707e-14
  outer loop
    vertex -172.11279217327333 -130.1849956172865 8.10000000405105
    vertex -175.11279217327336 -130.08958793089622 8.824693330338096
    vertex -172.1127921732734 -130.08958793089587 8.824693330338096
  endloop
endfacet
facet normal -1.0758854663856407e-13 0.9659258262890568 -0.25881904510256365
  outer loop
    vertex -175.11279217327336 -130.08958793089622 8.824693330338096
    vertex -172.11279217327333 -130.1849956172865 8.10000000405105
    vertex -175.11279217327333 -130.18499561728683 8.10000000405105
  endloop
endfacet
facet normal -1.1138385961984459e-13 1.0 -4.795823319174707e-14
  outer loop
    vertex -175.1127921732729 -134.3849956172871 3.000000004051237
    vertex -185.3127921732729 -134.3849956172882 3.0000000040512402
    vertex -175.1127921732729 -134.3849956172866 13.200000004051219
  endloop
endfacet
facet normal -0.7071067811865474 -4.4848690548312434e-14 0.7071067811865477
  outer loop
    vertex -185.3127921732729 -134.3849956172882 3.0000000040512402
    vertex -175.11279217327257 -137.3849956172866 13.200000004051363
    vertex -175.1127921732729 -134.3849956172866 13.200000004051219
  endloop
endfacet
facet normal -0.7071067811865474 -4.4848690548312434e-14 0.7071067811865477
  outer loop
    vertex -175.11279217327257 -137.3849956172866 13.200000004051363
    vertex -185.3127921732729 -134.3849956172882 3.0000000040512402
    vertex -185.31279217327256 -137.3849956172882 3.000000004051384
  endloop
endfacet
facet normal 1.1138385961984459e-13 -1.0 4.795823319174707e-14
  outer loop
    vertex -175.11279217327447 -120.38499561728707 3.000000004050566
    vertex -175.11279217327447 -120.38499561728658 13.200000004050548
    vertex -185.31279217327443 -120.38499561728821 3.0000000040505688
  endloop
endfacet
facet normal -0.7071067811865474 -4.4848690548312434e-14 0.7071067811865477
  outer loop
    vertex -185.31279217327477 -117.38499561728821 3.0000000040504253
    vertex -175.11279217327447 -120.38499561728658 13.200000004050548
    vertex -175.11279217327478 -117.38499561728659 13.200000004050404
  endloop
endfacet
facet normal -0.7071067811865474 -4.4848690548312434e-14 0.7071067811865477
  outer loop
    vertex -175.11279217327447 -120.38499561728658 13.200000004050548
    vertex -185.31279217327477 -117.38499561728821 3.0000000040504253
    vertex -185.31279217327443 -120.38499561728821 3.0000000040505688
  endloop
endfacet
endsolid Much4
