solid Much4
facet normal -6.123505895305855e-15 -1.0 0.0
  outer loop
    vertex -144.47423181573353 -215.52984035979256 3.0000000040515666
    vertex -124.47423181573352 -215.5298403597927 4.051572920216184e-09
    vertex -124.47423181573352 -215.5298403597927 3.0000000040515666
  endloop
endfacet
facet normal -6.123505895305855e-15 -1.0 0.0
  outer loop
    vertex -124.47423181573352 -215.5298403597927 4.051572920216184e-09
    vertex -144.47423181573353 -215.52984035979256 3.0000000040515666
    vertex -144.47423181573353 -215.52984035979256 4.051572038976658e-09
  endloop
endfacet
facet normal 6.123505895305855e-15 1.0 0.0
  outer loop
    vertex -169.27423238517852 -195.52984035979242 4.051572038976658e-09
    vertex -124.4742318157334 -195.5298403597927 3.0000000040515666
    vertex -124.4742318157334 -195.5298403597927 4.051572920216184e-09
  endloop
endfacet
facet normal 6.123505895305855e-15 1.0 0.0
  outer loop
    vertex -124.4742318157334 -195.5298403597927 3.0000000040515666
    vertex -169.27423238517852 -195.52984035979242 4.051572038976658e-09
    vertex -169.27423238517852 -195.52984035979242 3.0000000040515666
  endloop
endfacet
facet normal -1.0 6.123505895305855e-15 0.0
  outer loop
    vertex -169.27423238517858 -205.5298403597924 3.0000000040515666
    vertex -169.27423238517852 -195.52984035979242 4.051572038976658e-09
    vertex -169.27423238517858 -205.5298403597924 4.051572038976658e-09
  endloop
endfacet
facet normal -1.0 6.123505895305855e-15 0.0
  outer loop
    vertex -169.27423238517852 -195.52984035979242 4.051572038976658e-09
    vertex -169.27423238517858 -205.5298403597924 3.0000000040515666
    vertex -169.27423238517852 -195.52984035979242 3.0000000040515666
  endloop
endfacet
facet normal 0.0 0.0 1.0
  outer loop
    vertex -124.47423181573352 -215.5298403597927 3.0000000040515666
    vertex -133.0742318157335 -207.9547114903891 3.0000000040515666
    vertex -144.47423181573353 -215.52984035979256 3.0000000040515666
  endloop
endfacet
facet normal 0.0 0.0 1.0
  outer loop
    vertex -133.0742318157335 -207.9547114903891 3.0000000040515666
    vertex -124.47423181573352 -215.5298403597927 3.0000000040515666
    vertex -132.49433282841113 -207.50973934711502 3.0000000040515666
  endloop
endfacet
facet normal 0.0 0.0 1.0
  outer loop
    vertex -132.49433282841113 -207.50973934711502 3.0000000040515666
    vertex -124.47423181573352 -215.5298403597927 3.0000000040515666
    vertex -132.04936068513706 -206.92984035979268 3.0000000040515666
  endloop
endfacet
facet normal 0.0 0.0 1.0
  outer loop
    vertex -132.04936068513706 -206.92984035979268 3.0000000040515666
    vertex -124.47423181573352 -215.5298403597927 3.0000000040515666
    vertex -124.4742318157334 -195.5298403597927 3.0000000040515666
  endloop
endfacet
facet normal 0.0 0.0 1.0
  outer loop
    vertex -144.47423181573353 -215.52984035979256 3.0000000040515666
    vertex -133.0742318157335 -207.9547114903891 3.0000000040515666
    vertex -133.74953848944645 -208.23443267340207 3.0000000040515666
  endloop
endfacet
facet normal 0.0 0.0 1.0
  outer loop
    vertex -144.47423181573353 -215.52984035979256 3.0000000040515666
    vertex -133.74953848944645 -208.23443267340207 3.0000000040515666
    vertex -134.4742318157335 -208.32984035979266 3.0000000040515666
  endloop
endfacet
facet normal 0.0 0.0 1.0
  outer loop
    vertex -132.04936068513706 -206.92984035979268 3.0000000040515666
    vertex -124.4742318157334 -195.5298403597927 3.0000000040515666
    vertex -131.76963950212408 -206.25453368607972 3.0000000040515666
  endloop
endfacet
facet normal 0.0 0.0 1.0
  outer loop
    vertex -131.76963950212408 -206.25453368607972 3.0000000040515666
    vertex -124.4742318157334 -195.5298403597927 3.0000000040515666
    vertex -131.6742318157335 -205.52984035979267 3.0000000040515666
  endloop
endfacet
facet normal 0.0 0.0 1.0
  outer loop
    vertex -131.6742318157335 -205.52984035979267 3.0000000040515666
    vertex -124.4742318157334 -195.5298403597927 3.0000000040515666
    vertex -131.76963950212408 -204.80514703350562 3.0000000040515666
  endloop
endfacet
facet normal 0.0 0.0 1.0
  outer loop
    vertex -131.76963950212408 -204.80514703350562 3.0000000040515666
    vertex -124.4742318157334 -195.5298403597927 3.0000000040515666
    vertex -132.04936068513703 -204.12984035979267 3.0000000040515666
  endloop
endfacet
facet normal 0.0 0.0 1.0
  outer loop
    vertex -132.04936068513703 -204.12984035979267 3.0000000040515666
    vertex -124.4742318157334 -195.5298403597927 3.0000000040515666
    vertex -132.49433282841116 -203.54994137247036 3.0000000040515666
  endloop
endfacet
facet normal 0.0 0.0 1.0
  outer loop
    vertex -132.49433282841116 -203.54994137247036 3.0000000040515666
    vertex -124.4742318157334 -195.5298403597927 3.0000000040515666
    vertex -133.07423181573347 -203.10496922919623 3.0000000040515666
  endloop
endfacet
facet normal 0.0 0.0 1.0
  outer loop
    vertex -133.07423181573347 -203.10496922919623 3.0000000040515666
    vertex -124.4742318157334 -195.5298403597927 3.0000000040515666
    vertex -133.74953848944642 -202.82524804618328 3.0000000040515666
  endloop
endfacet
facet normal 0.0 0.0 1.0
  outer loop
    vertex -133.74953848944642 -202.82524804618328 3.0000000040515666
    vertex -124.4742318157334 -195.5298403597927 3.0000000040515666
    vertex -134.47423181573345 -202.72984035979266 3.0000000040515666
  endloop
endfacet
facet normal 0.0 0.0 1.0
  outer loop
    vertex -134.47423181573345 -202.72984035979266 3.0000000040515666
    vertex -124.4742318157334 -195.5298403597927 3.0000000040515666
    vertex -152.7742323851786 -202.67984035979265 3.0000000040520742
  endloop
endfacet
facet normal 0.0 0.0 1.0
  outer loop
    vertex -152.7742323851786 -202.67984035979265 3.0000000040520742
    vertex -124.4742318157334 -195.5298403597927 3.0000000040515666
    vertex -152.8355658978583 -202.21396607860814 3.0000000040520742
  endloop
endfacet
facet normal 0.0 0.0 1.0
  outer loop
    vertex -152.8355658978583 -202.21396607860814 3.0000000040520742
    vertex -124.4742318157334 -195.5298403597927 3.0000000040515666
    vertex -153.01538665836662 -201.77984035979267 3.0000000040520742
  endloop
endfacet
facet normal 0.0 0.0 1.0
  outer loop
    vertex -153.01538665836662 -201.77984035979267 3.0000000040520742
    vertex -124.4742318157334 -195.5298403597927 3.0000000040515666
    vertex -153.30144017904286 -201.4070481536569 3.0000000040520742
  endloop
endfacet
facet normal 0.0 0.0 1.0
  outer loop
    vertex -153.30144017904286 -201.4070481536569 3.0000000040520742
    vertex -124.4742318157334 -195.5298403597927 3.0000000040515666
    vertex -153.67423238517864 -201.12099463298068 3.0000000040520742
  endloop
endfacet
facet normal 0.0 0.0 1.0
  outer loop
    vertex -153.67423238517864 -201.12099463298068 3.0000000040520742
    vertex -124.4742318157334 -195.5298403597927 3.0000000040515666
    vertex -154.1083581039941 -200.94117387247238 3.0000000040520742
  endloop
endfacet
facet normal 0.0 0.0 1.0
  outer loop
    vertex -154.1083581039941 -200.94117387247238 3.0000000040520742
    vertex -124.4742318157334 -195.5298403597927 3.0000000040515666
    vertex -154.57423238517865 -200.87984035979267 3.0000000040520742
  endloop
endfacet
facet normal 0.0 0.0 1.0
  outer loop
    vertex -154.57423238517865 -200.87984035979267 3.0000000040520742
    vertex -124.4742318157334 -195.5298403597927 3.0000000040515666
    vertex -164.07423238517856 -200.8798403597925 3.000000004051747
  endloop
endfacet
facet normal 0.0 0.0 1.0
  outer loop
    vertex -134.4742318157335 -208.32984035979266 3.0000000040515666
    vertex -169.27423238517858 -205.5298403597924 3.0000000040515666
    vertex -144.47423181573353 -215.52984035979256 3.0000000040515666
  endloop
endfacet
facet normal 0.0 0.0 1.0
  outer loop
    vertex -169.27423238517858 -205.5298403597924 3.0000000040515666
    vertex -134.4742318157335 -208.32984035979266 3.0000000040515666
    vertex -135.19892514202056 -208.23443267340207 3.0000000040515666
  endloop
endfacet
facet normal 0.0 0.0 1.0
  outer loop
    vertex -169.27423238517858 -205.5298403597924 3.0000000040515666
    vertex -135.19892514202056 -208.23443267340207 3.0000000040515666
    vertex -135.8742318157335 -207.95471149038906 3.0000000040515666
  endloop
endfacet
facet normal 0.0 0.0 1.0
  outer loop
    vertex -169.27423238517858 -205.5298403597924 3.0000000040515666
    vertex -135.8742318157335 -207.95471149038906 3.0000000040515666
    vertex -136.45413080305582 -207.509739347115 3.0000000040515666
  endloop
endfacet
facet normal 0.0 0.0 1.0
  outer loop
    vertex -169.27423238517858 -205.5298403597924 3.0000000040515666
    vertex -136.45413080305582 -207.509739347115 3.0000000040515666
    vertex -136.89910294632992 -206.92984035979268 3.0000000040515666
  endloop
endfacet
facet normal 0.0 0.0 1.0
  outer loop
    vertex -169.27423238517858 -205.5298403597924 3.0000000040515666
    vertex -136.89910294632992 -206.92984035979268 3.0000000040515666
    vertex -137.1788241293429 -206.25453368607972 3.0000000040515666
  endloop
endfacet
facet normal 0.0 0.0 1.0
  outer loop
    vertex -169.27423238517858 -205.5298403597924 3.0000000040515666
    vertex -137.1788241293429 -206.25453368607972 3.0000000040515666
    vertex -137.27423181573346 -205.52984035979262 3.0000000040515666
  endloop
endfacet
facet normal 0.0 0.0 1.0
  outer loop
    vertex -169.27423238517858 -205.5298403597924 3.0000000040515666
    vertex -137.27423181573346 -205.52984035979262 3.0000000040515666
    vertex -137.17882412934287 -204.80514703350556 3.0000000040515666
  endloop
endfacet
facet normal 0.0 0.0 1.0
  outer loop
    vertex -169.27423238517858 -205.5298403597924 3.0000000040515666
    vertex -137.17882412934287 -204.80514703350556 3.0000000040515666
    vertex -164.07423238517868 -204.47984035979255 3.000000004051747
  endloop
endfacet
facet normal 0.0 0.0 1.0
  outer loop
    vertex -169.27423238517858 -205.5298403597924 3.0000000040515666
    vertex -164.07423238517868 -204.47984035979255 3.000000004051747
    vertex -164.5401066663632 -204.41850684711284 3.000000004051747
  endloop
endfacet
facet normal 0.0 0.0 1.0
  outer loop
    vertex -169.27423238517858 -205.5298403597924 3.0000000040515666
    vertex -164.5401066663632 -204.41850684711284 3.000000004051747
    vertex -164.97423238517865 -204.2386860866045 3.000000004051747
  endloop
endfacet
facet normal 0.0 0.0 1.0
  outer loop
    vertex -169.27423238517858 -205.5298403597924 3.0000000040515666
    vertex -164.97423238517865 -204.2386860866045 3.000000004051747
    vertex -165.34702459131444 -203.95263256592827 3.000000004051747
  endloop
endfacet
facet normal 0.0 0.0 1.0
  outer loop
    vertex -169.27423238517858 -205.5298403597924 3.0000000040515666
    vertex -165.34702459131444 -203.95263256592827 3.000000004051747
    vertex -165.63307811199067 -203.57984035979248 3.000000004051747
  endloop
endfacet
facet normal 0.0 0.0 1.0
  outer loop
    vertex -169.27423238517858 -205.5298403597924 3.0000000040515666
    vertex -165.63307811199067 -203.57984035979248 3.000000004051747
    vertex -169.27423238517852 -195.52984035979242 3.0000000040515666
  endloop
endfacet
facet normal 0.0 0.0 1.0
  outer loop
    vertex -164.07423238517868 -204.47984035979255 3.000000004051747
    vertex -137.17882412934287 -204.80514703350556 3.0000000040515666
    vertex -154.5742323851786 -204.4798403597927 3.0000000040520742
  endloop
endfacet
facet normal 0.0 0.0 1.0
  outer loop
    vertex -169.27423238517852 -195.52984035979242 3.0000000040515666
    vertex -165.63307811199067 -203.57984035979248 3.000000004051747
    vertex -165.81289887249895 -203.14571464097702 3.000000004051747
  endloop
endfacet
facet normal 0.0 0.0 1.0
  outer loop
    vertex -169.27423238517852 -195.52984035979242 3.0000000040515666
    vertex -165.81289887249895 -203.14571464097702 3.000000004051747
    vertex -165.8742323851786 -202.67984035979245 3.000000004051747
  endloop
endfacet
facet normal 0.0 0.0 1.0
  outer loop
    vertex -169.27423238517852 -195.52984035979242 3.0000000040515666
    vertex -165.8742323851786 -202.67984035979245 3.000000004051747
    vertex -165.81289887249895 -202.21396607860794 3.000000004051747
  endloop
endfacet
facet normal 0.0 0.0 1.0
  outer loop
    vertex -169.27423238517852 -195.52984035979242 3.0000000040515666
    vertex -165.81289887249895 -202.21396607860794 3.000000004051747
    vertex -165.6330781119906 -201.77984035979247 3.000000004051747
  endloop
endfacet
facet normal 0.0 0.0 1.0
  outer loop
    vertex -169.27423238517852 -195.52984035979242 3.0000000040515666
    vertex -165.6330781119906 -201.77984035979247 3.000000004051747
    vertex -165.34702459131438 -201.4070481536567 3.000000004051747
  endloop
endfacet
facet normal 0.0 0.0 1.0
  outer loop
    vertex -169.27423238517852 -195.52984035979242 3.0000000040515666
    vertex -165.34702459131438 -201.4070481536567 3.000000004051747
    vertex -164.9742323851786 -201.1209946329805 3.000000004051747
  endloop
endfacet
facet normal 0.0 0.0 1.0
  outer loop
    vertex -169.27423238517852 -195.52984035979242 3.0000000040515666
    vertex -164.9742323851786 -201.1209946329805 3.000000004051747
    vertex -164.54010666636313 -200.94117387247218 3.000000004051747
  endloop
endfacet
facet normal 0.0 0.0 1.0
  outer loop
    vertex -169.27423238517852 -195.52984035979242 3.0000000040515666
    vertex -164.54010666636313 -200.94117387247218 3.000000004051747
    vertex -164.07423238517856 -200.8798403597925 3.000000004051747
  endloop
endfacet
facet normal 0.0 0.0 1.0
  outer loop
    vertex -169.27423238517852 -195.52984035979242 3.0000000040515666
    vertex -164.07423238517856 -200.8798403597925 3.000000004051747
    vertex -124.4742318157334 -195.5298403597927 3.0000000040515666
  endloop
endfacet
facet normal 0.0 0.0 1.0
  outer loop
    vertex -155.04010666636316 -204.418506847113 3.0000000040520742
    vertex -164.07423238517868 -204.47984035979255 3.000000004051747
    vertex -154.5742323851786 -204.4798403597927 3.0000000040520742
  endloop
endfacet
facet normal 0.0 0.0 1.0
  outer loop
    vertex -164.07423238517868 -204.47984035979255 3.000000004051747
    vertex -155.04010666636316 -204.418506847113 3.0000000040520742
    vertex -163.60835810399414 -204.41850684711284 3.000000004051747
  endloop
endfacet
facet normal 0.0 0.0 1.0
  outer loop
    vertex -163.60835810399414 -204.41850684711284 3.000000004051747
    vertex -155.04010666636316 -204.418506847113 3.0000000040520742
    vertex -155.4742323851786 -204.23868608660467 3.0000000040520742
  endloop
endfacet
facet normal 0.0 0.0 1.0
  outer loop
    vertex -163.60835810399414 -204.41850684711284 3.000000004051747
    vertex -155.4742323851786 -204.23868608660467 3.0000000040520742
    vertex -163.17423238517867 -204.2386860866045 3.000000004051747
  endloop
endfacet
facet normal 0.0 0.0 1.0
  outer loop
    vertex -163.17423238517867 -204.2386860866045 3.000000004051747
    vertex -155.4742323851786 -204.23868608660467 3.0000000040520742
    vertex -155.8470245913144 -203.9526325659285 3.0000000040520742
  endloop
endfacet
facet normal 0.0 0.0 1.0
  outer loop
    vertex -163.17423238517867 -204.2386860866045 3.000000004051747
    vertex -155.8470245913144 -203.9526325659285 3.0000000040520742
    vertex -162.80144017904288 -203.9526325659283 3.000000004051747
  endloop
endfacet
facet normal 0.0 0.0 1.0
  outer loop
    vertex -162.80144017904288 -203.9526325659283 3.000000004051747
    vertex -155.8470245913144 -203.9526325659285 3.0000000040520742
    vertex -156.13307811199064 -203.5798403597927 3.0000000040520742
  endloop
endfacet
facet normal 0.0 0.0 1.0
  outer loop
    vertex -162.80144017904288 -203.9526325659283 3.000000004051747
    vertex -156.13307811199064 -203.5798403597927 3.0000000040520742
    vertex -162.51538665836665 -203.5798403597925 3.000000004051747
  endloop
endfacet
facet normal 0.0 0.0 1.0
  outer loop
    vertex -162.51538665836665 -203.5798403597925 3.000000004051747
    vertex -156.13307811199064 -203.5798403597927 3.0000000040520742
    vertex -156.31289887249895 -203.14571464097722 3.0000000040520742
  endloop
endfacet
facet normal 0.0 0.0 1.0
  outer loop
    vertex -162.51538665836665 -203.5798403597925 3.000000004051747
    vertex -156.31289887249895 -203.14571464097722 3.0000000040520742
    vertex -162.33556589785832 -203.14571464097708 3.000000004051747
  endloop
endfacet
facet normal 0.0 0.0 1.0
  outer loop
    vertex -162.33556589785832 -203.14571464097708 3.000000004051747
    vertex -156.31289887249895 -203.14571464097722 3.0000000040520742
    vertex -156.3742323851786 -202.6798403597927 3.0000000040520742
  endloop
endfacet
facet normal 0.0 0.0 1.0
  outer loop
    vertex -162.33556589785832 -203.14571464097708 3.000000004051747
    vertex -156.3742323851786 -202.6798403597927 3.0000000040520742
    vertex -162.2742323851786 -202.67984035979256 3.000000004051747
  endloop
endfacet
facet normal 0.0 0.0 1.0
  outer loop
    vertex -162.2742323851786 -202.67984035979256 3.000000004051747
    vertex -156.3742323851786 -202.6798403597927 3.0000000040520742
    vertex -156.31289887249892 -202.21396607860814 3.0000000040520742
  endloop
endfacet
facet normal 0.0 0.0 1.0
  outer loop
    vertex -162.2742323851786 -202.67984035979256 3.000000004051747
    vertex -156.31289887249892 -202.21396607860814 3.0000000040520742
    vertex -162.3355658978583 -202.21396607860802 3.000000004051747
  endloop
endfacet
facet normal 0.0 0.0 1.0
  outer loop
    vertex -162.3355658978583 -202.21396607860802 3.000000004051747
    vertex -156.31289887249892 -202.21396607860814 3.0000000040520742
    vertex -156.13307811199064 -201.7798403597927 3.0000000040520742
  endloop
endfacet
facet normal 0.0 0.0 1.0
  outer loop
    vertex -162.3355658978583 -202.21396607860802 3.000000004051747
    vertex -156.13307811199064 -201.7798403597927 3.0000000040520742
    vertex -162.51538665836657 -201.77984035979256 3.000000004051747
  endloop
endfacet
facet normal 0.0 0.0 1.0
  outer loop
    vertex -162.51538665836657 -201.77984035979256 3.000000004051747
    vertex -156.13307811199064 -201.7798403597927 3.0000000040520742
    vertex -155.8470245913144 -201.40704815365692 3.0000000040520742
  endloop
endfacet
facet normal 0.0 0.0 1.0
  outer loop
    vertex -162.51538665836657 -201.77984035979256 3.000000004051747
    vertex -155.8470245913144 -201.40704815365692 3.0000000040520742
    vertex -162.8014401790428 -201.40704815365677 3.000000004051747
  endloop
endfacet
facet normal 0.0 0.0 1.0
  outer loop
    vertex -162.8014401790428 -201.40704815365677 3.000000004051747
    vertex -155.8470245913144 -201.40704815365692 3.0000000040520742
    vertex -155.47423238517862 -201.1209946329807 3.0000000040520742
  endloop
endfacet
facet normal 0.0 0.0 1.0
  outer loop
    vertex -162.8014401790428 -201.40704815365677 3.000000004051747
    vertex -155.47423238517862 -201.1209946329807 3.0000000040520742
    vertex -163.17423238517858 -201.12099463298054 3.000000004051747
  endloop
endfacet
facet normal 0.0 0.0 1.0
  outer loop
    vertex -163.17423238517858 -201.12099463298054 3.000000004051747
    vertex -155.47423238517862 -201.1209946329807 3.0000000040520742
    vertex -155.04010666636316 -200.94117387247238 3.0000000040520742
  endloop
endfacet
facet normal 0.0 0.0 1.0
  outer loop
    vertex -163.17423238517858 -201.12099463298054 3.000000004051747
    vertex -155.04010666636316 -200.94117387247238 3.0000000040520742
    vertex -163.60835810399405 -200.94117387247218 3.000000004051747
  endloop
endfacet
facet normal 0.0 0.0 1.0
  outer loop
    vertex -163.60835810399405 -200.94117387247218 3.000000004051747
    vertex -155.04010666636316 -200.94117387247238 3.0000000040520742
    vertex -154.57423238517865 -200.87984035979267 3.0000000040520742
  endloop
endfacet
facet normal 0.0 0.0 1.0
  outer loop
    vertex -163.60835810399405 -200.94117387247218 3.000000004051747
    vertex -154.57423238517865 -200.87984035979267 3.0000000040520742
    vertex -164.07423238517856 -200.8798403597925 3.000000004051747
  endloop
endfacet
facet normal 0.0 0.0 1.0
  outer loop
    vertex -136.89910294632992 -204.12984035979264 3.0000000040515666
    vertex -154.5742323851786 -204.4798403597927 3.0000000040520742
    vertex -137.17882412934287 -204.80514703350556 3.0000000040515666
  endloop
endfacet
facet normal 0.0 0.0 1.0
  outer loop
    vertex -154.5742323851786 -204.4798403597927 3.0000000040520742
    vertex -136.89910294632992 -204.12984035979264 3.0000000040515666
    vertex -154.10835810399408 -204.418506847113 3.0000000040520742
  endloop
endfacet
facet normal 0.0 0.0 1.0
  outer loop
    vertex -154.10835810399408 -204.418506847113 3.0000000040520742
    vertex -136.89910294632992 -204.12984035979264 3.0000000040515666
    vertex -153.6742323851786 -204.23868608660467 3.0000000040520742
  endloop
endfacet
facet normal 0.0 0.0 1.0
  outer loop
    vertex -153.6742323851786 -204.23868608660467 3.0000000040520742
    vertex -136.89910294632992 -204.12984035979264 3.0000000040515666
    vertex -153.30144017904283 -203.95263256592844 3.0000000040520742
  endloop
endfacet
facet normal 0.0 0.0 1.0
  outer loop
    vertex -153.30144017904283 -203.95263256592844 3.0000000040520742
    vertex -136.89910294632992 -204.12984035979264 3.0000000040515666
    vertex -136.45413080305582 -203.5499413724703 3.0000000040515666
  endloop
endfacet
facet normal 0.0 0.0 1.0
  outer loop
    vertex -153.30144017904283 -203.95263256592844 3.0000000040520742
    vertex -136.45413080305582 -203.5499413724703 3.0000000040515666
    vertex -153.0153866583666 -203.57984035979266 3.0000000040520742
  endloop
endfacet
facet normal 0.0 0.0 1.0
  outer loop
    vertex -153.0153866583666 -203.57984035979266 3.0000000040520742
    vertex -136.45413080305582 -203.5499413724703 3.0000000040515666
    vertex -152.83556589785832 -203.1457146409772 3.0000000040520742
  endloop
endfacet
facet normal 0.0 0.0 1.0
  outer loop
    vertex -152.83556589785832 -203.1457146409772 3.0000000040520742
    vertex -136.45413080305582 -203.5499413724703 3.0000000040515666
    vertex -135.87423181573348 -203.10496922919623 3.0000000040515666
  endloop
endfacet
facet normal 0.0 0.0 1.0
  outer loop
    vertex -152.83556589785832 -203.1457146409772 3.0000000040520742
    vertex -135.87423181573348 -203.10496922919623 3.0000000040515666
    vertex -152.7742323851786 -202.67984035979265 3.0000000040520742
  endloop
endfacet
facet normal 0.0 0.0 1.0
  outer loop
    vertex -152.7742323851786 -202.67984035979265 3.0000000040520742
    vertex -135.87423181573348 -203.10496922919623 3.0000000040515666
    vertex -135.19892514202053 -202.82524804618328 3.0000000040515666
  endloop
endfacet
facet normal 0.0 0.0 1.0
  outer loop
    vertex -152.7742323851786 -202.67984035979265 3.0000000040520742
    vertex -135.19892514202053 -202.82524804618328 3.0000000040515666
    vertex -134.47423181573345 -202.72984035979266 3.0000000040515666
  endloop
endfacet
facet normal 0.4999999999999832 -0.8660254037844485 0.0
  outer loop
    vertex -135.87423181573348 -203.10496922919623 3.0000000040515666
    vertex -135.19892514202053 -202.82524804618328 4.051572038976658e-09
    vertex -135.19892514202053 -202.82524804618328 3.0000000040515666
  endloop
endfacet
facet normal 0.2588190451025158 -0.9659258262890698 0.0
  outer loop
    vertex -135.19892514202053 -202.82524804618328 4.051572038976658e-09
    vertex -135.87423181573348 -203.10496922919623 3.0000000040515666
    vertex -135.87423181573348 -203.10496922919623 4.051572038976658e-09
  endloop
endfacet
facet normal 0.2588190451025158 -0.9659258262890698 0.0
  outer loop
    vertex -135.19892514202053 -202.82524804618328 3.0000000040515666
    vertex -134.47423181573345 -202.72984035979266 4.051572038976658e-09
    vertex -134.47423181573345 -202.72984035979266 3.0000000040515666
  endloop
endfacet
facet normal -2.300639750073332e-15 -1.0 0.0
  outer loop
    vertex -134.47423181573345 -202.72984035979266 4.051572038976658e-09
    vertex -135.19892514202053 -202.82524804618328 3.0000000040515666
    vertex -135.19892514202053 -202.82524804618328 4.051572038976658e-09
  endloop
endfacet
facet normal -2.300639750073332e-15 -1.0 0.0
  outer loop
    vertex -134.47423181573345 -202.72984035979266 3.0000000040515666
    vertex -133.74953848944642 -202.82524804618328 4.051572038976658e-09
    vertex -133.74953848944642 -202.82524804618328 3.0000000040515666
  endloop
endfacet
facet normal -0.25881904510252396 -0.9659258262890676 0.0
  outer loop
    vertex -133.74953848944642 -202.82524804618328 4.051572038976658e-09
    vertex -134.47423181573345 -202.72984035979266 3.0000000040515666
    vertex -134.47423181573345 -202.72984035979266 4.051572038976658e-09
  endloop
endfacet
facet normal -0.25881904510252396 -0.9659258262890676 0.0
  outer loop
    vertex -133.74953848944642 -202.82524804618328 3.0000000040515666
    vertex -133.07423181573347 -203.10496922919623 4.051572038976658e-09
    vertex -133.07423181573347 -203.10496922919623 3.0000000040515666
  endloop
endfacet
facet normal -0.5000000000000128 -0.8660254037844313 0.0
  outer loop
    vertex -133.07423181573347 -203.10496922919623 4.051572038976658e-09
    vertex -133.74953848944642 -202.82524804618328 3.0000000040515666
    vertex -133.74953848944642 -202.82524804618328 4.051572038976658e-09
  endloop
endfacet
facet normal -0.5000000000000128 -0.8660254037844313 0.0
  outer loop
    vertex -133.07423181573347 -203.10496922919623 3.0000000040515666
    vertex -132.49433282841116 -203.54994137247036 4.051572038976658e-09
    vertex -132.49433282841116 -203.54994137247036 3.0000000040515666
  endloop
endfacet
facet normal -0.7071067811865481 -0.7071067811865469 0.0
  outer loop
    vertex -132.49433282841116 -203.54994137247036 4.051572038976658e-09
    vertex -133.07423181573347 -203.10496922919623 3.0000000040515666
    vertex -133.07423181573347 -203.10496922919623 4.051572038976658e-09
  endloop
endfacet
facet normal -0.8660254037844306 -0.5000000000000141 0.0
  outer loop
    vertex -132.04936068513703 -204.12984035979267 3.0000000040515666
    vertex -132.49433282841116 -203.54994137247036 4.051572038976658e-09
    vertex -132.04936068513703 -204.12984035979267 4.051572038976658e-09
  endloop
endfacet
facet normal -0.7071067811865481 -0.7071067811865469 0.0
  outer loop
    vertex -132.49433282841116 -203.54994137247036 4.051572038976658e-09
    vertex -132.04936068513703 -204.12984035979267 3.0000000040515666
    vertex -132.49433282841116 -203.54994137247036 3.0000000040515666
  endloop
endfacet
facet normal -0.9659258262890716 -0.2588190451025083 0.0
  outer loop
    vertex -131.76963950212408 -204.80514703350562 3.0000000040515666
    vertex -132.04936068513703 -204.12984035979267 4.051572038976658e-09
    vertex -131.76963950212408 -204.80514703350562 4.051572038976658e-09
  endloop
endfacet
facet normal -0.8660254037844306 -0.5000000000000141 0.0
  outer loop
    vertex -132.04936068513703 -204.12984035979267 4.051572038976658e-09
    vertex -131.76963950212408 -204.80514703350562 3.0000000040515666
    vertex -132.04936068513703 -204.12984035979267 3.0000000040515666
  endloop
endfacet
facet normal -1.0 6.631439159357727e-15 0.0
  outer loop
    vertex -131.6742318157335 -205.52984035979267 3.0000000040515666
    vertex -131.76963950212408 -204.80514703350562 4.051572038976658e-09
    vertex -131.6742318157335 -205.52984035979267 4.051572038976658e-09
  endloop
endfacet
facet normal -0.9659258262890716 -0.2588190451025083 0.0
  outer loop
    vertex -131.76963950212408 -204.80514703350562 4.051572038976658e-09
    vertex -131.6742318157335 -205.52984035979267 3.0000000040515666
    vertex -131.76963950212408 -204.80514703350562 3.0000000040515666
  endloop
endfacet
facet normal -0.9659258262890684 0.2588190451025207 0.0
  outer loop
    vertex -131.76963950212408 -206.25453368607972 3.0000000040515666
    vertex -131.6742318157335 -205.52984035979267 4.051572038976658e-09
    vertex -131.76963950212408 -206.25453368607972 4.051572038976658e-09
  endloop
endfacet
facet normal -1.0 6.631439159357727e-15 0.0
  outer loop
    vertex -131.6742318157335 -205.52984035979267 4.051572038976658e-09
    vertex -131.76963950212408 -206.25453368607972 3.0000000040515666
    vertex -131.6742318157335 -205.52984035979267 3.0000000040515666
  endloop
endfacet
facet normal -0.8660254037844378 0.5000000000000014 0.0
  outer loop
    vertex -132.04936068513706 -206.92984035979268 3.0000000040515666
    vertex -131.76963950212408 -206.25453368607972 4.051572038976658e-09
    vertex -132.04936068513706 -206.92984035979268 4.051572038976658e-09
  endloop
endfacet
facet normal -0.9659258262890684 0.2588190451025207 0.0
  outer loop
    vertex -131.76963950212408 -206.25453368607972 4.051572038976658e-09
    vertex -132.04936068513706 -206.92984035979268 3.0000000040515666
    vertex -131.76963950212408 -206.25453368607972 3.0000000040515666
  endloop
endfacet
facet normal -0.707106781186543 0.707106781186552 0.0
  outer loop
    vertex -132.49433282841113 -207.50973934711502 3.0000000040515666
    vertex -132.04936068513706 -206.92984035979268 4.051572038976658e-09
    vertex -132.49433282841113 -207.50973934711502 4.051572038976658e-09
  endloop
endfacet
facet normal -0.8660254037844378 0.5000000000000014 0.0
  outer loop
    vertex -132.04936068513706 -206.92984035979268 4.051572038976658e-09
    vertex -132.49433282841113 -207.50973934711502 3.0000000040515666
    vertex -132.04936068513706 -206.92984035979268 3.0000000040515666
  endloop
endfacet
facet normal -0.4999999999999832 0.8660254037844485 0.0
  outer loop
    vertex -133.0742318157335 -207.9547114903891 4.051572038976658e-09
    vertex -132.49433282841113 -207.50973934711502 3.0000000040515666
    vertex -132.49433282841113 -207.50973934711502 4.051572038976658e-09
  endloop
endfacet
facet normal -0.707106781186543 0.707106781186552 0.0
  outer loop
    vertex -132.49433282841113 -207.50973934711502 3.0000000040515666
    vertex -133.0742318157335 -207.9547114903891 4.051572038976658e-09
    vertex -133.0742318157335 -207.9547114903891 3.0000000040515666
  endloop
endfacet
facet normal -0.2588190451025158 0.9659258262890698 0.0
  outer loop
    vertex -133.74953848944645 -208.23443267340207 4.051572038976658e-09
    vertex -133.0742318157335 -207.9547114903891 3.0000000040515666
    vertex -133.0742318157335 -207.9547114903891 4.051572038976658e-09
  endloop
endfacet
facet normal -0.4999999999999832 0.8660254037844485 0.0
  outer loop
    vertex -133.0742318157335 -207.9547114903891 3.0000000040515666
    vertex -133.74953848944645 -208.23443267340207 4.051572038976658e-09
    vertex -133.74953848944645 -208.23443267340207 3.0000000040515666
  endloop
endfacet
facet normal 6.123505895305855e-15 1.0 0.0
  outer loop
    vertex -134.4742318157335 -208.32984035979266 4.051572038976658e-09
    vertex -133.74953848944645 -208.23443267340207 3.0000000040515666
    vertex -133.74953848944645 -208.23443267340207 4.051572038976658e-09
  endloop
endfacet
facet normal -0.2588190451025158 0.9659258262890698 0.0
  outer loop
    vertex -133.74953848944645 -208.23443267340207 3.0000000040515666
    vertex -134.4742318157335 -208.32984035979266 4.051572038976658e-09
    vertex -134.4742318157335 -208.32984035979266 3.0000000040515666
  endloop
endfacet
facet normal 0.2588190451025276 0.9659258262890664 0.0
  outer loop
    vertex -135.19892514202056 -208.23443267340207 4.051572038976658e-09
    vertex -134.4742318157335 -208.32984035979266 3.0000000040515666
    vertex -134.4742318157335 -208.32984035979266 4.051572038976658e-09
  endloop
endfacet
facet normal 6.123505895305855e-15 1.0 0.0
  outer loop
    vertex -134.4742318157335 -208.32984035979266 3.0000000040515666
    vertex -135.19892514202056 -208.23443267340207 4.051572038976658e-09
    vertex -135.19892514202056 -208.23443267340207 3.0000000040515666
  endloop
endfacet
facet normal 0.5000000000000101 0.8660254037844328 0.0
  outer loop
    vertex -135.8742318157335 -207.95471149038906 4.051572038976658e-09
    vertex -135.19892514202056 -208.23443267340207 3.0000000040515666
    vertex -135.19892514202056 -208.23443267340207 4.051572038976658e-09
  endloop
endfacet
facet normal 0.2588190451025276 0.9659258262890664 0.0
  outer loop
    vertex -135.19892514202056 -208.23443267340207 3.0000000040515666
    vertex -135.8742318157335 -207.95471149038906 4.051572038976658e-09
    vertex -135.8742318157335 -207.95471149038906 3.0000000040515666
  endloop
endfacet
facet normal 0.707106781186546 0.707106781186549 0.0
  outer loop
    vertex -136.45413080305582 -207.509739347115 4.051572038976658e-09
    vertex -135.8742318157335 -207.95471149038906 3.0000000040515666
    vertex -135.8742318157335 -207.95471149038906 4.051572038976658e-09
  endloop
endfacet
facet normal 0.5000000000000101 0.8660254037844328 0.0
  outer loop
    vertex -135.8742318157335 -207.95471149038906 3.0000000040515666
    vertex -136.45413080305582 -207.509739347115 4.051572038976658e-09
    vertex -136.45413080305582 -207.509739347115 3.0000000040515666
  endloop
endfacet
facet normal 0.8660254037844306 0.5000000000000141 0.0
  outer loop
    vertex -136.89910294632992 -206.92984035979268 3.0000000040515666
    vertex -136.45413080305582 -207.509739347115 4.051572038976658e-09
    vertex -136.89910294632992 -206.92984035979268 4.051572038976658e-09
  endloop
endfacet
facet normal 0.707106781186546 0.707106781186549 0.0
  outer loop
    vertex -136.45413080305582 -207.509739347115 4.051572038976658e-09
    vertex -136.89910294632992 -206.92984035979268 3.0000000040515666
    vertex -136.45413080305582 -207.509739347115 3.0000000040515666
  endloop
endfacet
facet normal 0.9659258262890716 0.2588190451025083 0.0
  outer loop
    vertex -137.1788241293429 -206.25453368607972 3.0000000040515666
    vertex -136.89910294632992 -206.92984035979268 4.051572038976658e-09
    vertex -137.1788241293429 -206.25453368607972 4.051572038976658e-09
  endloop
endfacet
facet normal 0.8660254037844306 0.5000000000000141 0.0
  outer loop
    vertex -136.89910294632992 -206.92984035979268 4.051572038976658e-09
    vertex -137.1788241293429 -206.25453368607972 3.0000000040515666
    vertex -136.89910294632992 -206.92984035979268 3.0000000040515666
  endloop
endfacet
facet normal 1.0 -6.631439159357727e-15 0.0
  outer loop
    vertex -137.27423181573346 -205.52984035979262 3.0000000040515666
    vertex -137.1788241293429 -206.25453368607972 4.051572038976658e-09
    vertex -137.27423181573346 -205.52984035979262 4.051572038976658e-09
  endloop
endfacet
facet normal 0.9659258262890716 0.2588190451025083 0.0
  outer loop
    vertex -137.1788241293429 -206.25453368607972 4.051572038976658e-09
    vertex -137.27423181573346 -205.52984035979262 3.0000000040515666
    vertex -137.1788241293429 -206.25453368607972 3.0000000040515666
  endloop
endfacet
facet normal 0.9659258262890684 -0.2588190451025207 0.0
  outer loop
    vertex -137.17882412934287 -204.80514703350556 3.0000000040515666
    vertex -137.27423181573346 -205.52984035979262 4.051572038976658e-09
    vertex -137.17882412934287 -204.80514703350556 4.051572038976658e-09
  endloop
endfacet
facet normal 1.0 -6.631439159357727e-15 0.0
  outer loop
    vertex -137.27423181573346 -205.52984035979262 4.051572038976658e-09
    vertex -137.17882412934287 -204.80514703350556 3.0000000040515666
    vertex -137.27423181573346 -205.52984035979262 3.0000000040515666
  endloop
endfacet
facet normal 0.8660254037844378 -0.5000000000000014 0.0
  outer loop
    vertex -136.89910294632992 -204.12984035979264 3.0000000040515666
    vertex -137.17882412934287 -204.80514703350556 4.051572038976658e-09
    vertex -136.89910294632992 -204.12984035979264 4.051572038976658e-09
  endloop
endfacet
facet normal 0.9659258262890684 -0.2588190451025207 0.0
  outer loop
    vertex -137.17882412934287 -204.80514703350556 4.051572038976658e-09
    vertex -136.89910294632992 -204.12984035979264 3.0000000040515666
    vertex -137.17882412934287 -204.80514703350556 3.0000000040515666
  endloop
endfacet
facet normal 0.707106781186543 -0.707106781186552 0.0
  outer loop
    vertex -136.45413080305582 -203.5499413724703 3.0000000040515666
    vertex -136.89910294632992 -204.12984035979264 4.051572038976658e-09
    vertex -136.45413080305582 -203.5499413724703 4.051572038976658e-09
  endloop
endfacet
facet normal 0.8660254037844378 -0.5000000000000014 0.0
  outer loop
    vertex -136.89910294632992 -204.12984035979264 4.051572038976658e-09
    vertex -136.45413080305582 -203.5499413724703 3.0000000040515666
    vertex -136.89910294632992 -204.12984035979264 3.0000000040515666
  endloop
endfacet
facet normal 0.707106781186543 -0.707106781186552 0.0
  outer loop
    vertex -136.45413080305582 -203.5499413724703 3.0000000040515666
    vertex -135.87423181573348 -203.10496922919623 4.051572038976658e-09
    vertex -135.87423181573348 -203.10496922919623 3.0000000040515666
  endloop
endfacet
facet normal 0.4999999999999832 -0.8660254037844485 0.0
  outer loop
    vertex -135.87423181573348 -203.10496922919623 4.051572038976658e-09
    vertex -136.45413080305582 -203.5499413724703 3.0000000040515666
    vertex -136.45413080305582 -203.5499413724703 4.051572038976658e-09
  endloop
endfacet
facet normal -1.4100436133395327e-16 1.0 0.0
  outer loop
    vertex -154.5742323851786 -204.4798403597927 4.052068353077587e-09
    vertex -154.10835810399408 -204.418506847113 3.0000000040520742
    vertex -154.10835810399408 -204.418506847113 4.052068353077587e-09
  endloop
endfacet
facet normal -0.25881904510255155 0.9659258262890602 0.0
  outer loop
    vertex -154.10835810399408 -204.418506847113 3.0000000040520742
    vertex -154.5742323851786 -204.4798403597927 4.052068353077587e-09
    vertex -154.5742323851786 -204.4798403597927 3.0000000040520742
  endloop
endfacet
facet normal -0.25881904510255155 0.9659258262890602 0.0
  outer loop
    vertex -154.10835810399408 -204.418506847113 4.052068353077587e-09
    vertex -153.6742323851786 -204.23868608660467 3.0000000040520742
    vertex -153.6742323851786 -204.23868608660467 4.052068353077587e-09
  endloop
endfacet
facet normal -0.5000000000000148 0.8660254037844303 0.0
  outer loop
    vertex -153.6742323851786 -204.23868608660467 3.0000000040520742
    vertex -154.10835810399408 -204.418506847113 4.052068353077587e-09
    vertex -154.10835810399408 -204.418506847113 3.0000000040520742
  endloop
endfacet
facet normal -0.5000000000000148 0.8660254037844303 0.0
  outer loop
    vertex -153.6742323851786 -204.23868608660467 4.052068353077587e-09
    vertex -153.30144017904283 -203.95263256592844 3.0000000040520742
    vertex -153.30144017904283 -203.95263256592844 4.052068353077587e-09
  endloop
endfacet
facet normal -0.7071067811865297 0.7071067811865653 0.0
  outer loop
    vertex -153.30144017904283 -203.95263256592844 3.0000000040520742
    vertex -153.6742323851786 -204.23868608660467 4.052068353077587e-09
    vertex -153.6742323851786 -204.23868608660467 3.0000000040520742
  endloop
endfacet
facet normal -0.7071067811865297 0.7071067811865653 0.0
  outer loop
    vertex -153.30144017904283 -203.95263256592844 3.0000000040520742
    vertex -153.0153866583666 -203.57984035979266 4.052068353077587e-09
    vertex -153.30144017904283 -203.95263256592844 4.052068353077587e-09
  endloop
endfacet
facet normal -0.8660254037844478 0.4999999999999843 0.0
  outer loop
    vertex -153.0153866583666 -203.57984035979266 4.052068353077587e-09
    vertex -153.30144017904283 -203.95263256592844 3.0000000040520742
    vertex -153.0153866583666 -203.57984035979266 3.0000000040520742
  endloop
endfacet
facet normal -0.8660254037844478 0.4999999999999843 0.0
  outer loop
    vertex -153.0153866583666 -203.57984035979266 3.0000000040520742
    vertex -152.83556589785832 -203.1457146409772 4.052068353077587e-09
    vertex -153.0153866583666 -203.57984035979266 4.052068353077587e-09
  endloop
endfacet
facet normal -0.9659258262890821 0.25881904510247006 0.0
  outer loop
    vertex -152.83556589785832 -203.1457146409772 4.052068353077587e-09
    vertex -153.0153866583666 -203.57984035979266 3.0000000040520742
    vertex -152.83556589785832 -203.1457146409772 3.0000000040520742
  endloop
endfacet
facet normal -0.9659258262890821 0.25881904510247006 0.0
  outer loop
    vertex -152.83556589785832 -203.1457146409772 3.0000000040520742
    vertex -152.7742323851786 -202.67984035979265 4.052068353077587e-09
    vertex -152.83556589785832 -203.1457146409772 4.052068353077587e-09
  endloop
endfacet
facet normal -1.0 -1.4991547122956032e-16 0.0
  outer loop
    vertex -152.7742323851786 -202.67984035979265 4.052068353077587e-09
    vertex -152.83556589785832 -203.1457146409772 3.0000000040520742
    vertex -152.7742323851786 -202.67984035979265 3.0000000040520742
  endloop
endfacet
facet normal -1.0 -1.4991547122956032e-16 0.0
  outer loop
    vertex -152.7742323851786 -202.67984035979265 3.0000000040520742
    vertex -152.8355658978583 -202.21396607860814 4.052068353077587e-09
    vertex -152.7742323851786 -202.67984035979265 4.052068353077587e-09
  endloop
endfacet
facet normal -0.965925826289072 -0.25881904510250714 0.0
  outer loop
    vertex -152.8355658978583 -202.21396607860814 4.052068353077587e-09
    vertex -152.7742323851786 -202.67984035979265 3.0000000040520742
    vertex -152.8355658978583 -202.21396607860814 3.0000000040520742
  endloop
endfacet
facet normal -0.965925826289072 -0.25881904510250714 0.0
  outer loop
    vertex -152.8355658978583 -202.21396607860814 3.0000000040520742
    vertex -153.01538665836662 -201.77984035979267 4.052068353077587e-09
    vertex -152.8355658978583 -202.21396607860814 4.052068353077587e-09
  endloop
endfacet
facet normal -0.8660254037844317 -0.500000000000012 0.0
  outer loop
    vertex -153.01538665836662 -201.77984035979267 4.052068353077587e-09
    vertex -152.8355658978583 -202.21396607860814 3.0000000040520742
    vertex -153.01538665836662 -201.77984035979267 3.0000000040520742
  endloop
endfacet
facet normal -0.8660254037844317 -0.500000000000012 0.0
  outer loop
    vertex -153.01538665836662 -201.77984035979267 3.0000000040520742
    vertex -153.30144017904286 -201.4070481536569 4.052068353077587e-09
    vertex -153.01538665836662 -201.77984035979267 4.052068353077587e-09
  endloop
endfacet
facet normal -0.7071067811865249 -0.7071067811865701 0.0
  outer loop
    vertex -153.30144017904286 -201.4070481536569 4.052068353077587e-09
    vertex -153.01538665836662 -201.77984035979267 3.0000000040520742
    vertex -153.30144017904286 -201.4070481536569 3.0000000040520742
  endloop
endfacet
facet normal -0.4999999999999897 -0.8660254037844447 0.0
  outer loop
    vertex -153.67423238517864 -201.12099463298068 3.0000000040520742
    vertex -153.30144017904286 -201.4070481536569 4.052068353077587e-09
    vertex -153.30144017904286 -201.4070481536569 3.0000000040520742
  endloop
endfacet
facet normal -0.7071067811865249 -0.7071067811865701 0.0
  outer loop
    vertex -153.30144017904286 -201.4070481536569 4.052068353077587e-09
    vertex -153.67423238517864 -201.12099463298068 3.0000000040520742
    vertex -153.67423238517864 -201.12099463298068 4.052068353077587e-09
  endloop
endfacet
facet normal -0.25881904510253595 -0.9659258262890642 0.0
  outer loop
    vertex -154.1083581039941 -200.94117387247238 3.0000000040520742
    vertex -153.67423238517864 -201.12099463298068 4.052068353077587e-09
    vertex -153.67423238517864 -201.12099463298068 3.0000000040520742
  endloop
endfacet
facet normal -0.4999999999999897 -0.8660254037844447 0.0
  outer loop
    vertex -153.67423238517864 -201.12099463298068 4.052068353077587e-09
    vertex -154.1083581039941 -200.94117387247238 3.0000000040520742
    vertex -154.1083581039941 -200.94117387247238 4.052068353077587e-09
  endloop
endfacet
facet normal 1.4100436133395327e-16 -1.0 0.0
  outer loop
    vertex -154.57423238517865 -200.87984035979267 3.0000000040520742
    vertex -154.1083581039941 -200.94117387247238 4.052068353077587e-09
    vertex -154.1083581039941 -200.94117387247238 3.0000000040520742
  endloop
endfacet
facet normal -0.25881904510253595 -0.9659258262890642 0.0
  outer loop
    vertex -154.1083581039941 -200.94117387247238 4.052068353077587e-09
    vertex -154.57423238517865 -200.87984035979267 3.0000000040520742
    vertex -154.57423238517865 -200.87984035979267 4.052068353077587e-09
  endloop
endfacet
facet normal 0.25881904510255155 -0.9659258262890602 0.0
  outer loop
    vertex -155.04010666636316 -200.94117387247238 3.0000000040520742
    vertex -154.57423238517865 -200.87984035979267 4.052068353077587e-09
    vertex -154.57423238517865 -200.87984035979267 3.0000000040520742
  endloop
endfacet
facet normal 1.4100436133395327e-16 -1.0 0.0
  outer loop
    vertex -154.57423238517865 -200.87984035979267 4.052068353077587e-09
    vertex -155.04010666636316 -200.94117387247238 3.0000000040520742
    vertex -155.04010666636316 -200.94117387247238 4.052068353077587e-09
  endloop
endfacet
facet normal 0.5000000000000148 -0.8660254037844303 0.0
  outer loop
    vertex -155.47423238517862 -201.1209946329807 3.0000000040520742
    vertex -155.04010666636316 -200.94117387247238 4.052068353077587e-09
    vertex -155.04010666636316 -200.94117387247238 3.0000000040520742
  endloop
endfacet
facet normal 0.25881904510255155 -0.9659258262890602 0.0
  outer loop
    vertex -155.04010666636316 -200.94117387247238 4.052068353077587e-09
    vertex -155.47423238517862 -201.1209946329807 3.0000000040520742
    vertex -155.47423238517862 -201.1209946329807 4.052068353077587e-09
  endloop
endfacet
facet normal 0.7071067811865297 -0.7071067811865653 0.0
  outer loop
    vertex -155.8470245913144 -201.40704815365692 3.0000000040520742
    vertex -155.47423238517862 -201.1209946329807 4.052068353077587e-09
    vertex -155.47423238517862 -201.1209946329807 3.0000000040520742
  endloop
endfacet
facet normal 0.5000000000000148 -0.8660254037844303 0.0
  outer loop
    vertex -155.47423238517862 -201.1209946329807 4.052068353077587e-09
    vertex -155.8470245913144 -201.40704815365692 3.0000000040520742
    vertex -155.8470245913144 -201.40704815365692 4.052068353077587e-09
  endloop
endfacet
facet normal 0.7071067811865297 -0.7071067811865653 0.0
  outer loop
    vertex -155.8470245913144 -201.40704815365692 3.0000000040520742
    vertex -156.13307811199064 -201.7798403597927 4.052068353077587e-09
    vertex -155.8470245913144 -201.40704815365692 4.052068353077587e-09
  endloop
endfacet
facet normal 0.8660254037844478 -0.4999999999999843 0.0
  outer loop
    vertex -156.13307811199064 -201.7798403597927 4.052068353077587e-09
    vertex -155.8470245913144 -201.40704815365692 3.0000000040520742
    vertex -156.13307811199064 -201.7798403597927 3.0000000040520742
  endloop
endfacet
facet normal 0.8660254037844478 -0.4999999999999843 0.0
  outer loop
    vertex -156.13307811199064 -201.7798403597927 3.0000000040520742
    vertex -156.31289887249892 -202.21396607860814 4.052068353077587e-09
    vertex -156.13307811199064 -201.7798403597927 4.052068353077587e-09
  endloop
endfacet
facet normal 0.9659258262890821 -0.25881904510247006 0.0
  outer loop
    vertex -156.31289887249892 -202.21396607860814 4.052068353077587e-09
    vertex -156.13307811199064 -201.7798403597927 3.0000000040520742
    vertex -156.31289887249892 -202.21396607860814 3.0000000040520742
  endloop
endfacet
facet normal 0.9659258262890821 -0.25881904510247006 0.0
  outer loop
    vertex -156.31289887249892 -202.21396607860814 3.0000000040520742
    vertex -156.3742323851786 -202.6798403597927 4.052068353077587e-09
    vertex -156.31289887249892 -202.21396607860814 4.052068353077587e-09
  endloop
endfacet
facet normal 1.0 1.4991547122956032e-16 0.0
  outer loop
    vertex -156.3742323851786 -202.6798403597927 4.052068353077587e-09
    vertex -156.31289887249892 -202.21396607860814 3.0000000040520742
    vertex -156.3742323851786 -202.6798403597927 3.0000000040520742
  endloop
endfacet
facet normal 1.0 1.4991547122956032e-16 0.0
  outer loop
    vertex -156.3742323851786 -202.6798403597927 3.0000000040520742
    vertex -156.31289887249895 -203.14571464097722 4.052068353077587e-09
    vertex -156.3742323851786 -202.6798403597927 4.052068353077587e-09
  endloop
endfacet
facet normal 0.965925826289072 0.25881904510250714 0.0
  outer loop
    vertex -156.31289887249895 -203.14571464097722 4.052068353077587e-09
    vertex -156.3742323851786 -202.6798403597927 3.0000000040520742
    vertex -156.31289887249895 -203.14571464097722 3.0000000040520742
  endloop
endfacet
facet normal 0.965925826289072 0.25881904510250714 0.0
  outer loop
    vertex -156.31289887249895 -203.14571464097722 3.0000000040520742
    vertex -156.13307811199064 -203.5798403597927 4.052068353077587e-09
    vertex -156.31289887249895 -203.14571464097722 4.052068353077587e-09
  endloop
endfacet
facet normal 0.8660254037844317 0.500000000000012 0.0
  outer loop
    vertex -156.13307811199064 -203.5798403597927 4.052068353077587e-09
    vertex -156.31289887249895 -203.14571464097722 3.0000000040520742
    vertex -156.13307811199064 -203.5798403597927 3.0000000040520742
  endloop
endfacet
facet normal 0.8660254037844317 0.500000000000012 0.0
  outer loop
    vertex -156.13307811199064 -203.5798403597927 3.0000000040520742
    vertex -155.8470245913144 -203.9526325659285 4.052068353077587e-09
    vertex -156.13307811199064 -203.5798403597927 4.052068353077587e-09
  endloop
endfacet
facet normal 0.7071067811865249 0.7071067811865701 0.0
  outer loop
    vertex -155.8470245913144 -203.9526325659285 4.052068353077587e-09
    vertex -156.13307811199064 -203.5798403597927 3.0000000040520742
    vertex -155.8470245913144 -203.9526325659285 3.0000000040520742
  endloop
endfacet
facet normal 0.7071067811865249 0.7071067811865701 0.0
  outer loop
    vertex -155.8470245913144 -203.9526325659285 4.052068353077587e-09
    vertex -155.4742323851786 -204.23868608660467 3.0000000040520742
    vertex -155.4742323851786 -204.23868608660467 4.052068353077587e-09
  endloop
endfacet
facet normal 0.4999999999999897 0.8660254037844447 0.0
  outer loop
    vertex -155.4742323851786 -204.23868608660467 3.0000000040520742
    vertex -155.8470245913144 -203.9526325659285 4.052068353077587e-09
    vertex -155.8470245913144 -203.9526325659285 3.0000000040520742
  endloop
endfacet
facet normal 0.4999999999999897 0.8660254037844447 0.0
  outer loop
    vertex -155.4742323851786 -204.23868608660467 4.052068353077587e-09
    vertex -155.04010666636316 -204.418506847113 3.0000000040520742
    vertex -155.04010666636316 -204.418506847113 4.052068353077587e-09
  endloop
endfacet
facet normal 0.25881904510253595 0.9659258262890642 0.0
  outer loop
    vertex -155.04010666636316 -204.418506847113 3.0000000040520742
    vertex -155.4742323851786 -204.23868608660467 4.052068353077587e-09
    vertex -155.4742323851786 -204.23868608660467 3.0000000040520742
  endloop
endfacet
facet normal 0.25881904510253595 0.9659258262890642 0.0
  outer loop
    vertex -155.04010666636316 -204.418506847113 4.052068353077587e-09
    vertex -154.5742323851786 -204.4798403597927 3.0000000040520742
    vertex -154.5742323851786 -204.4798403597927 4.052068353077587e-09
  endloop
endfacet
facet normal -1.4100436133395327e-16 1.0 0.0
  outer loop
    vertex -154.5742323851786 -204.4798403597927 3.0000000040520742
    vertex -155.04010666636316 -204.418506847113 4.052068353077587e-09
    vertex -155.04010666636316 -204.418506847113 3.0000000040520742
  endloop
endfacet
facet normal 0.25881904510256337 0.9659258262890569 0.0
  outer loop
    vertex -164.5401066663632 -204.41850684711284 4.0517525168315416e-09
    vertex -164.07423238517868 -204.47984035979255 3.000000004051747
    vertex -164.07423238517868 -204.47984035979255 4.0517525168315416e-09
  endloop
endfacet
facet normal 1.2388016151945663e-14 1.0 0.0
  outer loop
    vertex -164.07423238517868 -204.47984035979255 3.000000004051747
    vertex -164.5401066663632 -204.41850684711284 4.0517525168315416e-09
    vertex -164.5401066663632 -204.41850684711284 3.000000004051747
  endloop
endfacet
facet normal 1.2388016151945663e-14 1.0 0.0
  outer loop
    vertex -164.07423238517868 -204.47984035979255 4.0517525168315416e-09
    vertex -163.60835810399414 -204.41850684711284 3.000000004051747
    vertex -163.60835810399414 -204.41850684711284 4.0517525168315416e-09
  endloop
endfacet
facet normal -0.2588190451025241 0.9659258262890675 0.0
  outer loop
    vertex -163.60835810399414 -204.41850684711284 3.000000004051747
    vertex -164.07423238517868 -204.47984035979255 4.0517525168315416e-09
    vertex -164.07423238517868 -204.47984035979255 3.000000004051747
  endloop
endfacet
facet normal -0.2588190451025241 0.9659258262890675 0.0
  outer loop
    vertex -163.60835810399414 -204.41850684711284 4.0517525168315416e-09
    vertex -163.17423238517867 -204.2386860866045 3.000000004051747
    vertex -163.17423238517867 -204.2386860866045 4.0517525168315416e-09
  endloop
endfacet
facet normal -0.499999999999979 0.8660254037844509 0.0
  outer loop
    vertex -163.17423238517867 -204.2386860866045 3.000000004051747
    vertex -163.60835810399414 -204.41850684711284 4.0517525168315416e-09
    vertex -163.60835810399414 -204.41850684711284 3.000000004051747
  endloop
endfacet
facet normal -0.499999999999979 0.8660254037844509 0.0
  outer loop
    vertex -163.17423238517867 -204.2386860866045 4.0517525168315416e-09
    vertex -162.80144017904288 -203.9526325659283 3.000000004051747
    vertex -162.80144017904288 -203.9526325659283 4.0517525168315416e-09
  endloop
endfacet
facet normal -0.7071067811865163 0.7071067811865788 0.0
  outer loop
    vertex -162.80144017904288 -203.9526325659283 3.000000004051747
    vertex -163.17423238517867 -204.2386860866045 4.0517525168315416e-09
    vertex -163.17423238517867 -204.2386860866045 3.000000004051747
  endloop
endfacet
facet normal -0.7071067811865163 0.7071067811865788 0.0
  outer loop
    vertex -162.80144017904288 -203.9526325659283 3.000000004051747
    vertex -162.51538665836665 -203.5798403597925 4.0517525168315416e-09
    vertex -162.80144017904288 -203.9526325659283 4.0517525168315416e-09
  endloop
endfacet
facet normal -0.8660254037844257 0.5000000000000228 0.0
  outer loop
    vertex -162.51538665836665 -203.5798403597925 4.0517525168315416e-09
    vertex -162.80144017904288 -203.9526325659283 3.000000004051747
    vertex -162.51538665836665 -203.5798403597925 3.000000004051747
  endloop
endfacet
facet normal -0.8660254037844257 0.5000000000000228 0.0
  outer loop
    vertex -162.51538665836665 -203.5798403597925 3.000000004051747
    vertex -162.33556589785832 -203.14571464097708 4.0517525168315416e-09
    vertex -162.51538665836665 -203.5798403597925 4.0517525168315416e-09
  endloop
endfacet
facet normal -0.9659258262890689 0.258819045102519 0.0
  outer loop
    vertex -162.33556589785832 -203.14571464097708 4.0517525168315416e-09
    vertex -162.51538665836665 -203.5798403597925 3.000000004051747
    vertex -162.33556589785832 -203.14571464097708 3.000000004051747
  endloop
endfacet
facet normal -0.9659258262890689 0.258819045102519 0.0
  outer loop
    vertex -162.33556589785832 -203.14571464097708 3.000000004051747
    vertex -162.2742323851786 -202.67984035979256 4.0517525168315416e-09
    vertex -162.33556589785832 -203.14571464097708 4.0517525168315416e-09
  endloop
endfacet
facet normal -1.0 1.2379105042049975e-14 0.0
  outer loop
    vertex -162.2742323851786 -202.67984035979256 4.0517525168315416e-09
    vertex -162.33556589785832 -203.14571464097708 3.000000004051747
    vertex -162.2742323851786 -202.67984035979256 3.000000004051747
  endloop
endfacet
facet normal -1.0 1.2379105042049975e-14 0.0
  outer loop
    vertex -162.2742323851786 -202.67984035979256 3.000000004051747
    vertex -162.3355658978583 -202.21396607860802 4.0517525168315416e-09
    vertex -162.2742323851786 -202.67984035979256 4.0517525168315416e-09
  endloop
endfacet
facet normal -0.9659258262890852 -0.2588190451024582 0.0
  outer loop
    vertex -162.3355658978583 -202.21396607860802 4.0517525168315416e-09
    vertex -162.2742323851786 -202.67984035979256 3.000000004051747
    vertex -162.3355658978583 -202.21396607860802 3.000000004051747
  endloop
endfacet
facet normal -0.9659258262890852 -0.2588190451024582 0.0
  outer loop
    vertex -162.3355658978583 -202.21396607860802 3.000000004051747
    vertex -162.51538665836657 -201.77984035979256 4.0517525168315416e-09
    vertex -162.3355658978583 -202.21396607860802 4.0517525168315416e-09
  endloop
endfacet
facet normal -0.866025403784454 -0.49999999999997363 0.0
  outer loop
    vertex -162.51538665836657 -201.77984035979256 4.0517525168315416e-09
    vertex -162.3355658978583 -202.21396607860802 3.000000004051747
    vertex -162.51538665836657 -201.77984035979256 3.000000004051747
  endloop
endfacet
facet normal -0.866025403784454 -0.49999999999997363 0.0
  outer loop
    vertex -162.51538665836657 -201.77984035979256 3.000000004051747
    vertex -162.8014401790428 -201.40704815365677 4.0517525168315416e-09
    vertex -162.51538665836657 -201.77984035979256 4.0517525168315416e-09
  endloop
endfacet
facet normal -0.7071067811865384 -0.7071067811865567 0.0
  outer loop
    vertex -162.8014401790428 -201.40704815365677 4.0517525168315416e-09
    vertex -162.51538665836657 -201.77984035979256 3.000000004051747
    vertex -162.8014401790428 -201.40704815365677 3.000000004051747
  endloop
endfacet
facet normal -0.5000000000000254 -0.866025403784424 0.0
  outer loop
    vertex -163.17423238517858 -201.12099463298054 3.000000004051747
    vertex -162.8014401790428 -201.40704815365677 4.0517525168315416e-09
    vertex -162.8014401790428 -201.40704815365677 3.000000004051747
  endloop
endfacet
facet normal -0.7071067811865384 -0.7071067811865567 0.0
  outer loop
    vertex -162.8014401790428 -201.40704815365677 4.0517525168315416e-09
    vertex -163.17423238517858 -201.12099463298054 3.000000004051747
    vertex -163.17423238517858 -201.12099463298054 4.0517525168315416e-09
  endloop
endfacet
facet normal -0.25881904510256337 -0.9659258262890569 0.0
  outer loop
    vertex -163.60835810399405 -200.94117387247218 3.000000004051747
    vertex -163.17423238517858 -201.12099463298054 4.0517525168315416e-09
    vertex -163.17423238517858 -201.12099463298054 3.000000004051747
  endloop
endfacet
facet normal -0.5000000000000254 -0.866025403784424 0.0
  outer loop
    vertex -163.17423238517858 -201.12099463298054 4.0517525168315416e-09
    vertex -163.60835810399405 -200.94117387247218 3.000000004051747
    vertex -163.60835810399405 -200.94117387247218 4.0517525168315416e-09
  endloop
endfacet
facet normal -1.2388016151945663e-14 -1.0 0.0
  outer loop
    vertex -164.07423238517856 -200.8798403597925 3.000000004051747
    vertex -163.60835810399405 -200.94117387247218 4.0517525168315416e-09
    vertex -163.60835810399405 -200.94117387247218 3.000000004051747
  endloop
endfacet
facet normal -0.25881904510256337 -0.9659258262890569 0.0
  outer loop
    vertex -163.60835810399405 -200.94117387247218 4.0517525168315416e-09
    vertex -164.07423238517856 -200.8798403597925 3.000000004051747
    vertex -164.07423238517856 -200.8798403597925 4.0517525168315416e-09
  endloop
endfacet
facet normal 0.2588190451025241 -0.9659258262890675 0.0
  outer loop
    vertex -164.54010666636313 -200.94117387247218 3.000000004051747
    vertex -164.07423238517856 -200.8798403597925 4.0517525168315416e-09
    vertex -164.07423238517856 -200.8798403597925 3.000000004051747
  endloop
endfacet
facet normal -1.2388016151945663e-14 -1.0 0.0
  outer loop
    vertex -164.07423238517856 -200.8798403597925 4.0517525168315416e-09
    vertex -164.54010666636313 -200.94117387247218 3.000000004051747
    vertex -164.54010666636313 -200.94117387247218 4.0517525168315416e-09
  endloop
endfacet
facet normal 0.499999999999979 -0.8660254037844509 0.0
  outer loop
    vertex -164.9742323851786 -201.1209946329805 3.000000004051747
    vertex -164.54010666636313 -200.94117387247218 4.0517525168315416e-09
    vertex -164.54010666636313 -200.94117387247218 3.000000004051747
  endloop
endfacet
facet normal 0.2588190451025241 -0.9659258262890675 0.0
  outer loop
    vertex -164.54010666636313 -200.94117387247218 4.0517525168315416e-09
    vertex -164.9742323851786 -201.1209946329805 3.000000004051747
    vertex -164.9742323851786 -201.1209946329805 4.0517525168315416e-09
  endloop
endfacet
facet normal 0.7071067811865163 -0.7071067811865788 0.0
  outer loop
    vertex -165.34702459131438 -201.4070481536567 3.000000004051747
    vertex -164.9742323851786 -201.1209946329805 4.0517525168315416e-09
    vertex -164.9742323851786 -201.1209946329805 3.000000004051747
  endloop
endfacet
facet normal 0.499999999999979 -0.8660254037844509 0.0
  outer loop
    vertex -164.9742323851786 -201.1209946329805 4.0517525168315416e-09
    vertex -165.34702459131438 -201.4070481536567 3.000000004051747
    vertex -165.34702459131438 -201.4070481536567 4.0517525168315416e-09
  endloop
endfacet
facet normal 0.7071067811865163 -0.7071067811865788 0.0
  outer loop
    vertex -165.34702459131438 -201.4070481536567 3.000000004051747
    vertex -165.6330781119906 -201.77984035979247 4.0517525168315416e-09
    vertex -165.34702459131438 -201.4070481536567 4.0517525168315416e-09
  endloop
endfacet
facet normal 0.8660254037844257 -0.5000000000000228 0.0
  outer loop
    vertex -165.6330781119906 -201.77984035979247 4.0517525168315416e-09
    vertex -165.34702459131438 -201.4070481536567 3.000000004051747
    vertex -165.6330781119906 -201.77984035979247 3.000000004051747
  endloop
endfacet
facet normal 0.8660254037844257 -0.5000000000000228 0.0
  outer loop
    vertex -165.6330781119906 -201.77984035979247 3.000000004051747
    vertex -165.81289887249895 -202.21396607860794 4.0517525168315416e-09
    vertex -165.6330781119906 -201.77984035979247 4.0517525168315416e-09
  endloop
endfacet
facet normal 0.9659258262890689 -0.258819045102519 0.0
  outer loop
    vertex -165.81289887249895 -202.21396607860794 4.0517525168315416e-09
    vertex -165.6330781119906 -201.77984035979247 3.000000004051747
    vertex -165.81289887249895 -202.21396607860794 3.000000004051747
  endloop
endfacet
facet normal 0.9659258262890689 -0.258819045102519 0.0
  outer loop
    vertex -165.81289887249895 -202.21396607860794 3.000000004051747
    vertex -165.8742323851786 -202.67984035979245 4.0517525168315416e-09
    vertex -165.81289887249895 -202.21396607860794 4.0517525168315416e-09
  endloop
endfacet
facet normal 1.0 -1.2379105042049975e-14 0.0
  outer loop
    vertex -165.8742323851786 -202.67984035979245 4.0517525168315416e-09
    vertex -165.81289887249895 -202.21396607860794 3.000000004051747
    vertex -165.8742323851786 -202.67984035979245 3.000000004051747
  endloop
endfacet
facet normal 1.0 -1.2379105042049975e-14 0.0
  outer loop
    vertex -165.8742323851786 -202.67984035979245 3.000000004051747
    vertex -165.81289887249895 -203.14571464097702 4.0517525168315416e-09
    vertex -165.8742323851786 -202.67984035979245 4.0517525168315416e-09
  endloop
endfacet
facet normal 0.9659258262890852 0.2588190451024582 0.0
  outer loop
    vertex -165.81289887249895 -203.14571464097702 4.0517525168315416e-09
    vertex -165.8742323851786 -202.67984035979245 3.000000004051747
    vertex -165.81289887249895 -203.14571464097702 3.000000004051747
  endloop
endfacet
facet normal 0.9659258262890852 0.2588190451024582 0.0
  outer loop
    vertex -165.81289887249895 -203.14571464097702 3.000000004051747
    vertex -165.63307811199067 -203.57984035979248 4.0517525168315416e-09
    vertex -165.81289887249895 -203.14571464097702 4.0517525168315416e-09
  endloop
endfacet
facet normal 0.866025403784454 0.49999999999997363 0.0
  outer loop
    vertex -165.63307811199067 -203.57984035979248 4.0517525168315416e-09
    vertex -165.81289887249895 -203.14571464097702 3.000000004051747
    vertex -165.63307811199067 -203.57984035979248 3.000000004051747
  endloop
endfacet
facet normal 0.866025403784454 0.49999999999997363 0.0
  outer loop
    vertex -165.63307811199067 -203.57984035979248 3.000000004051747
    vertex -165.34702459131444 -203.95263256592827 4.0517525168315416e-09
    vertex -165.63307811199067 -203.57984035979248 4.0517525168315416e-09
  endloop
endfacet
facet normal 0.7071067811865384 0.7071067811865567 0.0
  outer loop
    vertex -165.34702459131444 -203.95263256592827 4.0517525168315416e-09
    vertex -165.63307811199067 -203.57984035979248 3.000000004051747
    vertex -165.34702459131444 -203.95263256592827 3.000000004051747
  endloop
endfacet
facet normal 0.7071067811865384 0.7071067811865567 0.0
  outer loop
    vertex -165.34702459131444 -203.95263256592827 4.0517525168315416e-09
    vertex -164.97423238517865 -204.2386860866045 3.000000004051747
    vertex -164.97423238517865 -204.2386860866045 4.0517525168315416e-09
  endloop
endfacet
facet normal 0.5000000000000254 0.866025403784424 0.0
  outer loop
    vertex -164.97423238517865 -204.2386860866045 3.000000004051747
    vertex -165.34702459131444 -203.95263256592827 4.0517525168315416e-09
    vertex -165.34702459131444 -203.95263256592827 3.000000004051747
  endloop
endfacet
facet normal 0.5000000000000254 0.866025403784424 0.0
  outer loop
    vertex -164.97423238517865 -204.2386860866045 4.0517525168315416e-09
    vertex -164.5401066663632 -204.41850684711284 3.000000004051747
    vertex -164.5401066663632 -204.41850684711284 4.0517525168315416e-09
  endloop
endfacet
facet normal 0.25881904510256337 0.9659258262890569 0.0
  outer loop
    vertex -164.5401066663632 -204.41850684711284 3.000000004051747
    vertex -164.97423238517865 -204.2386860866045 4.0517525168315416e-09
    vertex -164.97423238517865 -204.2386860866045 3.000000004051747
  endloop
endfacet
facet normal -0.3739683281109676 -0.9274414750106271 0.0
  outer loop
    vertex -169.27423238517858 -205.5298403597924 3.0000000040515666
    vertex -144.47423181573353 -215.52984035979256 4.051572038976658e-09
    vertex -144.47423181573353 -215.52984035979256 3.0000000040515666
  endloop
endfacet
facet normal -0.3739683281109676 -0.9274414750106271 0.0
  outer loop
    vertex -144.47423181573353 -215.52984035979256 4.051572038976658e-09
    vertex -169.27423238517858 -205.5298403597924 3.0000000040515666
    vertex -169.27423238517858 -205.5298403597924 4.051572038976658e-09
  endloop
endfacet
facet normal 1.0 -6.123505895305855e-15 0.0
  outer loop
    vertex -124.4742318157334 -195.5298403597927 3.0000000040515666
    vertex -124.47423181573352 -215.5298403597927 4.051572920216184e-09
    vertex -124.4742318157334 -195.5298403597927 4.051572920216184e-09
  endloop
endfacet
facet normal 1.0 -6.123505895305855e-15 0.0
  outer loop
    vertex -124.47423181573352 -215.5298403597927 4.051572920216184e-09
    vertex -124.4742318157334 -195.5298403597927 3.0000000040515666
    vertex -124.47423181573352 -215.5298403597927 3.0000000040515666
  endloop
endfacet
facet normal -6.868370679313513e-15 5.412938001282007e-15 -1.0
  outer loop
    vertex -154.5742323851786 -204.4798403597927 4.052068353077587e-09
    vertex -136.89910294632992 -204.12984035979264 4.051572038976658e-09
    vertex -137.17882412934287 -204.80514703350556 4.051572038976658e-09
  endloop
endfacet
facet normal -6.868370679313513e-15 5.412938001282007e-15 -1.0
  outer loop
    vertex -136.89910294632992 -204.12984035979264 4.051572038976658e-09
    vertex -154.5742323851786 -204.4798403597927 4.052068353077587e-09
    vertex -154.10835810399408 -204.418506847113 4.052068353077587e-09
  endloop
endfacet
facet normal -6.868370679313513e-15 5.412938001282007e-15 -1.0
  outer loop
    vertex -136.89910294632992 -204.12984035979264 4.051572038976658e-09
    vertex -154.10835810399408 -204.418506847113 4.052068353077587e-09
    vertex -153.6742323851786 -204.23868608660467 4.052068353077587e-09
  endloop
endfacet
facet normal -6.868370679313513e-15 5.412938001282007e-15 -1.0
  outer loop
    vertex -136.89910294632992 -204.12984035979264 4.051572038976658e-09
    vertex -153.6742323851786 -204.23868608660467 4.052068353077587e-09
    vertex -153.30144017904283 -203.95263256592844 4.052068353077587e-09
  endloop
endfacet
facet normal -6.868370679313513e-15 5.412938001282007e-15 -1.0
  outer loop
    vertex -136.89910294632992 -204.12984035979264 4.051572038976658e-09
    vertex -153.30144017904283 -203.95263256592844 4.052068353077587e-09
    vertex -136.45413080305582 -203.5499413724703 4.051572038976658e-09
  endloop
endfacet
facet normal -6.868370679313513e-15 5.412938001282007e-15 -1.0
  outer loop
    vertex -136.45413080305582 -203.5499413724703 4.051572038976658e-09
    vertex -153.30144017904283 -203.95263256592844 4.052068353077587e-09
    vertex -153.0153866583666 -203.57984035979266 4.052068353077587e-09
  endloop
endfacet
facet normal -6.868370679313513e-15 5.412938001282007e-15 -1.0
  outer loop
    vertex -136.45413080305582 -203.5499413724703 4.051572038976658e-09
    vertex -153.0153866583666 -203.57984035979266 4.052068353077587e-09
    vertex -152.83556589785832 -203.1457146409772 4.052068353077587e-09
  endloop
endfacet
facet normal -6.868370679313513e-15 5.412938001282007e-15 -1.0
  outer loop
    vertex -136.45413080305582 -203.5499413724703 4.051572038976658e-09
    vertex -152.83556589785832 -203.1457146409772 4.052068353077587e-09
    vertex -135.87423181573348 -203.10496922919623 4.051572038976658e-09
  endloop
endfacet
facet normal -6.868370679313513e-15 5.412938001282007e-15 -1.0
  outer loop
    vertex -135.87423181573348 -203.10496922919623 4.051572038976658e-09
    vertex -152.83556589785832 -203.1457146409772 4.052068353077587e-09
    vertex -152.7742323851786 -202.67984035979265 4.052068353077587e-09
  endloop
endfacet
facet normal -6.868370679313513e-15 5.412938001282007e-15 -1.0
  outer loop
    vertex -135.87423181573348 -203.10496922919623 4.051572038976658e-09
    vertex -152.7742323851786 -202.67984035979265 4.052068353077587e-09
    vertex -135.19892514202053 -202.82524804618328 4.051572038976658e-09
  endloop
endfacet
facet normal -6.868370679313513e-15 5.412938001282007e-15 -1.0
  outer loop
    vertex -135.19892514202053 -202.82524804618328 4.051572038976658e-09
    vertex -152.7742323851786 -202.67984035979265 4.052068353077587e-09
    vertex -134.47423181573345 -202.72984035979266 4.051572038976658e-09
  endloop
endfacet
facet normal -6.868370679313513e-15 5.412938001282007e-15 -1.0
  outer loop
    vertex -164.07423238517868 -204.47984035979255 4.0517525168315416e-09
    vertex -155.04010666636316 -204.418506847113 4.052068353077587e-09
    vertex -154.5742323851786 -204.4798403597927 4.052068353077587e-09
  endloop
endfacet
facet normal -6.868370679313513e-15 5.412938001282007e-15 -1.0
  outer loop
    vertex -155.04010666636316 -204.418506847113 4.052068353077587e-09
    vertex -164.07423238517868 -204.47984035979255 4.0517525168315416e-09
    vertex -163.60835810399414 -204.41850684711284 4.0517525168315416e-09
  endloop
endfacet
facet normal -6.868370679313513e-15 5.412938001282007e-15 -1.0
  outer loop
    vertex -155.04010666636316 -204.418506847113 4.052068353077587e-09
    vertex -163.60835810399414 -204.41850684711284 4.0517525168315416e-09
    vertex -155.4742323851786 -204.23868608660467 4.052068353077587e-09
  endloop
endfacet
facet normal -6.868370679313513e-15 5.412938001282007e-15 -1.0
  outer loop
    vertex -155.4742323851786 -204.23868608660467 4.052068353077587e-09
    vertex -163.60835810399414 -204.41850684711284 4.0517525168315416e-09
    vertex -163.17423238517867 -204.2386860866045 4.0517525168315416e-09
  endloop
endfacet
facet normal -6.868370679313513e-15 5.412938001282007e-15 -1.0
  outer loop
    vertex -155.4742323851786 -204.23868608660467 4.052068353077587e-09
    vertex -163.17423238517867 -204.2386860866045 4.0517525168315416e-09
    vertex -155.8470245913144 -203.9526325659285 4.052068353077587e-09
  endloop
endfacet
facet normal -6.868370679313513e-15 5.412938001282007e-15 -1.0
  outer loop
    vertex -155.8470245913144 -203.9526325659285 4.052068353077587e-09
    vertex -163.17423238517867 -204.2386860866045 4.0517525168315416e-09
    vertex -162.80144017904288 -203.9526325659283 4.0517525168315416e-09
  endloop
endfacet
facet normal -6.868370679313513e-15 5.412938001282007e-15 -1.0
  outer loop
    vertex -155.8470245913144 -203.9526325659285 4.052068353077587e-09
    vertex -162.80144017904288 -203.9526325659283 4.0517525168315416e-09
    vertex -156.13307811199064 -203.5798403597927 4.052068353077587e-09
  endloop
endfacet
facet normal -6.868370679313513e-15 5.412938001282007e-15 -1.0
  outer loop
    vertex -156.13307811199064 -203.5798403597927 4.052068353077587e-09
    vertex -162.80144017904288 -203.9526325659283 4.0517525168315416e-09
    vertex -162.51538665836665 -203.5798403597925 4.0517525168315416e-09
  endloop
endfacet
facet normal -6.868370679313513e-15 5.412938001282007e-15 -1.0
  outer loop
    vertex -156.13307811199064 -203.5798403597927 4.052068353077587e-09
    vertex -162.51538665836665 -203.5798403597925 4.0517525168315416e-09
    vertex -156.31289887249895 -203.14571464097722 4.052068353077587e-09
  endloop
endfacet
facet normal -6.868370679313513e-15 5.412938001282007e-15 -1.0
  outer loop
    vertex -156.31289887249895 -203.14571464097722 4.052068353077587e-09
    vertex -162.51538665836665 -203.5798403597925 4.0517525168315416e-09
    vertex -162.33556589785832 -203.14571464097708 4.0517525168315416e-09
  endloop
endfacet
facet normal -6.868370679313513e-15 5.412938001282007e-15 -1.0
  outer loop
    vertex -156.31289887249895 -203.14571464097722 4.052068353077587e-09
    vertex -162.33556589785832 -203.14571464097708 4.0517525168315416e-09
    vertex -156.3742323851786 -202.6798403597927 4.052068353077587e-09
  endloop
endfacet
facet normal -6.868370679313513e-15 5.412938001282007e-15 -1.0
  outer loop
    vertex -156.3742323851786 -202.6798403597927 4.052068353077587e-09
    vertex -162.33556589785832 -203.14571464097708 4.0517525168315416e-09
    vertex -162.2742323851786 -202.67984035979256 4.0517525168315416e-09
  endloop
endfacet
facet normal -6.868370679313513e-15 5.412938001282007e-15 -1.0
  outer loop
    vertex -156.3742323851786 -202.6798403597927 4.052068353077587e-09
    vertex -162.2742323851786 -202.67984035979256 4.0517525168315416e-09
    vertex -156.31289887249892 -202.21396607860814 4.052068353077587e-09
  endloop
endfacet
facet normal -6.868370679313513e-15 5.412938001282007e-15 -1.0
  outer loop
    vertex -156.31289887249892 -202.21396607860814 4.052068353077587e-09
    vertex -162.2742323851786 -202.67984035979256 4.0517525168315416e-09
    vertex -162.3355658978583 -202.21396607860802 4.0517525168315416e-09
  endloop
endfacet
facet normal -6.868370679313513e-15 5.412938001282007e-15 -1.0
  outer loop
    vertex -156.31289887249892 -202.21396607860814 4.052068353077587e-09
    vertex -162.3355658978583 -202.21396607860802 4.0517525168315416e-09
    vertex -156.13307811199064 -201.7798403597927 4.052068353077587e-09
  endloop
endfacet
facet normal -6.868370679313513e-15 5.412938001282007e-15 -1.0
  outer loop
    vertex -156.13307811199064 -201.7798403597927 4.052068353077587e-09
    vertex -162.3355658978583 -202.21396607860802 4.0517525168315416e-09
    vertex -162.51538665836657 -201.77984035979256 4.0517525168315416e-09
  endloop
endfacet
facet normal -6.868370679313513e-15 5.412938001282007e-15 -1.0
  outer loop
    vertex -156.13307811199064 -201.7798403597927 4.052068353077587e-09
    vertex -162.51538665836657 -201.77984035979256 4.0517525168315416e-09
    vertex -155.8470245913144 -201.40704815365692 4.052068353077587e-09
  endloop
endfacet
facet normal -6.868370679313513e-15 5.412938001282007e-15 -1.0
  outer loop
    vertex -155.8470245913144 -201.40704815365692 4.052068353077587e-09
    vertex -162.51538665836657 -201.77984035979256 4.0517525168315416e-09
    vertex -162.8014401790428 -201.40704815365677 4.0517525168315416e-09
  endloop
endfacet
facet normal -6.868370679313513e-15 5.412938001282007e-15 -1.0
  outer loop
    vertex -155.8470245913144 -201.40704815365692 4.052068353077587e-09
    vertex -162.8014401790428 -201.40704815365677 4.0517525168315416e-09
    vertex -155.47423238517862 -201.1209946329807 4.052068353077587e-09
  endloop
endfacet
facet normal -6.868370679313513e-15 5.412938001282007e-15 -1.0
  outer loop
    vertex -155.47423238517862 -201.1209946329807 4.052068353077587e-09
    vertex -162.8014401790428 -201.40704815365677 4.0517525168315416e-09
    vertex -163.17423238517858 -201.12099463298054 4.0517525168315416e-09
  endloop
endfacet
facet normal -6.868370679313513e-15 5.412938001282007e-15 -1.0
  outer loop
    vertex -155.47423238517862 -201.1209946329807 4.052068353077587e-09
    vertex -163.17423238517858 -201.12099463298054 4.0517525168315416e-09
    vertex -155.04010666636316 -200.94117387247238 4.052068353077587e-09
  endloop
endfacet
facet normal -6.868370679313513e-15 5.412938001282007e-15 -1.0
  outer loop
    vertex -155.04010666636316 -200.94117387247238 4.052068353077587e-09
    vertex -163.17423238517858 -201.12099463298054 4.0517525168315416e-09
    vertex -163.60835810399405 -200.94117387247218 4.0517525168315416e-09
  endloop
endfacet
facet normal -6.868370679313513e-15 5.412938001282007e-15 -1.0
  outer loop
    vertex -155.04010666636316 -200.94117387247238 4.052068353077587e-09
    vertex -163.60835810399405 -200.94117387247218 4.0517525168315416e-09
    vertex -154.57423238517865 -200.87984035979267 4.052068353077587e-09
  endloop
endfacet
facet normal -6.868370679313513e-15 5.412938001282007e-15 -1.0
  outer loop
    vertex -154.57423238517865 -200.87984035979267 4.052068353077587e-09
    vertex -163.60835810399405 -200.94117387247218 4.0517525168315416e-09
    vertex -164.07423238517856 -200.8798403597925 4.0517525168315416e-09
  endloop
endfacet
facet normal -6.868370679313513e-15 5.412938001282007e-15 -1.0
  outer loop
    vertex -169.27423238517858 -205.5298403597924 4.051572038976658e-09
    vertex -124.47423181573352 -215.5298403597927 4.051572920216184e-09
    vertex -144.47423181573353 -215.52984035979256 4.051572038976658e-09
  endloop
endfacet
facet normal -6.868370679313513e-15 5.412938001282007e-15 -1.0
  outer loop
    vertex -124.47423181573352 -215.5298403597927 4.051572920216184e-09
    vertex -169.27423238517858 -205.5298403597924 4.051572038976658e-09
    vertex -134.4742318157335 -208.32984035979266 4.051572038976658e-09
  endloop
endfacet
facet normal -6.868370679313513e-15 5.412938001282007e-15 -1.0
  outer loop
    vertex -134.4742318157335 -208.32984035979266 4.051572038976658e-09
    vertex -169.27423238517858 -205.5298403597924 4.051572038976658e-09
    vertex -135.19892514202056 -208.23443267340207 4.051572038976658e-09
  endloop
endfacet
facet normal -6.868370679313513e-15 5.412938001282007e-15 -1.0
  outer loop
    vertex -135.19892514202056 -208.23443267340207 4.051572038976658e-09
    vertex -169.27423238517858 -205.5298403597924 4.051572038976658e-09
    vertex -135.8742318157335 -207.95471149038906 4.051572038976658e-09
  endloop
endfacet
facet normal -6.868370679313513e-15 5.412938001282007e-15 -1.0
  outer loop
    vertex -135.8742318157335 -207.95471149038906 4.051572038976658e-09
    vertex -169.27423238517858 -205.5298403597924 4.051572038976658e-09
    vertex -136.45413080305582 -207.509739347115 4.051572038976658e-09
  endloop
endfacet
facet normal -6.868370679313513e-15 5.412938001282007e-15 -1.0
  outer loop
    vertex -136.45413080305582 -207.509739347115 4.051572038976658e-09
    vertex -169.27423238517858 -205.5298403597924 4.051572038976658e-09
    vertex -136.89910294632992 -206.92984035979268 4.051572038976658e-09
  endloop
endfacet
facet normal -6.868370679313513e-15 5.412938001282007e-15 -1.0
  outer loop
    vertex -136.89910294632992 -206.92984035979268 4.051572038976658e-09
    vertex -169.27423238517858 -205.5298403597924 4.051572038976658e-09
    vertex -137.1788241293429 -206.25453368607972 4.051572038976658e-09
  endloop
endfacet
facet normal -6.868370679313513e-15 5.412938001282007e-15 -1.0
  outer loop
    vertex -137.1788241293429 -206.25453368607972 4.051572038976658e-09
    vertex -169.27423238517858 -205.5298403597924 4.051572038976658e-09
    vertex -137.27423181573346 -205.52984035979262 4.051572038976658e-09
  endloop
endfacet
facet normal -6.868370679313513e-15 5.412938001282007e-15 -1.0
  outer loop
    vertex -137.27423181573346 -205.52984035979262 4.051572038976658e-09
    vertex -169.27423238517858 -205.5298403597924 4.051572038976658e-09
    vertex -137.17882412934287 -204.80514703350556 4.051572038976658e-09
  endloop
endfacet
facet normal -6.868370679313513e-15 5.412938001282007e-15 -1.0
  outer loop
    vertex -137.17882412934287 -204.80514703350556 4.051572038976658e-09
    vertex -169.27423238517858 -205.5298403597924 4.051572038976658e-09
    vertex -164.07423238517868 -204.47984035979255 4.0517525168315416e-09
  endloop
endfacet
facet normal -6.868370679313513e-15 5.412938001282007e-15 -1.0
  outer loop
    vertex -164.07423238517868 -204.47984035979255 4.0517525168315416e-09
    vertex -169.27423238517858 -205.5298403597924 4.051572038976658e-09
    vertex -164.5401066663632 -204.41850684711284 4.0517525168315416e-09
  endloop
endfacet
facet normal -6.868370679313513e-15 5.412938001282007e-15 -1.0
  outer loop
    vertex -164.5401066663632 -204.41850684711284 4.0517525168315416e-09
    vertex -169.27423238517858 -205.5298403597924 4.051572038976658e-09
    vertex -164.97423238517865 -204.2386860866045 4.0517525168315416e-09
  endloop
endfacet
facet normal -6.868370679313513e-15 5.412938001282007e-15 -1.0
  outer loop
    vertex -164.97423238517865 -204.2386860866045 4.0517525168315416e-09
    vertex -169.27423238517858 -205.5298403597924 4.051572038976658e-09
    vertex -165.34702459131444 -203.95263256592827 4.0517525168315416e-09
  endloop
endfacet
facet normal -6.868370679313513e-15 5.412938001282007e-15 -1.0
  outer loop
    vertex -165.34702459131444 -203.95263256592827 4.0517525168315416e-09
    vertex -169.27423238517858 -205.5298403597924 4.051572038976658e-09
    vertex -165.63307811199067 -203.57984035979248 4.0517525168315416e-09
  endloop
endfacet
facet normal -6.868370679313513e-15 5.412938001282007e-15 -1.0
  outer loop
    vertex -165.63307811199067 -203.57984035979248 4.0517525168315416e-09
    vertex -169.27423238517858 -205.5298403597924 4.051572038976658e-09
    vertex -169.27423238517852 -195.52984035979242 4.051572038976658e-09
  endloop
endfacet
facet normal -6.868370679313513e-15 5.412938001282007e-15 -1.0
  outer loop
    vertex -137.17882412934287 -204.80514703350556 4.051572038976658e-09
    vertex -164.07423238517868 -204.47984035979255 4.0517525168315416e-09
    vertex -154.5742323851786 -204.4798403597927 4.052068353077587e-09
  endloop
endfacet
facet normal -6.868370679313513e-15 5.412938001282007e-15 -1.0
  outer loop
    vertex -165.63307811199067 -203.57984035979248 4.0517525168315416e-09
    vertex -169.27423238517852 -195.52984035979242 4.051572038976658e-09
    vertex -165.81289887249895 -203.14571464097702 4.0517525168315416e-09
  endloop
endfacet
facet normal -6.868370679313513e-15 5.412938001282007e-15 -1.0
  outer loop
    vertex -165.81289887249895 -203.14571464097702 4.0517525168315416e-09
    vertex -169.27423238517852 -195.52984035979242 4.051572038976658e-09
    vertex -165.8742323851786 -202.67984035979245 4.0517525168315416e-09
  endloop
endfacet
facet normal -6.868370679313513e-15 5.412938001282007e-15 -1.0
  outer loop
    vertex -165.8742323851786 -202.67984035979245 4.0517525168315416e-09
    vertex -169.27423238517852 -195.52984035979242 4.051572038976658e-09
    vertex -165.81289887249895 -202.21396607860794 4.0517525168315416e-09
  endloop
endfacet
facet normal -6.868370679313513e-15 5.412938001282007e-15 -1.0
  outer loop
    vertex -165.81289887249895 -202.21396607860794 4.0517525168315416e-09
    vertex -169.27423238517852 -195.52984035979242 4.051572038976658e-09
    vertex -165.6330781119906 -201.77984035979247 4.0517525168315416e-09
  endloop
endfacet
facet normal -6.868370679313513e-15 5.412938001282007e-15 -1.0
  outer loop
    vertex -165.6330781119906 -201.77984035979247 4.0517525168315416e-09
    vertex -169.27423238517852 -195.52984035979242 4.051572038976658e-09
    vertex -165.34702459131438 -201.4070481536567 4.0517525168315416e-09
  endloop
endfacet
facet normal -6.868370679313513e-15 5.412938001282007e-15 -1.0
  outer loop
    vertex -165.34702459131438 -201.4070481536567 4.0517525168315416e-09
    vertex -169.27423238517852 -195.52984035979242 4.051572038976658e-09
    vertex -164.9742323851786 -201.1209946329805 4.0517525168315416e-09
  endloop
endfacet
facet normal -6.868370679313513e-15 5.412938001282007e-15 -1.0
  outer loop
    vertex -164.9742323851786 -201.1209946329805 4.0517525168315416e-09
    vertex -169.27423238517852 -195.52984035979242 4.051572038976658e-09
    vertex -164.54010666636313 -200.94117387247218 4.0517525168315416e-09
  endloop
endfacet
facet normal -6.868370679313513e-15 5.412938001282007e-15 -1.0
  outer loop
    vertex -164.54010666636313 -200.94117387247218 4.0517525168315416e-09
    vertex -169.27423238517852 -195.52984035979242 4.051572038976658e-09
    vertex -164.07423238517856 -200.8798403597925 4.0517525168315416e-09
  endloop
endfacet
facet normal -6.868370679313513e-15 5.412938001282007e-15 -1.0
  outer loop
    vertex -124.47423181573352 -215.5298403597927 4.051572920216184e-09
    vertex -132.04936068513706 -206.92984035979268 4.051572038976658e-09
    vertex -124.4742318157334 -195.5298403597927 4.051572920216184e-09
  endloop
endfacet
facet normal -6.868370679313513e-15 5.412938001282007e-15 -1.0
  outer loop
    vertex -132.04936068513706 -206.92984035979268 4.051572038976658e-09
    vertex -124.47423181573352 -215.5298403597927 4.051572920216184e-09
    vertex -132.49433282841113 -207.50973934711502 4.051572038976658e-09
  endloop
endfacet
facet normal -6.868370679313513e-15 5.412938001282007e-15 -1.0
  outer loop
    vertex -132.49433282841113 -207.50973934711502 4.051572038976658e-09
    vertex -124.47423181573352 -215.5298403597927 4.051572920216184e-09
    vertex -133.0742318157335 -207.9547114903891 4.051572038976658e-09
  endloop
endfacet
facet normal -6.868370679313513e-15 5.412938001282007e-15 -1.0
  outer loop
    vertex -133.0742318157335 -207.9547114903891 4.051572038976658e-09
    vertex -124.47423181573352 -215.5298403597927 4.051572920216184e-09
    vertex -133.74953848944645 -208.23443267340207 4.051572038976658e-09
  endloop
endfacet
facet normal -6.868370679313513e-15 5.412938001282007e-15 -1.0
  outer loop
    vertex -133.74953848944645 -208.23443267340207 4.051572038976658e-09
    vertex -124.47423181573352 -215.5298403597927 4.051572920216184e-09
    vertex -134.4742318157335 -208.32984035979266 4.051572038976658e-09
  endloop
endfacet
facet normal -6.868370679313513e-15 5.412938001282007e-15 -1.0
  outer loop
    vertex -124.4742318157334 -195.5298403597927 4.051572920216184e-09
    vertex -132.04936068513706 -206.92984035979268 4.051572038976658e-09
    vertex -131.76963950212408 -206.25453368607972 4.051572038976658e-09
  endloop
endfacet
facet normal -6.868370679313513e-15 5.412938001282007e-15 -1.0
  outer loop
    vertex -124.4742318157334 -195.5298403597927 4.051572920216184e-09
    vertex -131.76963950212408 -206.25453368607972 4.051572038976658e-09
    vertex -131.6742318157335 -205.52984035979267 4.051572038976658e-09
  endloop
endfacet
facet normal -6.868370679313513e-15 5.412938001282007e-15 -1.0
  outer loop
    vertex -124.4742318157334 -195.5298403597927 4.051572920216184e-09
    vertex -131.6742318157335 -205.52984035979267 4.051572038976658e-09
    vertex -131.76963950212408 -204.80514703350562 4.051572038976658e-09
  endloop
endfacet
facet normal -6.868370679313513e-15 5.412938001282007e-15 -1.0
  outer loop
    vertex -124.4742318157334 -195.5298403597927 4.051572920216184e-09
    vertex -131.76963950212408 -204.80514703350562 4.051572038976658e-09
    vertex -132.04936068513703 -204.12984035979267 4.051572038976658e-09
  endloop
endfacet
facet normal -6.868370679313513e-15 5.412938001282007e-15 -1.0
  outer loop
    vertex -124.4742318157334 -195.5298403597927 4.051572920216184e-09
    vertex -132.04936068513703 -204.12984035979267 4.051572038976658e-09
    vertex -132.49433282841116 -203.54994137247036 4.051572038976658e-09
  endloop
endfacet
facet normal -6.868370679313513e-15 5.412938001282007e-15 -1.0
  outer loop
    vertex -124.4742318157334 -195.5298403597927 4.051572920216184e-09
    vertex -132.49433282841116 -203.54994137247036 4.051572038976658e-09
    vertex -133.07423181573347 -203.10496922919623 4.051572038976658e-09
  endloop
endfacet
facet normal -6.868370679313513e-15 5.412938001282007e-15 -1.0
  outer loop
    vertex -124.4742318157334 -195.5298403597927 4.051572920216184e-09
    vertex -133.07423181573347 -203.10496922919623 4.051572038976658e-09
    vertex -133.74953848944642 -202.82524804618328 4.051572038976658e-09
  endloop
endfacet
facet normal -6.868370679313513e-15 5.412938001282007e-15 -1.0
  outer loop
    vertex -124.4742318157334 -195.5298403597927 4.051572920216184e-09
    vertex -133.74953848944642 -202.82524804618328 4.051572038976658e-09
    vertex -134.47423181573345 -202.72984035979266 4.051572038976658e-09
  endloop
endfacet
facet normal -6.868370679313513e-15 5.412938001282007e-15 -1.0
  outer loop
    vertex -124.4742318157334 -195.5298403597927 4.051572920216184e-09
    vertex -134.47423181573345 -202.72984035979266 4.051572038976658e-09
    vertex -152.7742323851786 -202.67984035979265 4.052068353077587e-09
  endloop
endfacet
facet normal -6.868370679313513e-15 5.412938001282007e-15 -1.0
  outer loop
    vertex -124.4742318157334 -195.5298403597927 4.051572920216184e-09
    vertex -152.7742323851786 -202.67984035979265 4.052068353077587e-09
    vertex -152.8355658978583 -202.21396607860814 4.052068353077587e-09
  endloop
endfacet
facet normal -6.868370679313513e-15 5.412938001282007e-15 -1.0
  outer loop
    vertex -124.4742318157334 -195.5298403597927 4.051572920216184e-09
    vertex -152.8355658978583 -202.21396607860814 4.052068353077587e-09
    vertex -153.01538665836662 -201.77984035979267 4.052068353077587e-09
  endloop
endfacet
facet normal -6.868370679313513e-15 5.412938001282007e-15 -1.0
  outer loop
    vertex -124.4742318157334 -195.5298403597927 4.051572920216184e-09
    vertex -153.01538665836662 -201.77984035979267 4.052068353077587e-09
    vertex -153.30144017904286 -201.4070481536569 4.052068353077587e-09
  endloop
endfacet
facet normal -6.868370679313513e-15 5.412938001282007e-15 -1.0
  outer loop
    vertex -124.4742318157334 -195.5298403597927 4.051572920216184e-09
    vertex -153.30144017904286 -201.4070481536569 4.052068353077587e-09
    vertex -153.67423238517864 -201.12099463298068 4.052068353077587e-09
  endloop
endfacet
facet normal -6.868370679313513e-15 5.412938001282007e-15 -1.0
  outer loop
    vertex -124.4742318157334 -195.5298403597927 4.051572920216184e-09
    vertex -153.67423238517864 -201.12099463298068 4.052068353077587e-09
    vertex -154.1083581039941 -200.94117387247238 4.052068353077587e-09
  endloop
endfacet
facet normal -6.868370679313513e-15 5.412938001282007e-15 -1.0
  outer loop
    vertex -124.4742318157334 -195.5298403597927 4.051572920216184e-09
    vertex -154.1083581039941 -200.94117387247238 4.052068353077587e-09
    vertex -154.57423238517865 -200.87984035979267 4.052068353077587e-09
  endloop
endfacet
facet normal -6.868370679313513e-15 5.412938001282007e-15 -1.0
  outer loop
    vertex -124.4742318157334 -195.5298403597927 4.051572920216184e-09
    vertex -154.57423238517865 -200.87984035979267 4.052068353077587e-09
    vertex -164.07423238517856 -200.8798403597925 4.0517525168315416e-09
  endloop
endfacet
facet normal -6.868370679313513e-15 5.412938001282007e-15 -1.0
  outer loop
    vertex -124.4742318157334 -195.5298403597927 4.051572920216184e-09
    vertex -164.07423238517856 -200.8798403597925 4.0517525168315416e-09
    vertex -169.27423238517852 -195.52984035979242 4.051572038976658e-09
  endloop
endfacet
endsolid Much4
