solid Much4
facet normal 1.0 0.0 0.0
  outer loop
    vertex -54.7881421825799 -123.54607920370078 8.698601502987734e-09
    vertex -54.7881421825799 -133.9460792037008 5.000000008698602
    vertex -54.7881421825799 -133.9460792037008 8.698600797996114e-09
  endloop
endfacet
facet normal 1.0 0.0 0.0
  outer loop
    vertex -54.7881421825799 -133.9460792037008 5.000000008698602
    vertex -54.7881421825799 -123.54607920370078 8.698601502987734e-09
    vertex -54.7881421825799 -131.84607920370078 4.000000008698604
  endloop
endfacet
facet normal 1.0 0.0 0.0
  outer loop
    vertex -54.7881421825799 -131.84607920370078 4.000000008698604
    vertex -54.7881421825799 -123.54607920370078 8.698601502987734e-09
    vertex -54.7881421825799 -125.64607920370075 4.000000008698604
  endloop
endfacet
facet normal 1.0 0.0 0.0
  outer loop
    vertex -54.7881421825799 -125.64607920370075 4.000000008698604
    vertex -54.7881421825799 -123.54607920370078 8.698601502987734e-09
    vertex -54.7881421825799 -125.64607920370075 5.000000008698602
  endloop
endfacet
facet normal 1.0 0.0 0.0
  outer loop
    vertex -54.7881421825799 -125.64607920370075 5.000000008698602
    vertex -54.7881421825799 -123.54607920370078 8.698601502987734e-09
    vertex -54.7881421825799 -123.54607920370078 5.000000008698602
  endloop
endfacet
facet normal 1.0 0.0 0.0
  outer loop
    vertex -54.7881421825799 -131.84607920370078 5.000000008698602
    vertex -54.7881421825799 -133.9460792037008 5.000000008698602
    vertex -54.7881421825799 -131.84607920370078 4.000000008698604
  endloop
endfacet
facet normal 0.0 0.0 1.0
  outer loop
    vertex -60.83047359907201 -138.58252316988833 5.000000008698602
    vertex -61.388142446858865 -133.94607920370086 5.000000008699759
    vertex -61.98814218257991 -138.10300114186612 5.000000008698602
  endloop
endfacet
facet normal 0.0 0.0 1.0
  outer loop
    vertex -61.388142446858865 -133.94607920370086 5.000000008699759
    vertex -60.83047359907201 -138.58252316988833 5.000000008698602
    vertex -61.32680893417919 -134.41195348488537 5.000000008699759
  endloop
endfacet
facet normal 0.0 0.0 1.0
  outer loop
    vertex -61.32680893417919 -134.41195348488537 5.000000008699759
    vertex -60.83047359907201 -138.58252316988833 5.000000008698602
    vertex -61.146988173670856 -134.84607920370084 5.000000008699759
  endloop
endfacet
facet normal 0.0 0.0 1.0
  outer loop
    vertex -61.146988173670856 -134.84607920370084 5.000000008699759
    vertex -60.83047359907201 -138.58252316988833 5.000000008698602
    vertex -60.860934652994665 -135.21887140983662 5.000000008699759
  endloop
endfacet
facet normal 0.0 0.0 1.0
  outer loop
    vertex -60.860934652994665 -135.21887140983662 5.000000008699759
    vertex -60.83047359907201 -138.58252316988833 5.000000008698602
    vertex -60.48814244685889 -135.5049249305128 5.000000008699759
  endloop
endfacet
facet normal 0.0 0.0 1.0
  outer loop
    vertex -60.48814244685889 -135.5049249305128 5.000000008699759
    vertex -60.83047359907201 -138.58252316988833 5.000000008698602
    vertex -59.5881421825799 -138.74607920370082 5.000000008698602
  endloop
endfacet
facet normal 0.0 0.0 1.0
  outer loop
    vertex -60.48814244685889 -135.5049249305128 5.000000008699759
    vertex -59.5881421825799 -138.74607920370082 5.000000008698602
    vertex -60.054016728043436 -135.68474569102113 5.000000008699759
  endloop
endfacet
facet normal 0.0 0.0 1.0
  outer loop
    vertex -60.054016728043436 -135.68474569102113 5.000000008699759
    vertex -59.5881421825799 -138.74607920370082 5.000000008698602
    vertex -59.58814244685891 -135.74607920370082 5.000000008699759
  endloop
endfacet
facet normal 0.0 0.0 1.0
  outer loop
    vertex -59.58814244685891 -135.74607920370082 5.000000008699759
    vertex -59.5881421825799 -138.74607920370082 5.000000008698602
    vertex -59.122268165674384 -135.68474569102113 5.000000008699759
  endloop
endfacet
facet normal 0.0 0.0 1.0
  outer loop
    vertex -59.122268165674384 -135.68474569102113 5.000000008699759
    vertex -59.5881421825799 -138.74607920370082 5.000000008698602
    vertex -58.3458107660878 -138.58252316988833 5.000000008698602
  endloop
endfacet
facet normal 0.0 0.0 1.0
  outer loop
    vertex -59.122268165674384 -135.68474569102113 5.000000008699759
    vertex -58.3458107660878 -138.58252316988833 5.000000008698602
    vertex -58.68814244685893 -135.5049249305128 5.000000008699759
  endloop
endfacet
facet normal 0.0 0.0 1.0
  outer loop
    vertex -58.68814244685893 -135.5049249305128 5.000000008699759
    vertex -58.3458107660878 -138.58252316988833 5.000000008698602
    vertex -58.31535024072316 -135.21887140983662 5.000000008699759
  endloop
endfacet
facet normal 0.0 0.0 1.0
  outer loop
    vertex -58.31535024072316 -135.21887140983662 5.000000008699759
    vertex -58.3458107660878 -138.58252316988833 5.000000008698602
    vertex -57.1881421825799 -138.10300114186612 5.000000008698602
  endloop
endfacet
facet normal 0.0 0.0 1.0
  outer loop
    vertex -58.31535024072316 -135.21887140983662 5.000000008699759
    vertex -57.1881421825799 -138.10300114186612 5.000000008698602
    vertex -58.02929672004696 -134.84607920370084 5.000000008699759
  endloop
endfacet
facet normal 0.0 0.0 1.0
  outer loop
    vertex -58.02929672004696 -134.84607920370084 5.000000008699759
    vertex -57.1881421825799 -138.10300114186612 5.000000008698602
    vertex -57.84947595953864 -134.41195348488537 5.000000008699759
  endloop
endfacet
facet normal 0.0 0.0 1.0
  outer loop
    vertex -57.84947595953864 -134.41195348488537 5.000000008699759
    vertex -57.1881421825799 -138.10300114186612 5.000000008698602
    vertex -57.78814244685896 -133.94607920370086 5.000000008699759
  endloop
endfacet
facet normal 0.0 0.0 1.0
  outer loop
    vertex -64.22458614876743 -135.1884106201929 5.000000008698602
    vertex -64.3881421825799 -131.84607920370078 5.000000008698602
    vertex -64.3881421825799 -133.9460792037008 5.000000008698602
  endloop
endfacet
facet normal 0.0 0.0 1.0
  outer loop
    vertex -64.3881421825799 -131.84607920370078 5.000000008698602
    vertex -64.22458614876743 -135.1884106201929 5.000000008698602
    vertex -60.48814244685889 -132.3872334768889 5.000000008699759
  endloop
endfacet
facet normal 0.0 0.0 1.0
  outer loop
    vertex -64.3881421825799 -131.84607920370078 5.000000008698602
    vertex -60.48814244685889 -132.3872334768889 5.000000008699759
    vertex -60.054016728043436 -132.2074127163806 5.000000008699759
  endloop
endfacet
facet normal 0.0 0.0 1.0
  outer loop
    vertex -64.3881421825799 -131.84607920370078 5.000000008698602
    vertex -60.054016728043436 -132.2074127163806 5.000000008699759
    vertex -59.58814244685891 -132.1460792037009 5.000000008699759
  endloop
endfacet
facet normal 0.0 0.0 1.0
  outer loop
    vertex -64.3881421825799 -131.84607920370078 5.000000008698602
    vertex -59.58814244685891 -132.1460792037009 5.000000008699759
    vertex -54.7881421825799 -131.84607920370078 5.000000008698602
  endloop
endfacet
facet normal 0.0 0.0 1.0
  outer loop
    vertex -60.48814244685889 -132.3872334768889 5.000000008699759
    vertex -64.22458614876743 -135.1884106201929 5.000000008698602
    vertex -60.860934652994665 -132.6732869975651 5.000000008699759
  endloop
endfacet
facet normal 0.0 0.0 1.0
  outer loop
    vertex -60.860934652994665 -132.6732869975651 5.000000008699759
    vertex -64.22458614876743 -135.1884106201929 5.000000008698602
    vertex -63.74506412074521 -136.3460792037008 5.000000008698602
  endloop
endfacet
facet normal 0.0 0.0 1.0
  outer loop
    vertex -60.860934652994665 -132.6732869975651 5.000000008699759
    vertex -63.74506412074521 -136.3460792037008 5.000000008698602
    vertex -61.14698817367086 -133.04607920370088 5.000000008699759
  endloop
endfacet
facet normal 0.0 0.0 1.0
  outer loop
    vertex -61.14698817367086 -133.04607920370088 5.000000008699759
    vertex -63.74506412074521 -136.3460792037008 5.000000008698602
    vertex -62.98225473227533 -137.34019175339623 5.000000008698602
  endloop
endfacet
facet normal 0.0 0.0 1.0
  outer loop
    vertex -61.14698817367086 -133.04607920370088 5.000000008699759
    vertex -62.98225473227533 -137.34019175339623 5.000000008698602
    vertex -61.32680893417919 -133.48020492251635 5.000000008699759
  endloop
endfacet
facet normal 0.0 0.0 1.0
  outer loop
    vertex -61.32680893417919 -133.48020492251635 5.000000008699759
    vertex -62.98225473227533 -137.34019175339623 5.000000008698602
    vertex -61.98814218257991 -138.10300114186612 5.000000008698602
  endloop
endfacet
facet normal 0.0 0.0 1.0
  outer loop
    vertex -61.32680893417919 -133.48020492251635 5.000000008699759
    vertex -61.98814218257991 -138.10300114186612 5.000000008698602
    vertex -61.388142446858865 -133.94607920370086 5.000000008699759
  endloop
endfacet
facet normal 0.0 0.0 1.0
  outer loop
    vertex -54.7881421825799 -131.84607920370078 5.000000008698602
    vertex -59.58814244685891 -132.1460792037009 5.000000008699759
    vertex -59.122268165674384 -132.2074127163806 5.000000008699759
  endloop
endfacet
facet normal 0.0 0.0 1.0
  outer loop
    vertex -54.7881421825799 -131.84607920370078 5.000000008698602
    vertex -59.122268165674384 -132.2074127163806 5.000000008699759
    vertex -58.68814244685893 -132.3872334768889 5.000000008699759
  endloop
endfacet
facet normal 0.0 0.0 1.0
  outer loop
    vertex -54.7881421825799 -131.84607920370078 5.000000008698602
    vertex -58.68814244685893 -132.3872334768889 5.000000008699759
    vertex -58.31535024072316 -132.6732869975651 5.000000008699759
  endloop
endfacet
facet normal 0.0 0.0 1.0
  outer loop
    vertex -54.7881421825799 -131.84607920370078 5.000000008698602
    vertex -58.31535024072316 -132.6732869975651 5.000000008699759
    vertex -58.02929672004697 -133.04607920370088 5.000000008699759
  endloop
endfacet
facet normal 0.0 0.0 1.0
  outer loop
    vertex -54.7881421825799 -131.84607920370078 5.000000008698602
    vertex -58.02929672004697 -133.04607920370088 5.000000008699759
    vertex -57.84947595953864 -133.48020492251635 5.000000008699759
  endloop
endfacet
facet normal 0.0 0.0 1.0
  outer loop
    vertex -54.7881421825799 -131.84607920370078 5.000000008698602
    vertex -57.84947595953864 -133.48020492251635 5.000000008699759
    vertex -57.78814244685896 -133.94607920370086 5.000000008699759
  endloop
endfacet
facet normal 0.0 0.0 1.0
  outer loop
    vertex -54.7881421825799 -131.84607920370078 5.000000008698602
    vertex -57.78814244685896 -133.94607920370086 5.000000008699759
    vertex -57.1881421825799 -138.10300114186612 5.000000008698602
  endloop
endfacet
facet normal 0.0 0.0 1.0
  outer loop
    vertex -54.7881421825799 -131.84607920370078 5.000000008698602
    vertex -57.1881421825799 -138.10300114186612 5.000000008698602
    vertex -56.194029632884465 -137.34019175339623 5.000000008698602
  endloop
endfacet
facet normal 0.0 0.0 1.0
  outer loop
    vertex -54.7881421825799 -131.84607920370078 5.000000008698602
    vertex -56.194029632884465 -137.34019175339623 5.000000008698602
    vertex -55.43122024441459 -136.3460792037008 5.000000008698602
  endloop
endfacet
facet normal 0.0 0.0 1.0
  outer loop
    vertex -54.7881421825799 -131.84607920370078 5.000000008698602
    vertex -55.43122024441459 -136.3460792037008 5.000000008698602
    vertex -54.95169821639237 -135.1884106201929 5.000000008698602
  endloop
endfacet
facet normal 0.0 0.0 1.0
  outer loop
    vertex -54.7881421825799 -131.84607920370078 5.000000008698602
    vertex -54.95169821639237 -135.1884106201929 5.000000008698602
    vertex -54.7881421825799 -133.9460792037008 5.000000008698602
  endloop
endfacet
facet normal -2.7486166532028696e-33 2.7108266072174228e-17 -1.0
  outer loop
    vertex -61.32680893417923 -124.01195348488532 8.698602560475166e-09
    vertex -61.388142446858865 -133.94607920370086 8.698598330525441e-09
    vertex -61.38814244685891 -123.54607920370078 8.698602560475166e-09
  endloop
endfacet
facet normal -2.7486166532028696e-33 2.7108266072174228e-17 -1.0
  outer loop
    vertex -61.388142446858865 -133.94607920370086 8.698598330525441e-09
    vertex -61.32680893417923 -124.01195348488532 8.698602560475166e-09
    vertex -61.32680893417919 -133.48020492251635 8.698598330525441e-09
  endloop
endfacet
facet normal -2.7486166532028696e-33 2.7108266072174228e-17 -1.0
  outer loop
    vertex -61.32680893417919 -133.48020492251635 8.698598330525441e-09
    vertex -61.32680893417923 -124.01195348488532 8.698602560475166e-09
    vertex -61.1469881736709 -124.44607920370078 8.698602560475166e-09
  endloop
endfacet
facet normal -2.7486166532028696e-33 2.7108266072174228e-17 -1.0
  outer loop
    vertex -61.32680893417919 -133.48020492251635 8.698598330525441e-09
    vertex -61.1469881736709 -124.44607920370078 8.698602560475166e-09
    vertex -61.14698817367086 -133.04607920370088 8.698598330525441e-09
  endloop
endfacet
facet normal -2.7486166532028696e-33 2.7108266072174228e-17 -1.0
  outer loop
    vertex -61.14698817367086 -133.04607920370088 8.698598330525441e-09
    vertex -61.1469881736709 -124.44607920370078 8.698602560475166e-09
    vertex -60.86093465299469 -124.81887140983656 8.698602560475166e-09
  endloop
endfacet
facet normal -2.7486166532028696e-33 2.7108266072174228e-17 -1.0
  outer loop
    vertex -61.14698817367086 -133.04607920370088 8.698598330525441e-09
    vertex -60.86093465299469 -124.81887140983656 8.698602560475166e-09
    vertex -60.860934652994665 -132.6732869975651 8.698598330525441e-09
  endloop
endfacet
facet normal -2.7486166532028696e-33 2.7108266072174228e-17 -1.0
  outer loop
    vertex -60.860934652994665 -132.6732869975651 8.698598330525441e-09
    vertex -60.86093465299469 -124.81887140983656 8.698602560475166e-09
    vertex -60.48814244685891 -125.10492493051275 8.698602560475166e-09
  endloop
endfacet
facet normal -2.7486166532028696e-33 2.7108266072174228e-17 -1.0
  outer loop
    vertex -60.860934652994665 -132.6732869975651 8.698598330525441e-09
    vertex -60.48814244685891 -125.10492493051275 8.698602560475166e-09
    vertex -60.48814244685889 -132.3872334768889 8.698598330525441e-09
  endloop
endfacet
facet normal -2.7486166532028696e-33 2.7108266072174228e-17 -1.0
  outer loop
    vertex -60.48814244685889 -132.3872334768889 8.698598330525441e-09
    vertex -60.48814244685891 -125.10492493051275 8.698602560475166e-09
    vertex -60.05401672804345 -125.2847456910211 8.698602560475166e-09
  endloop
endfacet
facet normal -2.7486166532028696e-33 2.7108266072174228e-17 -1.0
  outer loop
    vertex -60.48814244685889 -132.3872334768889 8.698598330525441e-09
    vertex -60.05401672804345 -125.2847456910211 8.698602560475166e-09
    vertex -60.054016728043436 -132.2074127163806 8.698598330525441e-09
  endloop
endfacet
facet normal -2.7486166532028696e-33 2.7108266072174228e-17 -1.0
  outer loop
    vertex -60.054016728043436 -132.2074127163806 8.698598330525441e-09
    vertex -60.05401672804345 -125.2847456910211 8.698602560475166e-09
    vertex -59.58814244685891 -125.34607920370078 8.698602560475166e-09
  endloop
endfacet
facet normal -2.7486166532028696e-33 2.7108266072174228e-17 -1.0
  outer loop
    vertex -60.054016728043436 -132.2074127163806 8.698598330525441e-09
    vertex -59.58814244685891 -125.34607920370078 8.698602560475166e-09
    vertex -59.58814244685891 -132.1460792037009 8.698598330525441e-09
  endloop
endfacet
facet normal -2.7486166532028696e-33 2.7108266072174228e-17 -1.0
  outer loop
    vertex -59.58814244685891 -132.1460792037009 8.698598330525441e-09
    vertex -59.58814244685891 -125.34607920370078 8.698602560475166e-09
    vertex -59.12226816567437 -125.2847456910211 8.698602560475166e-09
  endloop
endfacet
facet normal -2.7486166532028696e-33 2.7108266072174228e-17 -1.0
  outer loop
    vertex -59.58814244685891 -132.1460792037009 8.698598330525441e-09
    vertex -59.12226816567437 -125.2847456910211 8.698602560475166e-09
    vertex -59.122268165674384 -132.2074127163806 8.698598330525441e-09
  endloop
endfacet
facet normal -2.7486166532028696e-33 2.7108266072174228e-17 -1.0
  outer loop
    vertex -59.122268165674384 -132.2074127163806 8.698598330525441e-09
    vertex -59.12226816567437 -125.2847456910211 8.698602560475166e-09
    vertex -58.68814244685893 -132.3872334768889 8.698598330525441e-09
  endloop
endfacet
facet normal -2.7486166532028696e-33 2.7108266072174228e-17 -1.0
  outer loop
    vertex -58.68814244685893 -132.3872334768889 8.698598330525441e-09
    vertex -59.12226816567437 -125.2847456910211 8.698602560475166e-09
    vertex -58.68814244685891 -125.10492493051275 8.698602560475166e-09
  endloop
endfacet
facet normal -2.7486166532028696e-33 2.7108266072174228e-17 -1.0
  outer loop
    vertex -58.68814244685893 -132.3872334768889 8.698598330525441e-09
    vertex -58.68814244685891 -125.10492493051275 8.698602560475166e-09
    vertex -58.31535024072316 -132.6732869975651 8.698598330525441e-09
  endloop
endfacet
facet normal -2.7486166532028696e-33 2.7108266072174228e-17 -1.0
  outer loop
    vertex -58.31535024072316 -132.6732869975651 8.698598330525441e-09
    vertex -58.68814244685891 -125.10492493051275 8.698602560475166e-09
    vertex -58.31535024072313 -124.81887140983656 8.698602560475166e-09
  endloop
endfacet
facet normal -2.7486166532028696e-33 2.7108266072174228e-17 -1.0
  outer loop
    vertex -58.31535024072316 -132.6732869975651 8.698598330525441e-09
    vertex -58.31535024072313 -124.81887140983656 8.698602560475166e-09
    vertex -58.02929672004697 -133.04607920370088 8.698598330525441e-09
  endloop
endfacet
facet normal -2.7486166532028696e-33 2.7108266072174228e-17 -1.0
  outer loop
    vertex -58.02929672004697 -133.04607920370088 8.698598330525441e-09
    vertex -58.31535024072313 -124.81887140983656 8.698602560475166e-09
    vertex -58.02929672004692 -124.44607920370078 8.698602560475166e-09
  endloop
endfacet
facet normal -2.7486166532028696e-33 2.7108266072174228e-17 -1.0
  outer loop
    vertex -58.02929672004697 -133.04607920370088 8.698598330525441e-09
    vertex -58.02929672004692 -124.44607920370078 8.698602560475166e-09
    vertex -57.84947595953864 -133.48020492251635 8.698598330525441e-09
  endloop
endfacet
facet normal -2.7486166532028696e-33 2.7108266072174228e-17 -1.0
  outer loop
    vertex -57.84947595953864 -133.48020492251635 8.698598330525441e-09
    vertex -58.02929672004692 -124.44607920370078 8.698602560475166e-09
    vertex -57.84947595953859 -124.01195348488532 8.698602560475166e-09
  endloop
endfacet
facet normal -2.7486166532028696e-33 2.7108266072174228e-17 -1.0
  outer loop
    vertex -57.84947595953864 -133.48020492251635 8.698598330525441e-09
    vertex -57.84947595953859 -124.01195348488532 8.698602560475166e-09
    vertex -57.78814244685896 -133.94607920370086 8.698598330525441e-09
  endloop
endfacet
facet normal -2.7486166532028696e-33 2.7108266072174228e-17 -1.0
  outer loop
    vertex -57.78814244685896 -133.94607920370086 8.698598330525441e-09
    vertex -57.84947595953859 -124.01195348488532 8.698602560475166e-09
    vertex -57.78814244685891 -123.54607920370078 8.698602560475166e-09
  endloop
endfacet
facet normal -2.7486166532028696e-33 2.7108266072174228e-17 -1.0
  outer loop
    vertex -64.22458614876743 -122.30374778720869 8.698601502987734e-09
    vertex -64.3881421825799 -133.9460792037008 8.698600797996114e-09
    vertex -64.3881421825799 -123.54607920370078 8.698601502987734e-09
  endloop
endfacet
facet normal -2.7486166532028696e-33 2.7108266072174228e-17 -1.0
  outer loop
    vertex -64.3881421825799 -133.9460792037008 8.698600797996114e-09
    vertex -64.22458614876743 -122.30374778720869 8.698601502987734e-09
    vertex -64.22458614876743 -135.1884106201929 8.698600797996114e-09
  endloop
endfacet
facet normal -2.7486166532028696e-33 2.7108266072174228e-17 -1.0
  outer loop
    vertex -64.22458614876743 -135.1884106201929 8.698600797996114e-09
    vertex -64.22458614876743 -122.30374778720869 8.698601502987734e-09
    vertex -63.74506412074521 -121.14607920370078 8.698601502987734e-09
  endloop
endfacet
facet normal -2.7486166532028696e-33 2.7108266072174228e-17 -1.0
  outer loop
    vertex -64.22458614876743 -135.1884106201929 8.698600797996114e-09
    vertex -63.74506412074521 -121.14607920370078 8.698601502987734e-09
    vertex -63.74506412074521 -136.3460792037008 8.698600797996114e-09
  endloop
endfacet
facet normal -2.7486166532028696e-33 2.7108266072174228e-17 -1.0
  outer loop
    vertex -63.74506412074521 -136.3460792037008 8.698600797996114e-09
    vertex -63.74506412074521 -121.14607920370078 8.698601502987734e-09
    vertex -62.98225473227533 -120.15196665400535 8.698601502987734e-09
  endloop
endfacet
facet normal -2.7486166532028696e-33 2.7108266072174228e-17 -1.0
  outer loop
    vertex -63.74506412074521 -136.3460792037008 8.698600797996114e-09
    vertex -62.98225473227533 -120.15196665400535 8.698601502987734e-09
    vertex -62.98225473227533 -137.34019175339623 8.698600797996114e-09
  endloop
endfacet
facet normal -2.7486166532028696e-33 2.7108266072174228e-17 -1.0
  outer loop
    vertex -62.98225473227533 -137.34019175339623 8.698600797996114e-09
    vertex -62.98225473227533 -120.15196665400535 8.698601502987734e-09
    vertex -61.98814218257991 -119.38915726553549 8.698601502987734e-09
  endloop
endfacet
facet normal -2.7486166532028696e-33 2.7108266072174228e-17 -1.0
  outer loop
    vertex -62.98225473227533 -137.34019175339623 8.698600797996114e-09
    vertex -61.98814218257991 -119.38915726553549 8.698601502987734e-09
    vertex -61.98814218257991 -138.10300114186612 8.698600797996114e-09
  endloop
endfacet
facet normal -2.7486166532028696e-33 2.7108266072174228e-17 -1.0
  outer loop
    vertex -61.98814218257991 -138.10300114186612 8.698600797996114e-09
    vertex -61.98814218257991 -119.38915726553549 8.698601502987734e-09
    vertex -61.38814244685891 -123.54607920370078 8.698602560475166e-09
  endloop
endfacet
facet normal -2.7486166532028696e-33 2.7108266072174228e-17 -1.0
  outer loop
    vertex -61.38814244685891 -123.54607920370078 8.698602560475166e-09
    vertex -61.98814218257991 -119.38915726553549 8.698601502987734e-09
    vertex -60.83047359907201 -118.90963523751326 8.698601502987734e-09
  endloop
endfacet
facet normal -2.7486166532028696e-33 2.7108266072174228e-17 -1.0
  outer loop
    vertex -61.38814244685891 -123.54607920370078 8.698602560475166e-09
    vertex -60.83047359907201 -118.90963523751326 8.698601502987734e-09
    vertex -61.32680893417923 -123.08020492251624 8.698602560475166e-09
  endloop
endfacet
facet normal -2.7486166532028696e-33 2.7108266072174228e-17 -1.0
  outer loop
    vertex -61.32680893417923 -123.08020492251624 8.698602560475166e-09
    vertex -60.83047359907201 -118.90963523751326 8.698601502987734e-09
    vertex -61.1469881736709 -122.64607920370078 8.698602560475166e-09
  endloop
endfacet
facet normal -2.7486166532028696e-33 2.7108266072174228e-17 -1.0
  outer loop
    vertex -61.1469881736709 -122.64607920370078 8.698602560475166e-09
    vertex -60.83047359907201 -118.90963523751326 8.698601502987734e-09
    vertex -60.86093465299469 -122.273286997565 8.698602560475166e-09
  endloop
endfacet
facet normal -2.7486166532028696e-33 2.7108266072174228e-17 -1.0
  outer loop
    vertex -60.86093465299469 -122.273286997565 8.698602560475166e-09
    vertex -60.83047359907201 -118.90963523751326 8.698601502987734e-09
    vertex -60.48814244685891 -121.9872334768888 8.698602560475166e-09
  endloop
endfacet
facet normal -2.7486166532028696e-33 2.7108266072174228e-17 -1.0
  outer loop
    vertex -60.48814244685891 -121.9872334768888 8.698602560475166e-09
    vertex -60.83047359907201 -118.90963523751326 8.698601502987734e-09
    vertex -59.5881421825799 -118.74607920370077 8.698601502987734e-09
  endloop
endfacet
facet normal -2.7486166532028696e-33 2.7108266072174228e-17 -1.0
  outer loop
    vertex -60.48814244685891 -121.9872334768888 8.698602560475166e-09
    vertex -59.5881421825799 -118.74607920370077 8.698601502987734e-09
    vertex -60.05401672804345 -121.80741271638045 8.698602560475166e-09
  endloop
endfacet
facet normal -2.7486166532028696e-33 2.7108266072174228e-17 -1.0
  outer loop
    vertex -60.05401672804345 -121.80741271638045 8.698602560475166e-09
    vertex -59.5881421825799 -118.74607920370077 8.698601502987734e-09
    vertex -59.58814244685891 -121.74607920370079 8.698602560475166e-09
  endloop
endfacet
facet normal -2.7486166532028696e-33 2.7108266072174228e-17 -1.0
  outer loop
    vertex -59.58814244685891 -121.74607920370079 8.698602560475166e-09
    vertex -59.5881421825799 -118.74607920370077 8.698601502987734e-09
    vertex -59.12226816567437 -121.80741271638045 8.698602560475166e-09
  endloop
endfacet
facet normal -2.7486166532028696e-33 2.7108266072174228e-17 -1.0
  outer loop
    vertex -59.12226816567437 -121.80741271638045 8.698602560475166e-09
    vertex -59.5881421825799 -118.74607920370077 8.698601502987734e-09
    vertex -58.3458107660878 -118.90963523751326 8.698601502987734e-09
  endloop
endfacet
facet normal -2.7486166532028696e-33 2.7108266072174228e-17 -1.0
  outer loop
    vertex -59.12226816567437 -121.80741271638045 8.698602560475166e-09
    vertex -58.3458107660878 -118.90963523751326 8.698601502987734e-09
    vertex -58.68814244685891 -121.9872334768888 8.698602560475166e-09
  endloop
endfacet
facet normal -2.7486166532028696e-33 2.7108266072174228e-17 -1.0
  outer loop
    vertex -58.68814244685891 -121.9872334768888 8.698602560475166e-09
    vertex -58.3458107660878 -118.90963523751326 8.698601502987734e-09
    vertex -58.31535024072313 -122.273286997565 8.698602560475166e-09
  endloop
endfacet
facet normal -2.7486166532028696e-33 2.7108266072174228e-17 -1.0
  outer loop
    vertex -58.31535024072313 -122.273286997565 8.698602560475166e-09
    vertex -58.3458107660878 -118.90963523751326 8.698601502987734e-09
    vertex -57.1881421825799 -119.38915726553549 8.698601502987734e-09
  endloop
endfacet
facet normal -2.7486166532028696e-33 2.7108266072174228e-17 -1.0
  outer loop
    vertex -58.31535024072313 -122.273286997565 8.698602560475166e-09
    vertex -57.1881421825799 -119.38915726553549 8.698601502987734e-09
    vertex -58.02929672004692 -122.64607920370078 8.698602560475166e-09
  endloop
endfacet
facet normal -2.7486166532028696e-33 2.7108266072174228e-17 -1.0
  outer loop
    vertex -58.02929672004692 -122.64607920370078 8.698602560475166e-09
    vertex -57.1881421825799 -119.38915726553549 8.698601502987734e-09
    vertex -57.84947595953859 -123.08020492251624 8.698602560475166e-09
  endloop
endfacet
facet normal -2.7486166532028696e-33 2.7108266072174228e-17 -1.0
  outer loop
    vertex -57.84947595953859 -123.08020492251624 8.698602560475166e-09
    vertex -57.1881421825799 -119.38915726553549 8.698601502987734e-09
    vertex -57.78814244685891 -123.54607920370078 8.698602560475166e-09
  endloop
endfacet
facet normal -2.7486166532028696e-33 2.7108266072174228e-17 -1.0
  outer loop
    vertex -61.98814218257991 -138.10300114186612 8.698600797996114e-09
    vertex -61.388142446858865 -133.94607920370086 8.698598330525441e-09
    vertex -60.83047359907201 -138.58252316988833 8.698600797996114e-09
  endloop
endfacet
facet normal -2.7486166532028696e-33 2.7108266072174228e-17 -1.0
  outer loop
    vertex -61.388142446858865 -133.94607920370086 8.698598330525441e-09
    vertex -61.98814218257991 -138.10300114186612 8.698600797996114e-09
    vertex -61.38814244685891 -123.54607920370078 8.698602560475166e-09
  endloop
endfacet
facet normal -2.7486166532028696e-33 2.7108266072174228e-17 -1.0
  outer loop
    vertex -60.83047359907201 -138.58252316988833 8.698600797996114e-09
    vertex -61.388142446858865 -133.94607920370086 8.698598330525441e-09
    vertex -61.32680893417919 -134.41195348488537 8.698598330525441e-09
  endloop
endfacet
facet normal -2.7486166532028696e-33 2.7108266072174228e-17 -1.0
  outer loop
    vertex -60.83047359907201 -138.58252316988833 8.698600797996114e-09
    vertex -61.32680893417919 -134.41195348488537 8.698598330525441e-09
    vertex -61.146988173670856 -134.84607920370084 8.698598330525441e-09
  endloop
endfacet
facet normal -2.7486166532028696e-33 2.7108266072174228e-17 -1.0
  outer loop
    vertex -60.83047359907201 -138.58252316988833 8.698600797996114e-09
    vertex -61.146988173670856 -134.84607920370084 8.698598330525441e-09
    vertex -60.860934652994665 -135.21887140983662 8.698598330525441e-09
  endloop
endfacet
facet normal -2.7486166532028696e-33 2.7108266072174228e-17 -1.0
  outer loop
    vertex -60.83047359907201 -138.58252316988833 8.698600797996114e-09
    vertex -60.860934652994665 -135.21887140983662 8.698598330525441e-09
    vertex -60.48814244685889 -135.5049249305128 8.698598330525441e-09
  endloop
endfacet
facet normal -2.7486166532028696e-33 2.7108266072174228e-17 -1.0
  outer loop
    vertex -60.83047359907201 -138.58252316988833 8.698600797996114e-09
    vertex -60.48814244685889 -135.5049249305128 8.698598330525441e-09
    vertex -59.5881421825799 -138.74607920370082 8.698600797996114e-09
  endloop
endfacet
facet normal -2.7486166532028696e-33 2.7108266072174228e-17 -1.0
  outer loop
    vertex -59.5881421825799 -138.74607920370082 8.698600797996114e-09
    vertex -60.48814244685889 -135.5049249305128 8.698598330525441e-09
    vertex -60.054016728043436 -135.68474569102113 8.698598330525441e-09
  endloop
endfacet
facet normal -2.7486166532028696e-33 2.7108266072174228e-17 -1.0
  outer loop
    vertex -59.5881421825799 -138.74607920370082 8.698600797996114e-09
    vertex -60.054016728043436 -135.68474569102113 8.698598330525441e-09
    vertex -59.58814244685891 -135.74607920370082 8.698598330525441e-09
  endloop
endfacet
facet normal -2.7486166532028696e-33 2.7108266072174228e-17 -1.0
  outer loop
    vertex -59.5881421825799 -138.74607920370082 8.698600797996114e-09
    vertex -59.58814244685891 -135.74607920370082 8.698598330525441e-09
    vertex -59.122268165674384 -135.68474569102113 8.698598330525441e-09
  endloop
endfacet
facet normal -2.7486166532028696e-33 2.7108266072174228e-17 -1.0
  outer loop
    vertex -59.5881421825799 -138.74607920370082 8.698600797996114e-09
    vertex -59.122268165674384 -135.68474569102113 8.698598330525441e-09
    vertex -58.3458107660878 -138.58252316988833 8.698600797996114e-09
  endloop
endfacet
facet normal -2.7486166532028696e-33 2.7108266072174228e-17 -1.0
  outer loop
    vertex -58.3458107660878 -138.58252316988833 8.698600797996114e-09
    vertex -59.122268165674384 -135.68474569102113 8.698598330525441e-09
    vertex -58.68814244685893 -135.5049249305128 8.698598330525441e-09
  endloop
endfacet
facet normal -2.7486166532028696e-33 2.7108266072174228e-17 -1.0
  outer loop
    vertex -58.3458107660878 -138.58252316988833 8.698600797996114e-09
    vertex -58.68814244685893 -135.5049249305128 8.698598330525441e-09
    vertex -58.31535024072316 -135.21887140983662 8.698598330525441e-09
  endloop
endfacet
facet normal -2.7486166532028696e-33 2.7108266072174228e-17 -1.0
  outer loop
    vertex -58.3458107660878 -138.58252316988833 8.698600797996114e-09
    vertex -58.31535024072316 -135.21887140983662 8.698598330525441e-09
    vertex -57.1881421825799 -138.10300114186612 8.698600797996114e-09
  endloop
endfacet
facet normal -2.7486166532028696e-33 2.7108266072174228e-17 -1.0
  outer loop
    vertex -57.1881421825799 -138.10300114186612 8.698600797996114e-09
    vertex -58.31535024072316 -135.21887140983662 8.698598330525441e-09
    vertex -58.02929672004696 -134.84607920370084 8.698598330525441e-09
  endloop
endfacet
facet normal -2.7486166532028696e-33 2.7108266072174228e-17 -1.0
  outer loop
    vertex -57.1881421825799 -138.10300114186612 8.698600797996114e-09
    vertex -58.02929672004696 -134.84607920370084 8.698598330525441e-09
    vertex -57.84947595953864 -134.41195348488537 8.698598330525441e-09
  endloop
endfacet
facet normal -2.7486166532028696e-33 2.7108266072174228e-17 -1.0
  outer loop
    vertex -57.1881421825799 -138.10300114186612 8.698600797996114e-09
    vertex -57.84947595953864 -134.41195348488537 8.698598330525441e-09
    vertex -57.78814244685896 -133.94607920370086 8.698598330525441e-09
  endloop
endfacet
facet normal -2.7486166532028696e-33 2.7108266072174228e-17 -1.0
  outer loop
    vertex -57.1881421825799 -138.10300114186612 8.698600797996114e-09
    vertex -57.78814244685896 -133.94607920370086 8.698598330525441e-09
    vertex -57.78814244685891 -123.54607920370078 8.698602560475166e-09
  endloop
endfacet
facet normal -2.7486166532028696e-33 2.7108266072174228e-17 -1.0
  outer loop
    vertex -57.1881421825799 -138.10300114186612 8.698600797996114e-09
    vertex -57.78814244685891 -123.54607920370078 8.698602560475166e-09
    vertex -57.1881421825799 -119.38915726553549 8.698601502987734e-09
  endloop
endfacet
facet normal -2.7486166532028696e-33 2.7108266072174228e-17 -1.0
  outer loop
    vertex -57.1881421825799 -138.10300114186612 8.698600797996114e-09
    vertex -57.1881421825799 -119.38915726553549 8.698601502987734e-09
    vertex -56.194029632884465 -120.15196665400535 8.698601502987734e-09
  endloop
endfacet
facet normal -2.7486166532028696e-33 2.7108266072174228e-17 -1.0
  outer loop
    vertex -57.1881421825799 -138.10300114186612 8.698600797996114e-09
    vertex -56.194029632884465 -120.15196665400535 8.698601502987734e-09
    vertex -56.194029632884465 -137.34019175339623 8.698600797996114e-09
  endloop
endfacet
facet normal -2.7486166532028696e-33 2.7108266072174228e-17 -1.0
  outer loop
    vertex -56.194029632884465 -137.34019175339623 8.698600797996114e-09
    vertex -56.194029632884465 -120.15196665400535 8.698601502987734e-09
    vertex -55.43122024441459 -121.14607920370078 8.698601502987734e-09
  endloop
endfacet
facet normal -2.7486166532028696e-33 2.7108266072174228e-17 -1.0
  outer loop
    vertex -56.194029632884465 -137.34019175339623 8.698600797996114e-09
    vertex -55.43122024441459 -121.14607920370078 8.698601502987734e-09
    vertex -55.43122024441459 -136.3460792037008 8.698600797996114e-09
  endloop
endfacet
facet normal -2.7486166532028696e-33 2.7108266072174228e-17 -1.0
  outer loop
    vertex -55.43122024441459 -136.3460792037008 8.698600797996114e-09
    vertex -55.43122024441459 -121.14607920370078 8.698601502987734e-09
    vertex -54.95169821639237 -122.30374778720869 8.698601502987734e-09
  endloop
endfacet
facet normal -2.7486166532028696e-33 2.7108266072174228e-17 -1.0
  outer loop
    vertex -55.43122024441459 -136.3460792037008 8.698600797996114e-09
    vertex -54.95169821639237 -122.30374778720869 8.698601502987734e-09
    vertex -54.95169821639237 -135.1884106201929 8.698600797996114e-09
  endloop
endfacet
facet normal -2.7486166532028696e-33 2.7108266072174228e-17 -1.0
  outer loop
    vertex -54.95169821639237 -135.1884106201929 8.698600797996114e-09
    vertex -54.95169821639237 -122.30374778720869 8.698601502987734e-09
    vertex -54.7881421825799 -123.54607920370078 8.698601502987734e-09
  endloop
endfacet
facet normal -2.7486166532028696e-33 2.7108266072174228e-17 -1.0
  outer loop
    vertex -54.95169821639237 -135.1884106201929 8.698600797996114e-09
    vertex -54.7881421825799 -123.54607920370078 8.698601502987734e-09
    vertex -54.7881421825799 -133.9460792037008 8.698600797996114e-09
  endloop
endfacet
facet normal -1.0 0.0 0.0
  outer loop
    vertex -64.3881421825799 -123.54607920370078 5.000000008698602
    vertex -64.3881421825799 -125.64607920370075 4.000000008698604
    vertex -64.3881421825799 -125.64607920370075 5.000000008698602
  endloop
endfacet
facet normal -1.0 0.0 0.0
  outer loop
    vertex -64.3881421825799 -131.84607920370078 5.000000008698602
    vertex -64.3881421825799 -133.9460792037008 8.698600797996114e-09
    vertex -64.3881421825799 -133.9460792037008 5.000000008698602
  endloop
endfacet
facet normal -1.0 0.0 0.0
  outer loop
    vertex -64.3881421825799 -133.9460792037008 8.698600797996114e-09
    vertex -64.3881421825799 -131.84607920370078 5.000000008698602
    vertex -64.3881421825799 -131.84607920370078 4.000000008698604
  endloop
endfacet
facet normal -1.0 0.0 0.0
  outer loop
    vertex -64.3881421825799 -133.9460792037008 8.698600797996114e-09
    vertex -64.3881421825799 -131.84607920370078 4.000000008698604
    vertex -64.3881421825799 -123.54607920370078 8.698601502987734e-09
  endloop
endfacet
facet normal -1.0 0.0 0.0
  outer loop
    vertex -64.3881421825799 -123.54607920370078 8.698601502987734e-09
    vertex -64.3881421825799 -131.84607920370078 4.000000008698604
    vertex -64.3881421825799 -125.64607920370075 4.000000008698604
  endloop
endfacet
facet normal -1.0 0.0 0.0
  outer loop
    vertex -64.3881421825799 -123.54607920370078 8.698601502987734e-09
    vertex -64.3881421825799 -125.64607920370075 4.000000008698604
    vertex -64.3881421825799 -123.54607920370078 5.000000008698602
  endloop
endfacet
facet normal 0.0 1.0 0.0
  outer loop
    vertex -59.58814244685891 -135.74607920370082 5.000000008699759
    vertex -59.122268165674384 -135.68474569102113 8.698598330525441e-09
    vertex -59.58814244685891 -135.74607920370082 8.698598330525441e-09
  endloop
endfacet
facet normal -0.258819045102516 0.9659258262890698 0.0
  outer loop
    vertex -59.122268165674384 -135.68474569102113 8.698598330525441e-09
    vertex -59.58814244685891 -135.74607920370082 5.000000008699759
    vertex -59.122268165674384 -135.68474569102113 5.000000008699759
  endloop
endfacet
facet normal -0.8660254037844376 0.5000000000000022 0.0
  outer loop
    vertex -58.02929672004692 -124.44607920370078 5.000000008699775
    vertex -58.31535024072313 -124.81887140983656 8.698602560475166e-09
    vertex -58.31535024072313 -124.81887140983656 5.000000008699775
  endloop
endfacet
facet normal -0.7071067811865408 0.7071067811865542 0.0
  outer loop
    vertex -58.31535024072313 -124.81887140983656 8.698602560475166e-09
    vertex -58.02929672004692 -124.44607920370078 5.000000008699775
    vertex -58.02929672004692 -124.44607920370078 8.698602560475166e-09
  endloop
endfacet
facet normal -0.49999999999999994 -0.8660254037844388 2.5884265546815783e-16
  outer loop
    vertex -61.98814218257991 -138.10300114186612 5.000000008698602
    vertex -62.98225473227533 -137.34019175339623 8.698600797996114e-09
    vertex -61.98814218257991 -138.10300114186612 8.698600797996114e-09
  endloop
endfacet
facet normal -0.707106781186547 -0.7071067811865481 2.1134414318800441e-16
  outer loop
    vertex -62.98225473227533 -137.34019175339623 8.698600797996114e-09
    vertex -61.98814218257991 -138.10300114186612 5.000000008698602
    vertex -62.98225473227533 -137.34019175339623 5.000000008698602
  endloop
endfacet
facet normal 0.7071067811865449 -0.7071067811865501 2.1134414318800503e-16
  outer loop
    vertex -56.194029632884465 -137.34019175339623 5.000000008698602
    vertex -57.1881421825799 -138.10300114186612 8.698600797996114e-09
    vertex -56.194029632884465 -137.34019175339623 8.698600797996114e-09
  endloop
endfacet
facet normal 0.4999999999999975 -0.8660254037844402 2.588426554681583e-16
  outer loop
    vertex -57.1881421825799 -138.10300114186612 8.698600797996114e-09
    vertex -56.194029632884465 -137.34019175339623 5.000000008698602
    vertex -57.1881421825799 -138.10300114186612 5.000000008698602
  endloop
endfacet
facet normal -0.8660254037844404 -0.4999999999999971 1.494428768122975e-16
  outer loop
    vertex -63.74506412074521 -136.3460792037008 5.000000008698602
    vertex -62.98225473227533 -137.34019175339623 8.698600797996114e-09
    vertex -62.98225473227533 -137.34019175339623 5.000000008698602
  endloop
endfacet
facet normal -0.707106781186547 -0.7071067811865481 2.1134414318800441e-16
  outer loop
    vertex -62.98225473227533 -137.34019175339623 8.698600797996114e-09
    vertex -63.74506412074521 -136.3460792037008 5.000000008698602
    vertex -63.74506412074521 -136.3460792037008 8.698600797996114e-09
  endloop
endfacet
facet normal -0.7071067811865527 -0.7071067811865425 0.0
  outer loop
    vertex -58.31535024072316 -132.6732869975651 5.000000008699759
    vertex -58.68814244685893 -132.3872334768889 8.698598330525441e-09
    vertex -58.31535024072316 -132.6732869975651 8.698598330525441e-09
  endloop
endfacet
facet normal -0.4999999999999946 -0.8660254037844417 0.0
  outer loop
    vertex -58.68814244685893 -132.3872334768889 8.698598330525441e-09
    vertex -58.31535024072316 -132.6732869975651 5.000000008699759
    vertex -58.68814244685893 -132.3872334768889 5.000000008699759
  endloop
endfacet
facet normal -0.9659258262890704 0.2588190451025131 0.0
  outer loop
    vertex -57.84947595953864 -134.41195348488537 5.000000008699759
    vertex -58.02929672004696 -134.84607920370084 8.698598330525441e-09
    vertex -58.02929672004696 -134.84607920370084 5.000000008699759
  endloop
endfacet
facet normal -0.866025403784443 0.4999999999999925 0.0
  outer loop
    vertex -58.02929672004696 -134.84607920370084 8.698598330525441e-09
    vertex -57.84947595953864 -134.41195348488537 5.000000008699759
    vertex -57.84947595953864 -134.41195348488537 8.698598330525441e-09
  endloop
endfacet
facet normal -0.707106781186547 0.7071067811865481 2.0780966372135775e-16
  outer loop
    vertex -62.98225473227533 -120.15196665400535 5.000000008698602
    vertex -61.98814218257991 -119.38915726553549 8.698601502987734e-09
    vertex -62.98225473227533 -120.15196665400535 8.698601502987734e-09
  endloop
endfacet
facet normal -0.49999999999999994 0.8660254037844388 2.5451381986834347e-16
  outer loop
    vertex -61.98814218257991 -119.38915726553549 8.698601502987734e-09
    vertex -62.98225473227533 -120.15196665400535 5.000000008698602
    vertex -61.98814218257991 -119.38915726553549 5.000000008698602
  endloop
endfacet
facet normal -0.707106781186547 0.7071067811865481 2.0780966372135775e-16
  outer loop
    vertex -62.98225473227533 -120.15196665400535 5.000000008698602
    vertex -63.74506412074521 -121.14607920370078 8.698601502987734e-09
    vertex -63.74506412074521 -121.14607920370078 5.000000008698602
  endloop
endfacet
facet normal -0.8660254037844404 0.4999999999999971 1.4694362241346705e-16
  outer loop
    vertex -63.74506412074521 -121.14607920370078 8.698601502987734e-09
    vertex -62.98225473227533 -120.15196665400535 5.000000008698602
    vertex -62.98225473227533 -120.15196665400535 8.698601502987734e-09
  endloop
endfacet
facet normal 0.0 0.0 1.0
  outer loop
    vertex -54.7881421825799 -131.84607920370078 4.000000008698604
    vertex -64.3881421825799 -125.64607920370075 4.000000008698604
    vertex -64.3881421825799 -131.84607920370078 4.000000008698604
  endloop
endfacet
facet normal 0.0 0.0 1.0
  outer loop
    vertex -64.3881421825799 -125.64607920370075 4.000000008698604
    vertex -54.7881421825799 -131.84607920370078 4.000000008698604
    vertex -54.7881421825799 -125.64607920370075 4.000000008698604
  endloop
endfacet
facet normal 0.258819045102516 0.9659258262890698 0.0
  outer loop
    vertex -60.054016728043436 -135.68474569102113 5.000000008699759
    vertex -59.58814244685891 -135.74607920370082 8.698598330525441e-09
    vertex -60.054016728043436 -135.68474569102113 8.698598330525441e-09
  endloop
endfacet
facet normal 0.0 1.0 0.0
  outer loop
    vertex -59.58814244685891 -135.74607920370082 8.698598330525441e-09
    vertex -60.054016728043436 -135.68474569102113 5.000000008699759
    vertex -59.58814244685891 -135.74607920370082 5.000000008699759
  endloop
endfacet
facet normal -0.8660254037844404 0.4999999999999971 1.4694362241346705e-16
  outer loop
    vertex -63.74506412074521 -121.14607920370078 5.000000008698602
    vertex -64.22458614876743 -122.30374778720869 8.698601502987734e-09
    vertex -64.22458614876743 -122.30374778720869 5.000000008698602
  endloop
endfacet
facet normal -0.9659258262890685 0.25881904510252035 5.671812117864545e-17
  outer loop
    vertex -64.22458614876743 -122.30374778720869 8.698601502987734e-09
    vertex -63.74506412074521 -121.14607920370078 5.000000008698602
    vertex -63.74506412074521 -121.14607920370078 8.698601502987734e-09
  endloop
endfacet
facet normal -0.7071067811865527 -0.7071067811865425 0.0
  outer loop
    vertex -58.31535024072316 -132.6732869975651 5.000000008699759
    vertex -58.02929672004697 -133.04607920370088 8.698598330525441e-09
    vertex -58.02929672004697 -133.04607920370088 5.000000008699759
  endloop
endfacet
facet normal -0.8660254037844423 -0.4999999999999941 0.0
  outer loop
    vertex -58.02929672004697 -133.04607920370088 8.698598330525441e-09
    vertex -58.31535024072316 -132.6732869975651 5.000000008699759
    vertex -58.31535024072316 -132.6732869975651 8.698598330525441e-09
  endloop
endfacet
facet normal 0.8660254037844404 -0.4999999999999971 1.4944287681229763e-16
  outer loop
    vertex -55.43122024441459 -136.3460792037008 8.698600797996114e-09
    vertex -56.194029632884465 -137.34019175339623 5.000000008698602
    vertex -56.194029632884465 -137.34019175339623 8.698600797996114e-09
  endloop
endfacet
facet normal 0.7071067811865449 -0.7071067811865501 2.1134414318800503e-16
  outer loop
    vertex -56.194029632884465 -137.34019175339623 5.000000008698602
    vertex -55.43122024441459 -136.3460792037008 8.698600797996114e-09
    vertex -55.43122024441459 -136.3460792037008 5.000000008698602
  endloop
endfacet
facet normal 0.2588190451025287 -0.9659258262890662 2.887014685358691e-16
  outer loop
    vertex -58.3458107660878 -138.58252316988833 5.000000008698602
    vertex -59.5881421825799 -138.74607920370082 8.698600797996114e-09
    vertex -58.3458107660878 -138.58252316988833 8.698600797996114e-09
  endloop
endfacet
facet normal 5.881332531126966e-16 -1.0 2.9888575362459694e-16
  outer loop
    vertex -59.5881421825799 -138.74607920370082 8.698600797996114e-09
    vertex -58.3458107660878 -138.58252316988833 5.000000008698602
    vertex -59.5881421825799 -138.74607920370082 5.000000008698602
  endloop
endfacet
facet normal -0.7071067811865408 -0.7071067811865542 0.0
  outer loop
    vertex -58.31535024072313 -122.273286997565 5.000000008699775
    vertex -58.02929672004692 -122.64607920370078 8.698602560475166e-09
    vertex -58.02929672004692 -122.64607920370078 5.000000008699775
  endloop
endfacet
facet normal -0.8660254037844376 -0.5000000000000022 0.0
  outer loop
    vertex -58.02929672004692 -122.64607920370078 8.698602560475166e-09
    vertex -58.31535024072313 -122.273286997565 5.000000008699775
    vertex -58.31535024072313 -122.273286997565 8.698602560475166e-09
  endloop
endfacet
facet normal 0.866025403784443 -0.4999999999999925 0.0
  outer loop
    vertex -61.14698817367086 -133.04607920370088 8.698598330525441e-09
    vertex -61.32680893417919 -133.48020492251635 5.000000008699759
    vertex -61.32680893417919 -133.48020492251635 8.698598330525441e-09
  endloop
endfacet
facet normal 0.9659258262890704 -0.2588190451025131 0.0
  outer loop
    vertex -61.32680893417919 -133.48020492251635 5.000000008699759
    vertex -61.14698817367086 -133.04607920370088 8.698598330525441e-09
    vertex -61.14698817367086 -133.04607920370088 5.000000008699759
  endloop
endfacet
facet normal 0.8660254037844376 0.5000000000000022 0.0
  outer loop
    vertex -61.1469881736709 -124.44607920370078 8.698602560475166e-09
    vertex -60.86093465299469 -124.81887140983656 5.000000008699775
    vertex -60.86093465299469 -124.81887140983656 8.698602560475166e-09
  endloop
endfacet
facet normal 0.7071067811865408 0.7071067811865542 0.0
  outer loop
    vertex -60.86093465299469 -124.81887140983656 5.000000008699775
    vertex -61.1469881736709 -124.44607920370078 8.698602560475166e-09
    vertex -61.1469881736709 -124.44607920370078 5.000000008699775
  endloop
endfacet
facet normal -0.9659258262890684 0.2588190451025207 0.0
  outer loop
    vertex -57.84947595953859 -124.01195348488532 5.000000008699775
    vertex -58.02929672004692 -124.44607920370078 8.698602560475166e-09
    vertex -58.02929672004692 -124.44607920370078 5.000000008699775
  endloop
endfacet
facet normal -0.8660254037844376 0.5000000000000022 0.0
  outer loop
    vertex -58.02929672004692 -124.44607920370078 8.698602560475166e-09
    vertex -57.84947595953859 -124.01195348488532 5.000000008699775
    vertex -57.84947595953859 -124.01195348488532 8.698602560475166e-09
  endloop
endfacet
facet normal 0.0 1.0 0.0
  outer loop
    vertex -59.58814244685891 -125.34607920370078 5.000000008699775
    vertex -59.12226816567437 -125.2847456910211 8.698602560475166e-09
    vertex -59.58814244685891 -125.34607920370078 8.698602560475166e-09
  endloop
endfacet
facet normal -0.25881904510253145 0.9659258262890656 0.0
  outer loop
    vertex -59.12226816567437 -125.2847456910211 8.698602560475166e-09
    vertex -59.58814244685891 -125.34607920370078 5.000000008699775
    vertex -59.12226816567437 -125.2847456910211 5.000000008699775
  endloop
endfacet
facet normal 0.5000000000000036 0.8660254037844367 0.0
  outer loop
    vertex -60.48814244685891 -125.10492493051275 5.000000008699775
    vertex -60.05401672804345 -125.2847456910211 8.698602560475166e-09
    vertex -60.48814244685891 -125.10492493051275 8.698602560475166e-09
  endloop
endfacet
facet normal 0.25881904510253145 0.9659258262890656 0.0
  outer loop
    vertex -60.05401672804345 -125.2847456910211 8.698602560475166e-09
    vertex -60.48814244685891 -125.10492493051275 5.000000008699775
    vertex -60.05401672804345 -125.2847456910211 5.000000008699775
  endloop
endfacet
facet normal 0.9659258262890684 -0.2588190451025207 0.0
  outer loop
    vertex -61.32680893417923 -123.08020492251624 8.698602560475166e-09
    vertex -61.38814244685891 -123.54607920370078 5.000000008699775
    vertex -61.38814244685891 -123.54607920370078 8.698602560475166e-09
  endloop
endfacet
facet normal 1.0 0.0 0.0
  outer loop
    vertex -61.38814244685891 -123.54607920370078 5.000000008699775
    vertex -61.32680893417923 -123.08020492251624 8.698602560475166e-09
    vertex -61.32680893417923 -123.08020492251624 5.000000008699775
  endloop
endfacet
facet normal 0.25881904510253145 0.9659258262890656 0.0
  outer loop
    vertex -60.05401672804345 -125.2847456910211 5.000000008699775
    vertex -59.58814244685891 -125.34607920370078 8.698602560475166e-09
    vertex -60.05401672804345 -125.2847456910211 8.698602560475166e-09
  endloop
endfacet
facet normal 0.0 1.0 0.0
  outer loop
    vertex -59.58814244685891 -125.34607920370078 8.698602560475166e-09
    vertex -60.05401672804345 -125.2847456910211 5.000000008699775
    vertex -59.58814244685891 -125.34607920370078 5.000000008699775
  endloop
endfacet
facet normal -0.4999999999999946 -0.8660254037844417 0.0
  outer loop
    vertex -58.68814244685893 -132.3872334768889 5.000000008699759
    vertex -59.122268165674384 -132.2074127163806 8.698598330525441e-09
    vertex -58.68814244685893 -132.3872334768889 8.698598330525441e-09
  endloop
endfacet
facet normal -0.258819045102516 -0.9659258262890698 0.0
  outer loop
    vertex -59.122268165674384 -132.2074127163806 8.698598330525441e-09
    vertex -58.68814244685893 -132.3872334768889 5.000000008699759
    vertex -59.122268165674384 -132.2074127163806 5.000000008699759
  endloop
endfacet
facet normal 0.258819045102516 -0.9659258262890698 0.0
  outer loop
    vertex -60.054016728043436 -132.2074127163806 5.000000008699759
    vertex -60.48814244685889 -132.3872334768889 8.698598330525441e-09
    vertex -60.054016728043436 -132.2074127163806 8.698598330525441e-09
  endloop
endfacet
facet normal 0.4999999999999946 -0.8660254037844417 0.0
  outer loop
    vertex -60.48814244685889 -132.3872334768889 8.698598330525441e-09
    vertex -60.054016728043436 -132.2074127163806 5.000000008699759
    vertex -60.48814244685889 -132.3872334768889 5.000000008699759
  endloop
endfacet
facet normal 0.25881904510253145 -0.9659258262890656 0.0
  outer loop
    vertex -60.05401672804345 -121.80741271638045 5.000000008699775
    vertex -60.48814244685891 -121.9872334768888 8.698602560475166e-09
    vertex -60.05401672804345 -121.80741271638045 8.698602560475166e-09
  endloop
endfacet
facet normal 0.5000000000000036 -0.8660254037844367 0.0
  outer loop
    vertex -60.48814244685891 -121.9872334768888 8.698602560475166e-09
    vertex -60.05401672804345 -121.80741271638045 5.000000008699775
    vertex -60.48814244685891 -121.9872334768888 5.000000008699775
  endloop
endfacet
facet normal 0.7071067811865449 0.7071067811865501 2.0780966372135834e-16
  outer loop
    vertex -56.194029632884465 -120.15196665400535 8.698601502987734e-09
    vertex -55.43122024441459 -121.14607920370078 5.000000008698602
    vertex -55.43122024441459 -121.14607920370078 8.698601502987734e-09
  endloop
endfacet
facet normal 0.8660254037844404 0.4999999999999971 1.4694362241346718e-16
  outer loop
    vertex -55.43122024441459 -121.14607920370078 5.000000008698602
    vertex -56.194029632884465 -120.15196665400535 8.698601502987734e-09
    vertex -56.194029632884465 -120.15196665400535 5.000000008698602
  endloop
endfacet
facet normal 0.8660254037844404 0.4999999999999971 1.4694362241346718e-16
  outer loop
    vertex -55.43122024441459 -121.14607920370078 8.698601502987734e-09
    vertex -54.95169821639237 -122.30374778720869 5.000000008698602
    vertex -54.95169821639237 -122.30374778720869 8.698601502987734e-09
  endloop
endfacet
facet normal 0.9659258262890685 0.25881904510252035 5.671812117864552e-17
  outer loop
    vertex -54.95169821639237 -122.30374778720869 5.000000008698602
    vertex -55.43122024441459 -121.14607920370078 8.698601502987734e-09
    vertex -55.43122024441459 -121.14607920370078 5.000000008698602
  endloop
endfacet
facet normal -0.8660254037844376 -0.5000000000000022 0.0
  outer loop
    vertex -58.02929672004692 -122.64607920370078 5.000000008699775
    vertex -57.84947595953859 -123.08020492251624 8.698602560475166e-09
    vertex -57.84947595953859 -123.08020492251624 5.000000008699775
  endloop
endfacet
facet normal -0.9659258262890684 -0.2588190451025207 0.0
  outer loop
    vertex -57.84947595953859 -123.08020492251624 8.698602560475166e-09
    vertex -58.02929672004692 -122.64607920370078 5.000000008699775
    vertex -58.02929672004692 -122.64607920370078 8.698602560475166e-09
  endloop
endfacet
facet normal 0.0 -1.0 0.0
  outer loop
    vertex -59.58814244685891 -132.1460792037009 5.000000008699759
    vertex -60.054016728043436 -132.2074127163806 8.698598330525441e-09
    vertex -59.58814244685891 -132.1460792037009 8.698598330525441e-09
  endloop
endfacet
facet normal 0.258819045102516 -0.9659258262890698 0.0
  outer loop
    vertex -60.054016728043436 -132.2074127163806 8.698598330525441e-09
    vertex -59.58814244685891 -132.1460792037009 5.000000008699759
    vertex -60.054016728043436 -132.2074127163806 5.000000008699759
  endloop
endfacet
facet normal -0.49999999999999994 0.8660254037844388 2.5451381986834347e-16
  outer loop
    vertex -61.98814218257991 -119.38915726553549 5.000000008698602
    vertex -60.83047359907201 -118.90963523751326 8.698601502987734e-09
    vertex -61.98814218257991 -119.38915726553549 8.698601502987734e-09
  endloop
endfacet
facet normal -0.258819045102528 0.9659258262890664 2.8387327979527533e-16
  outer loop
    vertex -60.83047359907201 -118.90963523751326 8.698601502987734e-09
    vertex -61.98814218257991 -119.38915726553549 5.000000008698602
    vertex -60.83047359907201 -118.90963523751326 5.000000008698602
  endloop
endfacet
facet normal 0.2588190451025287 0.9659258262890662 2.8387327979527533e-16
  outer loop
    vertex -58.3458107660878 -118.90963523751326 5.000000008698602
    vertex -57.1881421825799 -119.38915726553549 8.698601502987734e-09
    vertex -58.3458107660878 -118.90963523751326 8.698601502987734e-09
  endloop
endfacet
facet normal 0.4999999999999975 0.8660254037844402 2.545138198683439e-16
  outer loop
    vertex -57.1881421825799 -119.38915726553549 8.698601502987734e-09
    vertex -58.3458107660878 -118.90963523751326 5.000000008698602
    vertex -57.1881421825799 -119.38915726553549 5.000000008698602
  endloop
endfacet
facet normal 1.0 0.0 0.0
  outer loop
    vertex -61.388142446858865 -133.94607920370086 8.698598330525441e-09
    vertex -61.32680893417919 -134.41195348488537 5.000000008699759
    vertex -61.32680893417919 -134.41195348488537 8.698598330525441e-09
  endloop
endfacet
facet normal 0.9659258262890676 0.2588190451025238 0.0
  outer loop
    vertex -61.32680893417919 -134.41195348488537 5.000000008699759
    vertex -61.388142446858865 -133.94607920370086 8.698598330525441e-09
    vertex -61.388142446858865 -133.94607920370086 5.000000008699759
  endloop
endfacet
facet normal 0.4999999999999946 0.8660254037844417 0.0
  outer loop
    vertex -60.48814244685889 -135.5049249305128 5.000000008699759
    vertex -60.054016728043436 -135.68474569102113 8.698598330525441e-09
    vertex -60.48814244685889 -135.5049249305128 8.698598330525441e-09
  endloop
endfacet
facet normal 0.258819045102516 0.9659258262890698 0.0
  outer loop
    vertex -60.054016728043436 -135.68474569102113 8.698598330525441e-09
    vertex -60.48814244685889 -135.5049249305128 5.000000008699759
    vertex -60.054016728043436 -135.68474569102113 5.000000008699759
  endloop
endfacet
facet normal 0.4999999999999975 -0.8660254037844402 2.588426554681583e-16
  outer loop
    vertex -57.1881421825799 -138.10300114186612 5.000000008698602
    vertex -58.3458107660878 -138.58252316988833 8.698600797996114e-09
    vertex -57.1881421825799 -138.10300114186612 8.698600797996114e-09
  endloop
endfacet
facet normal 0.2588190451025287 -0.9659258262890662 2.887014685358691e-16
  outer loop
    vertex -58.3458107660878 -138.58252316988833 8.698600797996114e-09
    vertex -57.1881421825799 -138.10300114186612 5.000000008698602
    vertex -58.3458107660878 -138.58252316988833 5.000000008698602
  endloop
endfacet
facet normal -1.0 0.0 0.0
  outer loop
    vertex -57.78814244685891 -123.54607920370078 5.000000008699775
    vertex -57.84947595953859 -124.01195348488532 8.698602560475166e-09
    vertex -57.84947595953859 -124.01195348488532 5.000000008699775
  endloop
endfacet
facet normal -0.9659258262890684 0.2588190451025207 0.0
  outer loop
    vertex -57.84947595953859 -124.01195348488532 8.698602560475166e-09
    vertex -57.78814244685891 -123.54607920370078 5.000000008699775
    vertex -57.78814244685891 -123.54607920370078 8.698602560475166e-09
  endloop
endfacet
facet normal -0.5000000000000036 0.8660254037844367 0.0
  outer loop
    vertex -58.68814244685891 -125.10492493051275 5.000000008699775
    vertex -58.31535024072313 -124.81887140983656 8.698602560475166e-09
    vertex -58.68814244685891 -125.10492493051275 8.698602560475166e-09
  endloop
endfacet
facet normal -0.7071067811865408 0.7071067811865542 0.0
  outer loop
    vertex -58.31535024072313 -124.81887140983656 8.698602560475166e-09
    vertex -58.68814244685891 -125.10492493051275 5.000000008699775
    vertex -58.31535024072313 -124.81887140983656 5.000000008699775
  endloop
endfacet
facet normal 0.9914448613738103 -0.13052619222005393 1.4608154646471418e-18
  outer loop
    vertex -54.7881421825799 -133.9460792037008 8.698600797996114e-09
    vertex -54.95169821639237 -135.1884106201929 5.000000008698602
    vertex -54.95169821639237 -135.1884106201929 8.698600797996114e-09
  endloop
endfacet
facet normal 0.9659258262890685 -0.25881904510252035 5.841950776073363e-17
  outer loop
    vertex -54.95169821639237 -135.1884106201929 5.000000008698602
    vertex -54.7881421825799 -133.9460792037008 8.698600797996114e-09
    vertex -54.7881421825799 -133.9460792037008 5.000000008698602
  endloop
endfacet
facet normal -0.258819045102528 -0.9659258262890664 2.887014685358691e-16
  outer loop
    vertex -60.83047359907201 -138.58252316988833 5.000000008698602
    vertex -61.98814218257991 -138.10300114186612 8.698600797996114e-09
    vertex -60.83047359907201 -138.58252316988833 8.698600797996114e-09
  endloop
endfacet
facet normal -0.49999999999999994 -0.8660254037844388 2.5884265546815783e-16
  outer loop
    vertex -61.98814218257991 -138.10300114186612 8.698600797996114e-09
    vertex -60.83047359907201 -138.58252316988833 5.000000008698602
    vertex -61.98814218257991 -138.10300114186612 5.000000008698602
  endloop
endfacet
facet normal 0.4999999999999975 0.8660254037844402 2.545138198683439e-16
  outer loop
    vertex -57.1881421825799 -119.38915726553549 5.000000008698602
    vertex -56.194029632884465 -120.15196665400535 8.698601502987734e-09
    vertex -57.1881421825799 -119.38915726553549 8.698601502987734e-09
  endloop
endfacet
facet normal 0.7071067811865449 0.7071067811865501 2.0780966372135834e-16
  outer loop
    vertex -56.194029632884465 -120.15196665400535 8.698601502987734e-09
    vertex -57.1881421825799 -119.38915726553549 5.000000008698602
    vertex -56.194029632884465 -120.15196665400535 5.000000008698602
  endloop
endfacet
facet normal -0.9659258262890684 -0.2588190451025207 0.0
  outer loop
    vertex -57.84947595953859 -123.08020492251624 5.000000008699775
    vertex -57.78814244685891 -123.54607920370078 8.698602560475166e-09
    vertex -57.78814244685891 -123.54607920370078 5.000000008699775
  endloop
endfacet
facet normal -1.0 0.0 0.0
  outer loop
    vertex -57.78814244685891 -123.54607920370078 8.698602560475166e-09
    vertex -57.84947595953859 -123.08020492251624 5.000000008699775
    vertex -57.84947595953859 -123.08020492251624 8.698602560475166e-09
  endloop
endfacet
facet normal -0.4999999999999946 0.8660254037844417 0.0
  outer loop
    vertex -58.68814244685893 -135.5049249305128 5.000000008699759
    vertex -58.31535024072316 -135.21887140983662 8.698598330525441e-09
    vertex -58.68814244685893 -135.5049249305128 8.698598330525441e-09
  endloop
endfacet
facet normal -0.707106781186546 0.7071067811865491 0.0
  outer loop
    vertex -58.31535024072316 -135.21887140983662 8.698598330525441e-09
    vertex -58.68814244685893 -135.5049249305128 5.000000008699759
    vertex -58.31535024072316 -135.21887140983662 5.000000008699759
  endloop
endfacet
facet normal -1.0 0.0 0.0
  outer loop
    vertex -57.78814244685896 -133.94607920370086 5.000000008699759
    vertex -57.84947595953864 -134.41195348488537 8.698598330525441e-09
    vertex -57.84947595953864 -134.41195348488537 5.000000008699759
  endloop
endfacet
facet normal -0.9659258262890704 0.2588190451025131 0.0
  outer loop
    vertex -57.84947595953864 -134.41195348488537 8.698598330525441e-09
    vertex -57.78814244685896 -133.94607920370086 5.000000008699759
    vertex -57.78814244685896 -133.94607920370086 8.698598330525441e-09
  endloop
endfacet
facet normal 0.0 0.0 1.0
  outer loop
    vertex -64.3881421825799 -125.64607920370075 5.000000008698602
    vertex -60.05401672804345 -125.2847456910211 5.000000008699775
    vertex -64.3881421825799 -123.54607920370078 5.000000008698602
  endloop
endfacet
facet normal 0.0 0.0 1.0
  outer loop
    vertex -60.05401672804345 -125.2847456910211 5.000000008699775
    vertex -64.3881421825799 -125.64607920370075 5.000000008698602
    vertex -59.58814244685891 -125.34607920370078 5.000000008699775
  endloop
endfacet
facet normal 0.0 0.0 1.0
  outer loop
    vertex -59.58814244685891 -125.34607920370078 5.000000008699775
    vertex -64.3881421825799 -125.64607920370075 5.000000008698602
    vertex -54.7881421825799 -125.64607920370075 5.000000008698602
  endloop
endfacet
facet normal 0.0 0.0 1.0
  outer loop
    vertex -64.3881421825799 -123.54607920370078 5.000000008698602
    vertex -60.05401672804345 -125.2847456910211 5.000000008699775
    vertex -60.48814244685891 -125.10492493051275 5.000000008699775
  endloop
endfacet
facet normal 0.0 0.0 1.0
  outer loop
    vertex -64.3881421825799 -123.54607920370078 5.000000008698602
    vertex -60.48814244685891 -125.10492493051275 5.000000008699775
    vertex -64.22458614876743 -122.30374778720869 5.000000008698602
  endloop
endfacet
facet normal 0.0 0.0 1.0
  outer loop
    vertex -64.22458614876743 -122.30374778720869 5.000000008698602
    vertex -60.48814244685891 -125.10492493051275 5.000000008699775
    vertex -60.86093465299469 -124.81887140983656 5.000000008699775
  endloop
endfacet
facet normal 0.0 0.0 1.0
  outer loop
    vertex -64.22458614876743 -122.30374778720869 5.000000008698602
    vertex -60.86093465299469 -124.81887140983656 5.000000008699775
    vertex -63.74506412074521 -121.14607920370078 5.000000008698602
  endloop
endfacet
facet normal 0.0 0.0 1.0
  outer loop
    vertex -63.74506412074521 -121.14607920370078 5.000000008698602
    vertex -60.86093465299469 -124.81887140983656 5.000000008699775
    vertex -61.1469881736709 -124.44607920370078 5.000000008699775
  endloop
endfacet
facet normal 0.0 0.0 1.0
  outer loop
    vertex -63.74506412074521 -121.14607920370078 5.000000008698602
    vertex -61.1469881736709 -124.44607920370078 5.000000008699775
    vertex -62.98225473227533 -120.15196665400535 5.000000008698602
  endloop
endfacet
facet normal 0.0 0.0 1.0
  outer loop
    vertex -62.98225473227533 -120.15196665400535 5.000000008698602
    vertex -61.1469881736709 -124.44607920370078 5.000000008699775
    vertex -61.32680893417923 -124.01195348488532 5.000000008699775
  endloop
endfacet
facet normal 0.0 0.0 1.0
  outer loop
    vertex -62.98225473227533 -120.15196665400535 5.000000008698602
    vertex -61.32680893417923 -124.01195348488532 5.000000008699775
    vertex -61.98814218257991 -119.38915726553549 5.000000008698602
  endloop
endfacet
facet normal 0.0 0.0 1.0
  outer loop
    vertex -61.98814218257991 -119.38915726553549 5.000000008698602
    vertex -61.32680893417923 -124.01195348488532 5.000000008699775
    vertex -61.38814244685891 -123.54607920370078 5.000000008699775
  endloop
endfacet
facet normal 0.0 0.0 1.0
  outer loop
    vertex -59.58814244685891 -125.34607920370078 5.000000008699775
    vertex -54.7881421825799 -125.64607920370075 5.000000008698602
    vertex -59.12226816567437 -125.2847456910211 5.000000008699775
  endloop
endfacet
facet normal 0.0 0.0 1.0
  outer loop
    vertex -59.12226816567437 -125.2847456910211 5.000000008699775
    vertex -54.7881421825799 -125.64607920370075 5.000000008698602
    vertex -58.68814244685891 -125.10492493051275 5.000000008699775
  endloop
endfacet
facet normal 0.0 0.0 1.0
  outer loop
    vertex -58.68814244685891 -125.10492493051275 5.000000008699775
    vertex -54.7881421825799 -125.64607920370075 5.000000008698602
    vertex -58.31535024072313 -124.81887140983656 5.000000008699775
  endloop
endfacet
facet normal 0.0 0.0 1.0
  outer loop
    vertex -58.31535024072313 -124.81887140983656 5.000000008699775
    vertex -54.7881421825799 -125.64607920370075 5.000000008698602
    vertex -58.02929672004692 -124.44607920370078 5.000000008699775
  endloop
endfacet
facet normal 0.0 0.0 1.0
  outer loop
    vertex -58.02929672004692 -124.44607920370078 5.000000008699775
    vertex -54.7881421825799 -125.64607920370075 5.000000008698602
    vertex -57.84947595953859 -124.01195348488532 5.000000008699775
  endloop
endfacet
facet normal 0.0 0.0 1.0
  outer loop
    vertex -57.84947595953859 -124.01195348488532 5.000000008699775
    vertex -54.7881421825799 -125.64607920370075 5.000000008698602
    vertex -57.78814244685891 -123.54607920370078 5.000000008699775
  endloop
endfacet
facet normal 0.0 0.0 1.0
  outer loop
    vertex -57.78814244685891 -123.54607920370078 5.000000008699775
    vertex -54.7881421825799 -125.64607920370075 5.000000008698602
    vertex -57.1881421825799 -119.38915726553549 5.000000008698602
  endloop
endfacet
facet normal 0.0 0.0 1.0
  outer loop
    vertex -57.1881421825799 -119.38915726553549 5.000000008698602
    vertex -54.7881421825799 -125.64607920370075 5.000000008698602
    vertex -56.194029632884465 -120.15196665400535 5.000000008698602
  endloop
endfacet
facet normal 0.0 0.0 1.0
  outer loop
    vertex -56.194029632884465 -120.15196665400535 5.000000008698602
    vertex -54.7881421825799 -125.64607920370075 5.000000008698602
    vertex -55.43122024441459 -121.14607920370078 5.000000008698602
  endloop
endfacet
facet normal 0.0 0.0 1.0
  outer loop
    vertex -55.43122024441459 -121.14607920370078 5.000000008698602
    vertex -54.7881421825799 -125.64607920370075 5.000000008698602
    vertex -54.95169821639237 -122.30374778720869 5.000000008698602
  endloop
endfacet
facet normal 0.0 0.0 1.0
  outer loop
    vertex -54.95169821639237 -122.30374778720869 5.000000008698602
    vertex -54.7881421825799 -125.64607920370075 5.000000008698602
    vertex -54.7881421825799 -123.54607920370078 5.000000008698602
  endloop
endfacet
facet normal 0.0 0.0 1.0
  outer loop
    vertex -61.38814244685891 -123.54607920370078 5.000000008699775
    vertex -60.83047359907201 -118.90963523751326 5.000000008698602
    vertex -61.98814218257991 -119.38915726553549 5.000000008698602
  endloop
endfacet
facet normal 0.0 0.0 1.0
  outer loop
    vertex -60.83047359907201 -118.90963523751326 5.000000008698602
    vertex -61.38814244685891 -123.54607920370078 5.000000008699775
    vertex -61.32680893417923 -123.08020492251624 5.000000008699775
  endloop
endfacet
facet normal 0.0 0.0 1.0
  outer loop
    vertex -60.83047359907201 -118.90963523751326 5.000000008698602
    vertex -61.32680893417923 -123.08020492251624 5.000000008699775
    vertex -61.1469881736709 -122.64607920370078 5.000000008699775
  endloop
endfacet
facet normal 0.0 0.0 1.0
  outer loop
    vertex -60.83047359907201 -118.90963523751326 5.000000008698602
    vertex -61.1469881736709 -122.64607920370078 5.000000008699775
    vertex -60.86093465299469 -122.273286997565 5.000000008699775
  endloop
endfacet
facet normal 0.0 0.0 1.0
  outer loop
    vertex -60.83047359907201 -118.90963523751326 5.000000008698602
    vertex -60.86093465299469 -122.273286997565 5.000000008699775
    vertex -60.48814244685891 -121.9872334768888 5.000000008699775
  endloop
endfacet
facet normal 0.0 0.0 1.0
  outer loop
    vertex -60.83047359907201 -118.90963523751326 5.000000008698602
    vertex -60.48814244685891 -121.9872334768888 5.000000008699775
    vertex -59.5881421825799 -118.74607920370077 5.000000008698602
  endloop
endfacet
facet normal 0.0 0.0 1.0
  outer loop
    vertex -59.5881421825799 -118.74607920370077 5.000000008698602
    vertex -60.48814244685891 -121.9872334768888 5.000000008699775
    vertex -60.05401672804345 -121.80741271638045 5.000000008699775
  endloop
endfacet
facet normal 0.0 0.0 1.0
  outer loop
    vertex -59.5881421825799 -118.74607920370077 5.000000008698602
    vertex -60.05401672804345 -121.80741271638045 5.000000008699775
    vertex -59.58814244685891 -121.74607920370079 5.000000008699775
  endloop
endfacet
facet normal 0.0 0.0 1.0
  outer loop
    vertex -59.5881421825799 -118.74607920370077 5.000000008698602
    vertex -59.58814244685891 -121.74607920370079 5.000000008699775
    vertex -59.12226816567437 -121.80741271638045 5.000000008699775
  endloop
endfacet
facet normal 0.0 0.0 1.0
  outer loop
    vertex -59.5881421825799 -118.74607920370077 5.000000008698602
    vertex -59.12226816567437 -121.80741271638045 5.000000008699775
    vertex -58.3458107660878 -118.90963523751326 5.000000008698602
  endloop
endfacet
facet normal 0.0 0.0 1.0
  outer loop
    vertex -58.3458107660878 -118.90963523751326 5.000000008698602
    vertex -59.12226816567437 -121.80741271638045 5.000000008699775
    vertex -58.68814244685891 -121.9872334768888 5.000000008699775
  endloop
endfacet
facet normal 0.0 0.0 1.0
  outer loop
    vertex -58.3458107660878 -118.90963523751326 5.000000008698602
    vertex -58.68814244685891 -121.9872334768888 5.000000008699775
    vertex -58.31535024072313 -122.273286997565 5.000000008699775
  endloop
endfacet
facet normal 0.0 0.0 1.0
  outer loop
    vertex -58.3458107660878 -118.90963523751326 5.000000008698602
    vertex -58.31535024072313 -122.273286997565 5.000000008699775
    vertex -57.1881421825799 -119.38915726553549 5.000000008698602
  endloop
endfacet
facet normal 0.0 0.0 1.0
  outer loop
    vertex -57.1881421825799 -119.38915726553549 5.000000008698602
    vertex -58.31535024072313 -122.273286997565 5.000000008699775
    vertex -58.02929672004692 -122.64607920370078 5.000000008699775
  endloop
endfacet
facet normal 0.0 0.0 1.0
  outer loop
    vertex -57.1881421825799 -119.38915726553549 5.000000008698602
    vertex -58.02929672004692 -122.64607920370078 5.000000008699775
    vertex -57.84947595953859 -123.08020492251624 5.000000008699775
  endloop
endfacet
facet normal 0.0 0.0 1.0
  outer loop
    vertex -57.1881421825799 -119.38915726553549 5.000000008698602
    vertex -57.84947595953859 -123.08020492251624 5.000000008699775
    vertex -57.78814244685891 -123.54607920370078 5.000000008699775
  endloop
endfacet
facet normal 1.0 0.0 0.0
  outer loop
    vertex -61.38814244685891 -123.54607920370078 8.698602560475166e-09
    vertex -61.32680893417923 -124.01195348488532 5.000000008699775
    vertex -61.32680893417923 -124.01195348488532 8.698602560475166e-09
  endloop
endfacet
facet normal 0.9659258262890684 0.2588190451025207 0.0
  outer loop
    vertex -61.32680893417923 -124.01195348488532 5.000000008699775
    vertex -61.38814244685891 -123.54607920370078 8.698602560475166e-09
    vertex -61.38814244685891 -123.54607920370078 5.000000008699775
  endloop
endfacet
facet normal 5.881332531126966e-16 1.0 2.9388724482693603e-16
  outer loop
    vertex -59.5881421825799 -118.74607920370077 5.000000008698602
    vertex -58.3458107660878 -118.90963523751326 8.698601502987734e-09
    vertex -59.5881421825799 -118.74607920370077 8.698601502987734e-09
  endloop
endfacet
facet normal 0.2588190451025287 0.9659258262890662 2.8387327979527533e-16
  outer loop
    vertex -58.3458107660878 -118.90963523751326 8.698601502987734e-09
    vertex -59.5881421825799 -118.74607920370077 5.000000008698602
    vertex -58.3458107660878 -118.90963523751326 5.000000008698602
  endloop
endfacet
facet normal -0.258819045102516 0.9659258262890698 0.0
  outer loop
    vertex -59.122268165674384 -135.68474569102113 5.000000008699759
    vertex -58.68814244685893 -135.5049249305128 8.698598330525441e-09
    vertex -59.122268165674384 -135.68474569102113 8.698598330525441e-09
  endloop
endfacet
facet normal -0.4999999999999946 0.8660254037844417 0.0
  outer loop
    vertex -58.68814244685893 -135.5049249305128 8.698598330525441e-09
    vertex -59.122268165674384 -135.68474569102113 5.000000008699759
    vertex -58.68814244685893 -135.5049249305128 5.000000008699759
  endloop
endfacet
facet normal -0.25881904510253145 -0.9659258262890656 0.0
  outer loop
    vertex -59.12226816567437 -121.80741271638045 5.000000008699775
    vertex -59.58814244685891 -121.74607920370079 8.698602560475166e-09
    vertex -59.12226816567437 -121.80741271638045 8.698602560475166e-09
  endloop
endfacet
facet normal 0.0 -1.0 0.0
  outer loop
    vertex -59.58814244685891 -121.74607920370079 8.698602560475166e-09
    vertex -59.12226816567437 -121.80741271638045 5.000000008699775
    vertex -59.58814244685891 -121.74607920370079 5.000000008699775
  endloop
endfacet
facet normal 0.9659258262890685 -0.25881904510252035 5.841950776073363e-17
  outer loop
    vertex -54.95169821639237 -135.1884106201929 8.698600797996114e-09
    vertex -55.43122024441459 -136.3460792037008 5.000000008698602
    vertex -55.43122024441459 -136.3460792037008 8.698600797996114e-09
  endloop
endfacet
facet normal 0.8660254037844404 -0.4999999999999971 1.4944287681229763e-16
  outer loop
    vertex -55.43122024441459 -136.3460792037008 5.000000008698602
    vertex -54.95169821639237 -135.1884106201929 8.698600797996114e-09
    vertex -54.95169821639237 -135.1884106201929 5.000000008698602
  endloop
endfacet
facet normal -0.25881904510253145 0.9659258262890656 0.0
  outer loop
    vertex -59.12226816567437 -125.2847456910211 5.000000008699775
    vertex -58.68814244685891 -125.10492493051275 8.698602560475166e-09
    vertex -59.12226816567437 -125.2847456910211 8.698602560475166e-09
  endloop
endfacet
facet normal -0.5000000000000036 0.8660254037844367 0.0
  outer loop
    vertex -58.68814244685891 -125.10492493051275 8.698602560475166e-09
    vertex -59.12226816567437 -125.2847456910211 5.000000008699775
    vertex -58.68814244685891 -125.10492493051275 5.000000008699775
  endloop
endfacet
facet normal -0.0 -1.0 -0.0
  outer loop
    vertex -54.7881421825799 -125.64607920370075 5.000000008698602
    vertex -64.3881421825799 -125.64607920370075 4.000000008698604
    vertex -54.7881421825799 -125.64607920370075 4.000000008698604
  endloop
endfacet
facet normal -0.0 -1.0 -0.0
  outer loop
    vertex -64.3881421825799 -125.64607920370075 4.000000008698604
    vertex -54.7881421825799 -125.64607920370075 5.000000008698602
    vertex -64.3881421825799 -125.64607920370075 5.000000008698602
  endloop
endfacet
facet normal 0.8660254037844376 -0.5000000000000022 0.0
  outer loop
    vertex -61.1469881736709 -122.64607920370078 8.698602560475166e-09
    vertex -61.32680893417923 -123.08020492251624 5.000000008699775
    vertex -61.32680893417923 -123.08020492251624 8.698602560475166e-09
  endloop
endfacet
facet normal 0.9659258262890684 -0.2588190451025207 0.0
  outer loop
    vertex -61.32680893417923 -123.08020492251624 5.000000008699775
    vertex -61.1469881736709 -122.64607920370078 8.698602560475166e-09
    vertex -61.1469881736709 -122.64607920370078 5.000000008699775
  endloop
endfacet
facet normal -0.866025403784443 0.4999999999999925 0.0
  outer loop
    vertex -58.02929672004696 -134.84607920370084 5.000000008699759
    vertex -58.31535024072316 -135.21887140983662 8.698598330525441e-09
    vertex -58.31535024072316 -135.21887140983662 5.000000008699759
  endloop
endfacet
facet normal -0.707106781186546 0.7071067811865491 0.0
  outer loop
    vertex -58.31535024072316 -135.21887140983662 8.698598330525441e-09
    vertex -58.02929672004696 -134.84607920370084 5.000000008699759
    vertex -58.02929672004696 -134.84607920370084 8.698598330525441e-09
  endloop
endfacet
facet normal -0.258819045102528 0.9659258262890664 2.8387327979527533e-16
  outer loop
    vertex -60.83047359907201 -118.90963523751326 5.000000008698602
    vertex -59.5881421825799 -118.74607920370077 8.698601502987734e-09
    vertex -60.83047359907201 -118.90963523751326 8.698601502987734e-09
  endloop
endfacet
facet normal 5.881332531126966e-16 1.0 2.9388724482693603e-16
  outer loop
    vertex -59.5881421825799 -118.74607920370077 8.698601502987734e-09
    vertex -60.83047359907201 -118.90963523751326 5.000000008698602
    vertex -59.5881421825799 -118.74607920370077 5.000000008698602
  endloop
endfacet
facet normal 0.7071067811865527 0.7071067811865425 0.0
  outer loop
    vertex -60.860934652994665 -135.21887140983662 5.000000008699759
    vertex -60.48814244685889 -135.5049249305128 8.698598330525441e-09
    vertex -60.860934652994665 -135.21887140983662 8.698598330525441e-09
  endloop
endfacet
facet normal 0.4999999999999946 0.8660254037844417 0.0
  outer loop
    vertex -60.48814244685889 -135.5049249305128 8.698598330525441e-09
    vertex -60.860934652994665 -135.21887140983662 5.000000008699759
    vertex -60.48814244685889 -135.5049249305128 5.000000008699759
  endloop
endfacet
facet normal 0.8660254037844423 0.4999999999999941 0.0
  outer loop
    vertex -61.146988173670856 -134.84607920370084 8.698598330525441e-09
    vertex -60.860934652994665 -135.21887140983662 5.000000008699759
    vertex -60.860934652994665 -135.21887140983662 8.698598330525441e-09
  endloop
endfacet
facet normal 0.7071067811865527 0.7071067811865425 0.0
  outer loop
    vertex -60.860934652994665 -135.21887140983662 5.000000008699759
    vertex -61.146988173670856 -134.84607920370084 8.698598330525441e-09
    vertex -61.146988173670856 -134.84607920370084 5.000000008699759
  endloop
endfacet
facet normal 0.707106781186546 -0.7071067811865491 0.0
  outer loop
    vertex -60.860934652994665 -132.6732869975651 8.698598330525441e-09
    vertex -61.14698817367086 -133.04607920370088 5.000000008699759
    vertex -61.14698817367086 -133.04607920370088 8.698598330525441e-09
  endloop
endfacet
facet normal 0.866025403784443 -0.4999999999999925 0.0
  outer loop
    vertex -61.14698817367086 -133.04607920370088 5.000000008699759
    vertex -60.860934652994665 -132.6732869975651 8.698598330525441e-09
    vertex -60.860934652994665 -132.6732869975651 5.000000008699759
  endloop
endfacet
facet normal 0.0 1.0 0.0
  outer loop
    vertex -64.3881421825799 -131.84607920370078 5.000000008698602
    vertex -54.7881421825799 -131.84607920370078 4.000000008698604
    vertex -64.3881421825799 -131.84607920370078 4.000000008698604
  endloop
endfacet
facet normal 0.0 1.0 0.0
  outer loop
    vertex -54.7881421825799 -131.84607920370078 4.000000008698604
    vertex -64.3881421825799 -131.84607920370078 5.000000008698602
    vertex -54.7881421825799 -131.84607920370078 5.000000008698602
  endloop
endfacet
facet normal 0.9659258262890676 0.2588190451025238 0.0
  outer loop
    vertex -61.32680893417919 -134.41195348488537 8.698598330525441e-09
    vertex -61.146988173670856 -134.84607920370084 5.000000008699759
    vertex -61.146988173670856 -134.84607920370084 8.698598330525441e-09
  endloop
endfacet
facet normal 0.8660254037844423 0.4999999999999941 0.0
  outer loop
    vertex -61.146988173670856 -134.84607920370084 5.000000008699759
    vertex -61.32680893417919 -134.41195348488537 8.698598330525441e-09
    vertex -61.32680893417919 -134.41195348488537 5.000000008699759
  endloop
endfacet
facet normal -0.8660254037844423 -0.4999999999999941 0.0
  outer loop
    vertex -58.02929672004697 -133.04607920370088 5.000000008699759
    vertex -57.84947595953864 -133.48020492251635 8.698598330525441e-09
    vertex -57.84947595953864 -133.48020492251635 5.000000008699759
  endloop
endfacet
facet normal -0.9659258262890676 -0.2588190451025238 0.0
  outer loop
    vertex -57.84947595953864 -133.48020492251635 8.698598330525441e-09
    vertex -58.02929672004697 -133.04607920370088 5.000000008699759
    vertex -58.02929672004697 -133.04607920370088 8.698598330525441e-09
  endloop
endfacet
facet normal -0.5000000000000036 -0.8660254037844367 0.0
  outer loop
    vertex -58.68814244685891 -121.9872334768888 5.000000008699775
    vertex -59.12226816567437 -121.80741271638045 8.698602560475166e-09
    vertex -58.68814244685891 -121.9872334768888 8.698602560475166e-09
  endloop
endfacet
facet normal -0.25881904510253145 -0.9659258262890656 0.0
  outer loop
    vertex -59.12226816567437 -121.80741271638045 8.698602560475166e-09
    vertex -58.68814244685891 -121.9872334768888 5.000000008699775
    vertex -59.12226816567437 -121.80741271638045 5.000000008699775
  endloop
endfacet
facet normal 0.4999999999999946 -0.8660254037844417 0.0
  outer loop
    vertex -60.48814244685889 -132.3872334768889 5.000000008699759
    vertex -60.860934652994665 -132.6732869975651 8.698598330525441e-09
    vertex -60.48814244685889 -132.3872334768889 8.698598330525441e-09
  endloop
endfacet
facet normal 0.707106781186546 -0.7071067811865491 0.0
  outer loop
    vertex -60.860934652994665 -132.6732869975651 8.698598330525441e-09
    vertex -60.48814244685889 -132.3872334768889 5.000000008699759
    vertex -60.860934652994665 -132.6732869975651 5.000000008699759
  endloop
endfacet
facet normal 0.9659258262890685 0.25881904510252035 5.671812117864552e-17
  outer loop
    vertex -54.95169821639237 -122.30374778720869 8.698601502987734e-09
    vertex -54.7881421825799 -123.54607920370078 5.000000008698602
    vertex -54.7881421825799 -123.54607920370078 8.698601502987734e-09
  endloop
endfacet
facet normal 0.9914448613738103 0.13052619222005396 -1.1616470124282182e-31
  outer loop
    vertex -54.7881421825799 -123.54607920370078 5.000000008698602
    vertex -54.95169821639237 -122.30374778720869 8.698601502987734e-09
    vertex -54.95169821639237 -122.30374778720869 5.000000008698602
  endloop
endfacet
facet normal -0.7071067811865408 -0.7071067811865542 0.0
  outer loop
    vertex -58.31535024072313 -122.273286997565 5.000000008699775
    vertex -58.68814244685891 -121.9872334768888 8.698602560475166e-09
    vertex -58.31535024072313 -122.273286997565 8.698602560475166e-09
  endloop
endfacet
facet normal -0.5000000000000036 -0.8660254037844367 0.0
  outer loop
    vertex -58.68814244685891 -121.9872334768888 8.698602560475166e-09
    vertex -58.31535024072313 -122.273286997565 5.000000008699775
    vertex -58.68814244685891 -121.9872334768888 5.000000008699775
  endloop
endfacet
facet normal 0.7071067811865408 0.7071067811865542 0.0
  outer loop
    vertex -60.86093465299469 -124.81887140983656 5.000000008699775
    vertex -60.48814244685891 -125.10492493051275 8.698602560475166e-09
    vertex -60.86093465299469 -124.81887140983656 8.698602560475166e-09
  endloop
endfacet
facet normal 0.5000000000000036 0.8660254037844367 0.0
  outer loop
    vertex -60.48814244685891 -125.10492493051275 8.698602560475166e-09
    vertex -60.86093465299469 -124.81887140983656 5.000000008699775
    vertex -60.48814244685891 -125.10492493051275 5.000000008699775
  endloop
endfacet
facet normal -0.258819045102516 -0.9659258262890698 0.0
  outer loop
    vertex -59.122268165674384 -132.2074127163806 5.000000008699759
    vertex -59.58814244685891 -132.1460792037009 8.698598330525441e-09
    vertex -59.122268165674384 -132.2074127163806 8.698598330525441e-09
  endloop
endfacet
facet normal 0.0 -1.0 0.0
  outer loop
    vertex -59.58814244685891 -132.1460792037009 8.698598330525441e-09
    vertex -59.122268165674384 -132.2074127163806 5.000000008699759
    vertex -59.58814244685891 -132.1460792037009 5.000000008699759
  endloop
endfacet
facet normal 0.9659258262890704 -0.2588190451025131 0.0
  outer loop
    vertex -61.32680893417919 -133.48020492251635 8.698598330525441e-09
    vertex -61.388142446858865 -133.94607920370086 5.000000008699759
    vertex -61.388142446858865 -133.94607920370086 8.698598330525441e-09
  endloop
endfacet
facet normal 1.0 0.0 0.0
  outer loop
    vertex -61.388142446858865 -133.94607920370086 5.000000008699759
    vertex -61.32680893417919 -133.48020492251635 8.698598330525441e-09
    vertex -61.32680893417919 -133.48020492251635 5.000000008699759
  endloop
endfacet
facet normal 0.5000000000000036 -0.8660254037844367 0.0
  outer loop
    vertex -60.48814244685891 -121.9872334768888 5.000000008699775
    vertex -60.86093465299469 -122.273286997565 8.698602560475166e-09
    vertex -60.48814244685891 -121.9872334768888 8.698602560475166e-09
  endloop
endfacet
facet normal 0.7071067811865408 -0.7071067811865542 0.0
  outer loop
    vertex -60.86093465299469 -122.273286997565 8.698602560475166e-09
    vertex -60.48814244685891 -121.9872334768888 5.000000008699775
    vertex -60.86093465299469 -122.273286997565 5.000000008699775
  endloop
endfacet
facet normal -0.9659258262890685 -0.25881904510252035 5.694608697702726e-17
  outer loop
    vertex -64.22458614876743 -135.1884106201929 5.000000008698602
    vertex -63.74506412074521 -136.3460792037008 8.698600797996114e-09
    vertex -63.74506412074521 -136.3460792037008 5.000000008698602
  endloop
endfacet
facet normal -0.8660254037844404 -0.4999999999999971 1.494428768122975e-16
  outer loop
    vertex -63.74506412074521 -136.3460792037008 8.698600797996114e-09
    vertex -64.22458614876743 -135.1884106201929 5.000000008698602
    vertex -64.22458614876743 -135.1884106201929 8.698600797996114e-09
  endloop
endfacet
facet normal 0.7071067811865408 -0.7071067811865542 0.0
  outer loop
    vertex -60.86093465299469 -122.273286997565 8.698602560475166e-09
    vertex -61.1469881736709 -122.64607920370078 5.000000008699775
    vertex -61.1469881736709 -122.64607920370078 8.698602560475166e-09
  endloop
endfacet
facet normal 0.8660254037844376 -0.5000000000000022 0.0
  outer loop
    vertex -61.1469881736709 -122.64607920370078 5.000000008699775
    vertex -60.86093465299469 -122.273286997565 8.698602560475166e-09
    vertex -60.86093465299469 -122.273286997565 5.000000008699775
  endloop
endfacet
facet normal -0.9659258262890676 -0.2588190451025238 0.0
  outer loop
    vertex -57.84947595953864 -133.48020492251635 5.000000008699759
    vertex -57.78814244685896 -133.94607920370086 8.698598330525441e-09
    vertex -57.78814244685896 -133.94607920370086 5.000000008699759
  endloop
endfacet
facet normal -1.0 0.0 0.0
  outer loop
    vertex -57.78814244685896 -133.94607920370086 8.698598330525441e-09
    vertex -57.84947595953864 -133.48020492251635 5.000000008699759
    vertex -57.84947595953864 -133.48020492251635 8.698598330525441e-09
  endloop
endfacet
facet normal 0.0 -1.0 0.0
  outer loop
    vertex -59.58814244685891 -121.74607920370079 5.000000008699775
    vertex -60.05401672804345 -121.80741271638045 8.698602560475166e-09
    vertex -59.58814244685891 -121.74607920370079 8.698602560475166e-09
  endloop
endfacet
facet normal 0.25881904510253145 -0.9659258262890656 0.0
  outer loop
    vertex -60.05401672804345 -121.80741271638045 8.698602560475166e-09
    vertex -59.58814244685891 -121.74607920370079 5.000000008699775
    vertex -60.05401672804345 -121.80741271638045 5.000000008699775
  endloop
endfacet
facet normal -0.9914448613738103 -0.13052619222005393 -1.4608154646468263e-18
  outer loop
    vertex -64.3881421825799 -133.9460792037008 5.000000008698602
    vertex -64.22458614876743 -135.1884106201929 8.698600797996114e-09
    vertex -64.22458614876743 -135.1884106201929 5.000000008698602
  endloop
endfacet
facet normal -0.9659258262890685 -0.25881904510252035 5.694608697702726e-17
  outer loop
    vertex -64.22458614876743 -135.1884106201929 8.698600797996114e-09
    vertex -64.3881421825799 -133.9460792037008 5.000000008698602
    vertex -64.3881421825799 -133.9460792037008 8.698600797996114e-09
  endloop
endfacet
facet normal 0.9659258262890684 0.2588190451025207 0.0
  outer loop
    vertex -61.32680893417923 -124.01195348488532 8.698602560475166e-09
    vertex -61.1469881736709 -124.44607920370078 5.000000008699775
    vertex -61.1469881736709 -124.44607920370078 8.698602560475166e-09
  endloop
endfacet
facet normal 0.8660254037844376 0.5000000000000022 0.0
  outer loop
    vertex -61.1469881736709 -124.44607920370078 5.000000008699775
    vertex -61.32680893417923 -124.01195348488532 8.698602560475166e-09
    vertex -61.32680893417923 -124.01195348488532 5.000000008699775
  endloop
endfacet
facet normal 5.881332531126966e-16 -1.0 2.9888575362459694e-16
  outer loop
    vertex -59.5881421825799 -138.74607920370082 5.000000008698602
    vertex -60.83047359907201 -138.58252316988833 8.698600797996114e-09
    vertex -59.5881421825799 -138.74607920370082 8.698600797996114e-09
  endloop
endfacet
facet normal -0.258819045102528 -0.9659258262890664 2.887014685358691e-16
  outer loop
    vertex -60.83047359907201 -138.58252316988833 8.698600797996114e-09
    vertex -59.5881421825799 -138.74607920370082 5.000000008698602
    vertex -60.83047359907201 -138.58252316988833 5.000000008698602
  endloop
endfacet
facet normal -0.9659258262890685 0.25881904510252035 5.671812117864545e-17
  outer loop
    vertex -64.22458614876743 -122.30374778720869 5.000000008698602
    vertex -64.3881421825799 -123.54607920370078 8.698601502987734e-09
    vertex -64.3881421825799 -123.54607920370078 5.000000008698602
  endloop
endfacet
facet normal -0.9914448613738103 0.13052619222005396 -1.1616470124282182e-31
  outer loop
    vertex -64.3881421825799 -123.54607920370078 8.698601502987734e-09
    vertex -64.22458614876743 -122.30374778720869 5.000000008698602
    vertex -64.22458614876743 -122.30374778720869 8.698601502987734e-09
  endloop
endfacet
endsolid Much4
